<svg width="32" height="32" viewBox="0 0 32 32" fill="none" xmlns="http://www.w3.org/2000/svg">
<path d="M4 20.4186V18.5221H4.60253L5.31526 19.425L6.02799 18.5221H6.63052V20.4186H6.18795L6.17551 19.018L5.35969 20.0435H5.27438L4.44612 19.018V20.4186H4.00355H4ZM7.10152 19.4659C7.10152 18.8331 7.66673 18.4599 8.33502 18.4599C9.00332 18.4599 9.56852 18.8527 9.56852 19.4659C9.56852 20.0791 9.0282 20.4719 8.33502 20.4719C7.64185 20.4719 7.10152 20.0791 7.10152 19.4659ZM9.10818 19.4659C9.10818 19.0784 8.76515 18.8634 8.33502 18.8634C7.88002 18.8634 7.55476 19.1086 7.55476 19.4659C7.55476 19.8587 7.89246 20.0684 8.33502 20.0684C8.77759 20.0684 9.10818 19.8409 9.10818 19.4659ZM10.0413 20.4186V18.5221H10.6367L11.7974 19.9458V18.5221H12.2399V20.4186H11.6445L10.4839 18.9949V20.4186H10.0413ZM12.8229 20.4186V18.5221H14.7869V18.9327H13.2637V19.2331H14.5398V19.6383H13.2637V20.0133H14.7869V20.4186H12.8229ZM15.9724 20.4186V19.681L14.8918 18.5505V18.5203H15.4445L16.1928 19.3237L16.9482 18.5203H17.501V18.5505L16.415 19.681V20.4186H15.9724Z" fill="#FF9E18"/>
<path d="M20.1723 18.5203H18.6686V20.4168H19.1112V19.8089H20.1118C20.5544 19.8089 20.8423 19.569 20.8423 19.1584C20.8423 18.7905 20.5775 18.5203 20.1723 18.5203ZM20.1172 19.4055H19.1112V18.9327H20.0994C20.2967 18.9327 20.3944 19.0127 20.3944 19.1655C20.3944 19.3184 20.302 19.4055 20.1189 19.4055H20.1172Z" fill="#FF9E18"/>
<path d="M21.1783 20.4186V18.5203H21.6208V20.0133H23.0143V20.4186H21.1783Z" fill="#FF9E18"/>
<path d="M23.2045 19.5956V18.5221H23.647V19.5228C23.647 19.8729 23.855 20.0684 24.2976 20.0684C24.7401 20.0684 24.9552 19.8711 24.9552 19.5228V18.5221H25.3978V19.5956C25.3978 20.1911 24.8752 20.4737 24.2993 20.4737C23.6915 20.4737 23.2062 20.1911 23.2062 19.5956H23.2045Z" fill="#FF9E18"/>
<path d="M25.7763 20.2835L25.9168 19.8836C26.2171 19.9938 26.5673 20.0613 26.9227 20.0613C27.2782 20.0613 27.5253 19.9885 27.5253 19.8285C27.5253 19.7236 27.4453 19.6632 27.2604 19.6508L26.5602 19.601C26.1123 19.5708 25.8545 19.4161 25.8545 19.0731C25.8545 18.6625 26.322 18.4777 26.8676 18.4777C27.2604 18.4777 27.6106 18.5275 27.8683 18.6003L27.7759 19.0002C27.5004 18.9274 27.1929 18.8776 26.8676 18.8705C26.5122 18.8652 26.3273 18.938 26.3273 19.0482C26.3273 19.1407 26.4073 19.1958 26.5797 19.2082L27.3049 19.2633C27.7706 19.3006 27.9981 19.4659 27.9981 19.8214C27.9981 20.2995 27.5253 20.4595 26.9299 20.4595C26.4446 20.4595 26.0643 20.3866 25.7763 20.2817V20.2835Z" fill="#FF9E18"/>
<path d="M9.39256 12.4541C8.09685 12.4541 7.42145 13.1953 7.42145 14.6048C7.42145 16.0142 8.03287 16.7305 9.35168 16.7305C10.6705 16.7305 11.3299 15.9893 11.3299 14.5799C11.3299 13.1704 10.7185 12.4541 9.39256 12.4541ZM9.39256 15.7458C8.97665 15.7458 8.70116 15.5414 8.70116 14.5728C8.70116 13.6681 8.96954 13.4406 9.35346 13.4406C9.84935 13.4406 10.0537 13.7427 10.0537 14.6136C10.0537 15.4846 9.86712 15.7458 9.39434 15.7458H9.39256Z" fill="#00BBB4"/>
<path d="M6.98961 15.5095H5.48239C5.35975 15.5095 5.25489 15.4028 5.25489 15.282V11.5921C5.25489 11.5601 5.23001 11.5264 5.18913 11.5264H4.07293C4.03205 11.5264 4.00006 11.5583 4.00006 11.5921V15.689C4.00006 16.2186 4.43196 16.6505 4.96162 16.6505H6.98961C7.03049 16.6505 7.06248 16.6185 7.06248 16.5848V15.5823C7.06248 15.5414 7.03049 15.5095 6.98961 15.5095Z" fill="#00BBB4"/>
<path d="M18.5212 12.5288H17.421C17.3801 12.5288 17.3481 12.5608 17.3481 12.6017V15.1913C17.3481 15.4757 17.046 15.753 16.6478 15.753C16.2728 15.753 16.1111 15.5414 16.1111 15.1344V12.6017C16.1111 12.5608 16.0791 12.5288 16.0382 12.5288H14.9309C14.89 12.5288 14.858 12.5608 14.858 12.6017V15.2322C14.858 16.1937 15.4197 16.7305 16.3155 16.7305C16.8042 16.7305 17.1295 16.567 17.3748 16.3964C17.4228 16.3644 17.4636 16.3715 17.4885 16.4284L17.5454 16.5919C17.5614 16.6328 17.5774 16.6488 17.6183 16.6488H18.523C18.5709 16.6488 18.6047 16.6168 18.6047 16.5759V12.6017C18.6047 12.5608 18.5727 12.5288 18.523 12.5288H18.5212Z" fill="#00BBB4"/>
<path d="M14.2413 15.5858C14.2217 15.5361 14.1595 15.529 14.1151 15.5539C13.9764 15.6481 13.8005 15.7174 13.605 15.7174C13.365 15.7174 13.2459 15.6107 13.2459 15.3406V13.5667C13.2459 13.5223 13.2779 13.485 13.3277 13.485H14.1968C14.2413 13.485 14.2786 13.4601 14.2786 13.4103V12.6052C14.2786 12.5554 14.2413 12.5305 14.1968 12.5305H13.3277C13.2779 12.5305 13.2459 12.4932 13.2459 12.4559V11.6063C13.2459 11.5619 13.2139 11.5316 13.1713 11.5316H12.5172C12.4728 11.5316 12.4426 11.5565 12.4354 11.6063C12.391 12.1911 11.9573 12.5199 11.561 12.5323C11.5112 12.5323 11.4863 12.5643 11.4863 12.607V13.4121C11.4863 13.4619 11.5237 13.4868 11.561 13.4868H11.9253C11.9698 13.4868 12.0071 13.5241 12.0071 13.5685V15.3495C12.0071 16.2559 12.4159 16.734 13.3544 16.734C13.964 16.734 14.355 16.5634 14.499 16.4692C14.5239 16.4497 14.531 16.4194 14.5239 16.3874L14.2413 15.5876V15.5858Z" fill="#00BBB4"/>
<path d="M19.0579 16.0995C19.0259 16.0675 19.0331 16.0302 19.0579 15.9929L19.5307 15.257C19.5556 15.2126 19.6054 15.2251 19.6374 15.2446C20.0213 15.5272 20.4123 15.7352 20.8584 15.7352C21.0024 15.7352 21.2619 15.6907 21.2619 15.465C21.2619 15.2944 20.9597 15.17 20.6327 15.0686C20.0728 14.8927 19.3103 14.6225 19.3103 13.7658C19.3103 13.1242 19.8578 12.4559 20.9224 12.4559C21.5712 12.4559 22.0866 12.6567 22.4581 13.0033C22.4954 13.0407 22.4776 13.0851 22.4581 13.11L21.8982 13.8032C21.8733 13.8351 21.8235 13.8156 21.7915 13.796C21.6529 13.7072 21.3063 13.4619 20.8975 13.4619C20.6967 13.4619 20.5634 13.5508 20.5634 13.7018C20.5634 13.8778 20.8584 13.9844 21.1997 14.1053C21.7596 14.3062 22.5096 14.5461 22.5096 15.3957C22.5096 16.0373 21.9817 16.7234 20.8033 16.7234C20.1368 16.7234 19.4436 16.4586 19.0597 16.0995H19.0579Z" fill="#00BBB4"/>
<path d="M24.5483 16.0995C24.5163 16.0675 24.5234 16.0302 24.5483 15.9929L25.0211 15.257C25.046 15.2126 25.0957 15.2251 25.1277 15.2446C25.5116 15.5272 25.9027 15.7352 26.3488 15.7352C26.4927 15.7352 26.7522 15.6907 26.7522 15.465C26.7522 15.2944 26.4501 15.17 26.1231 15.0686C25.5632 14.8927 24.8007 14.6225 24.8007 13.7658C24.8007 13.1242 25.3481 12.4559 26.4128 12.4559C27.0615 12.4559 27.5769 12.6567 27.9484 13.0033C27.9857 13.0407 27.968 13.0851 27.9484 13.11L27.3885 13.8032C27.3637 13.8351 27.3121 13.8156 27.2819 13.796C27.1433 13.7072 26.7967 13.4619 26.3879 13.4619C26.187 13.4619 26.0537 13.5508 26.0537 13.7018C26.0537 13.8778 26.3488 13.9844 26.69 14.1053C27.2499 14.3062 28 14.5461 28 15.3957C28 16.0373 27.4721 16.7234 26.2937 16.7234C25.6272 16.7234 24.934 16.4586 24.5501 16.0995H24.5483Z" fill="#F7BE00"/>
<path d="M23.7254 11.5264C23.2117 11.5264 22.794 11.944 22.794 12.4577C22.794 12.6283 22.8402 12.7883 22.9202 12.9269L23.6027 14.0236C23.6294 14.0644 23.6738 14.0911 23.7254 14.0911C23.7769 14.0911 23.8213 14.0644 23.848 14.0236L24.5305 12.9269C24.6105 12.7883 24.6567 12.6283 24.6567 12.4577C24.6567 11.944 24.239 11.5264 23.7254 11.5264Z" fill="#F7BE00"/>
</svg>
