<svg width="32" height="32" viewBox="0 0 32 32" fill="none" xmlns="http://www.w3.org/2000/svg">
<path d="M23.1334 4.00393H8.86667C7.57649 4.00564 6.33964 4.51892 5.42734 5.43122C4.51505 6.34351 4.00177 7.58036 4.00006 8.87054V23.1335C4.00177 24.4236 4.51505 25.6605 5.42734 26.5728C6.33964 27.4851 7.57649 27.9984 8.86667 28.0001H23.1334C24.4236 27.9984 25.6605 27.4851 26.5728 26.5728C27.4851 25.6605 27.9984 24.4236 28.0001 23.1335V8.86667C27.9984 7.57649 27.4851 6.33964 26.5728 5.42734C25.6605 4.51505 24.4236 4.00177 23.1334 4.00006" fill="#0D60A8"/>
<path d="M13.5101 13.9346H12.2657C11.9017 13.9346 11.4305 14.1928 11.2936 14.5349L11.4227 13.8766H9.8995L9.22566 17.6601H10.7463L11.1658 15.2655H12.8014C12.8014 15.2655 12.5923 16.4519 12.4993 16.9837C12.4064 17.5155 12.7665 17.6433 12.9447 17.6433H13.7399L14.2562 14.7001C14.2136 14.2793 13.9283 13.9346 13.5075 13.9346" fill="white"/>
<path d="M8.80332 13.8766L8.51932 15.4992L9.67466 13.8766H8.80332Z" fill="white"/>
<path d="M10.608 7.94872H5.52062L5.29988 9.20346H7.07483L6.36356 13.2439H7.89583L8.61098 9.20346H10.3859L10.608 7.94872Z" fill="white"/>
<path d="M11.6602 12.0074L11.8835 10.7436H10.5203L10.297 12.0074H11.6602ZM9.51215 13.2479C9.41631 13.251 9.32105 13.232 9.23371 13.1924C9.14638 13.1528 9.0693 13.0937 9.00843 13.0196C8.94756 12.9455 8.90452 12.8584 8.88264 12.7651C8.86075 12.6717 8.8606 12.5746 8.8822 12.4811L9.26946 10.2686C9.3124 10.058 9.42482 9.86797 9.58868 9.72893C9.75253 9.58988 9.95833 9.5099 10.1731 9.50179H12.6671C12.7629 9.49868 12.8581 9.51765 12.9454 9.55725C13.0327 9.59684 13.1097 9.65599 13.1705 9.73013C13.2313 9.80426 13.2742 9.89138 13.2959 9.98475C13.3176 10.0781 13.3175 10.1752 13.2957 10.2686L12.9084 12.4811C12.8657 12.6918 12.7534 12.882 12.5895 13.0211C12.4256 13.1601 12.2196 13.24 12.0048 13.2479H9.51215Z" fill="white"/>
<path d="M19.5461 12.0073L19.7707 10.7435H21.7445L21.9626 9.50168H19.4235C19.2088 9.51001 19.0031 9.59007 18.8393 9.72908C18.6755 9.86808 18.563 10.058 18.5199 10.2685L18.1326 12.481C18.1112 12.5746 18.1115 12.6718 18.1337 12.7652C18.1558 12.8586 18.1991 12.9456 18.2602 13.0196C18.3214 13.0936 18.3987 13.1526 18.4863 13.1919C18.5738 13.2312 18.6692 13.2499 18.7651 13.2465H21.2346L21.4515 12.0073H19.5461Z" fill="white"/>
<path d="M16.4427 12.0073H14.771L15.2112 9.50168H13.8803L13.3575 12.481C13.3359 12.5744 13.336 12.6715 13.3579 12.7648C13.3798 12.8581 13.4229 12.9451 13.4838 13.0191C13.5447 13.0931 13.6218 13.1521 13.7091 13.1915C13.7965 13.231 13.8917 13.2498 13.9875 13.2465H15.2861C15.7069 13.2465 16.0516 12.9974 16.3188 12.6708C16.3188 12.6708 16.4686 13.1058 16.6815 13.2026C16.8945 13.2994 17.5464 13.2788 17.5464 13.2788L18.2138 9.50168H16.8842L16.4427 12.0073Z" fill="white"/>
<path d="M26.0431 9.51728H24.8013C24.616 9.52434 24.4367 9.5849 24.285 9.69164C24.1334 9.79839 24.0159 9.94675 23.9467 10.1188L24.3043 8.08311H22.9037L21.9936 13.2466H23.3968L23.8176 10.8456H25.3357C25.3357 10.8456 25.1279 12.0306 25.0349 12.5637C24.942 13.0969 25.3021 13.2234 25.4777 13.2234H26.1528L26.6692 10.2815C26.6906 10.1879 26.6902 10.0906 26.668 9.99713C26.6459 9.90369 26.6026 9.81657 26.5415 9.74249C26.4804 9.66841 26.4031 9.60935 26.3156 9.56986C26.228 9.53036 26.1326 9.51149 26.0366 9.51469" fill="white"/>
<path d="M21.05 18.92C20.9211 18.9236 20.7931 18.8977 20.6757 18.8442C20.5584 18.7907 20.4548 18.7111 20.373 18.6114C20.2911 18.5118 20.2332 18.3947 20.2035 18.2692C20.1739 18.1437 20.1733 18.0131 20.2019 17.8873L20.726 14.9183C20.7836 14.635 20.9346 14.3792 21.1549 14.192C21.3751 14.0047 21.6519 13.8968 21.9407 13.8856H25.1202C25.2492 13.8818 25.3774 13.9076 25.4949 13.961C25.6124 14.0144 25.7161 14.0939 25.7981 14.1936C25.8801 14.2933 25.9382 14.4105 25.9679 14.5361C25.9976 14.6617 25.9982 14.7924 25.9696 14.9183L25.4442 17.8873C25.3867 18.1702 25.2361 18.4256 25.0163 18.6128C24.7966 18.8 24.5205 18.9082 24.232 18.92H21.05ZM24.0061 17.5297L24.4063 15.2707H22.1512L21.7639 17.5297H24.0061Z" fill="white"/>
<path d="M17.9736 17.5298H15.7236L16.1212 15.2707H19.7705L20.0106 13.8805H15.9056C15.6172 13.8923 15.3411 14.0004 15.1214 14.1876C14.9016 14.3748 14.751 14.6303 14.6935 14.9132L14.1681 17.8822C14.1395 18.0079 14.1401 18.1386 14.1697 18.2641C14.1994 18.3896 14.2573 18.5066 14.3392 18.6063C14.421 18.706 14.5246 18.7856 14.6419 18.8391C14.7593 18.8926 14.8873 18.9185 15.0162 18.9149H18.1905C18.4791 18.9033 18.7556 18.7953 18.9756 18.6081C19.1956 18.4209 19.3464 18.1653 19.4039 17.8822L19.7254 16.0569H18.2305L17.9736 17.5298Z" fill="white"/>
<path d="M15.729 21.29L14.2677 24.3017H13.3409L13.2312 22.4802L12.3456 24.3017H11.4136L11.2355 21.29H11.8951L12.01 23.6536L13.146 21.29H13.8185L13.9321 23.6536L15.0694 21.29H15.729Z" fill="#F8D704"/>
<path d="M18.4888 24.3017H17.8446L18.4849 21.29H19.1278L18.4888 24.3017Z" fill="#F8D704"/>
<path d="M19.5473 24.3017H18.9019L19.5409 21.29H20.185L19.5473 24.3017Z" fill="#F8D704"/>
<path d="M23.9984 24.3029H23.482C23.312 24.314 23.1416 24.2903 22.9811 24.2332C22.9316 24.2048 22.8916 24.1622 22.8663 24.1109C22.841 24.0597 22.8316 24.002 22.8391 23.9454C22.8415 23.8506 22.8536 23.7563 22.8753 23.664L23.3787 21.29H24.0242L23.8628 22.04H24.485L24.365 22.5848H23.7518L23.5711 23.4432C23.5582 23.5002 23.5496 23.558 23.5453 23.6162C23.5453 23.6756 23.5646 23.7156 23.6059 23.7311C23.6846 23.7544 23.7668 23.7636 23.8486 23.7582H24.121L23.9984 24.3029Z" fill="#F8D704"/>
<path d="M10.8326 22.1073C10.6721 22.0482 10.501 22.0236 10.3304 22.035H9.40875C9.19647 22.0209 8.98503 22.0728 8.80333 22.1834C8.65149 22.308 8.55161 22.4848 8.52321 22.6791L8.31925 23.6589C8.30578 23.7112 8.29543 23.7642 8.28827 23.8177C8.28126 23.8603 8.27781 23.9035 8.27794 23.9468C8.27564 24.0056 8.28622 24.0642 8.30892 24.1185C8.33146 24.1641 8.36814 24.2012 8.41348 24.2243C8.47502 24.2572 8.54271 24.277 8.61228 24.2824C8.71677 24.2951 8.82203 24.3002 8.92725 24.2979H10.4931L10.608 23.7596H9.28741C9.20536 23.7652 9.12299 23.7552 9.04472 23.7299C9.02399 23.7187 9.00711 23.7015 8.99629 23.6805C8.98547 23.6596 8.98121 23.6358 8.98405 23.6124C8.98621 23.556 8.99312 23.4999 9.00471 23.4446H10.7758L10.9384 22.6804C10.96 22.5859 10.9721 22.4895 10.9746 22.3926C10.9812 22.3365 10.9713 22.2798 10.9461 22.2293C10.9208 22.1789 10.8814 22.1369 10.8326 22.1086V22.1073ZM10.2749 22.8999H9.12734C9.13773 22.8418 9.15462 22.7851 9.17768 22.7308C9.19415 22.6931 9.21938 22.6599 9.25127 22.6339C9.2844 22.6092 9.32369 22.594 9.36486 22.5901C9.42309 22.5827 9.48174 22.5793 9.54042 22.5797H10.0568C10.2246 22.5797 10.3085 22.6314 10.3085 22.7359C10.3085 22.7475 10.2969 22.8018 10.2775 22.8999" fill="#F8D704"/>
<path d="M17.7531 22.2169C17.7288 22.1707 17.6904 22.1336 17.6434 22.111C17.581 22.0808 17.5136 22.062 17.4446 22.0555C17.343 22.0441 17.2408 22.039 17.1386 22.04H15.578L15.4605 22.5848H16.7824C16.8641 22.5799 16.9461 22.5887 17.025 22.6106C17.0457 22.6211 17.0625 22.6379 17.0732 22.6585C17.0838 22.6791 17.0878 22.7025 17.0844 22.7255C17.0814 22.7838 17.0727 22.8417 17.0586 22.8984H16.0388C15.9136 22.8975 15.7886 22.9052 15.6645 22.9217C15.5753 22.9343 15.4899 22.966 15.414 23.0146C15.345 23.0634 15.2909 23.1304 15.2578 23.2083C15.212 23.3142 15.177 23.4245 15.1533 23.5374L15.1275 23.6665C15.1043 23.7591 15.0913 23.8539 15.0887 23.9492C15.0865 24.0106 15.0989 24.0717 15.1249 24.1274C15.1495 24.1738 15.1878 24.2117 15.2346 24.2358C15.2967 24.2651 15.3636 24.283 15.4321 24.2887C15.5341 24.3006 15.6367 24.3062 15.7393 24.3055H17.4059L17.7505 22.6816C17.7722 22.5888 17.7844 22.4941 17.7867 22.3989C17.7893 22.3373 17.7778 22.2759 17.7531 22.2194V22.2169ZM15.9071 23.7543C15.8129 23.7543 15.7652 23.7143 15.7652 23.633C15.7669 23.584 15.7877 23.5376 15.8232 23.5039C15.843 23.4837 15.8668 23.4679 15.893 23.4574C15.9192 23.447 15.9473 23.4421 15.9756 23.4432H16.9424L16.8753 23.7595L15.9071 23.7543Z" fill="#F8D704"/>
<path d="M22.6005 22.107C22.44 22.0481 22.2689 22.0235 22.0983 22.0347H21.1766C20.9644 22.0207 20.7529 22.0725 20.5712 22.1832C20.419 22.3075 20.319 22.4844 20.2911 22.6789L20.0858 23.6587C20.0729 23.718 20.0613 23.771 20.0536 23.8174C20.0486 23.8603 20.046 23.9034 20.0458 23.9465C20.0422 24.0054 20.0529 24.0643 20.0768 24.1182C20.0993 24.1638 20.136 24.201 20.1814 24.2241C20.2429 24.257 20.3106 24.2767 20.3802 24.2822C20.4842 24.2948 20.589 24.3 20.6938 24.2976H22.261L22.3759 23.7594H21.0553C20.9728 23.7647 20.8901 23.7546 20.8113 23.7297C20.7907 23.7184 20.774 23.7011 20.7634 23.6801C20.7528 23.6592 20.7488 23.6355 20.7519 23.6122C20.7541 23.5558 20.761 23.4996 20.7726 23.4444H22.5385L22.7012 22.6802C22.7237 22.5858 22.7362 22.4893 22.7386 22.3923C22.7448 22.3362 22.7345 22.2795 22.7091 22.2291C22.6836 22.1787 22.6441 22.1367 22.5953 22.1083L22.6005 22.107ZM22.0299 22.9009H20.8836C20.893 22.8428 20.9095 22.786 20.9327 22.7318C20.9495 22.6944 20.9747 22.6613 21.0062 22.635C21.04 22.6105 21.0796 22.5953 21.1211 22.5911C21.1793 22.5837 21.238 22.5803 21.2967 22.5808H21.813C21.9796 22.5808 22.0712 22.6324 22.0712 22.737C22.0633 22.7921 22.0525 22.8469 22.0389 22.9009" fill="#F8D704"/>
</svg>
