<svg width="32" height="32" viewBox="0 0 32 32" fill="none" xmlns="http://www.w3.org/2000/svg">
<path d="M4 9C4 6.23858 6.23858 4 9 4H23C25.7614 4 28 6.23858 28 9V23C28 25.7614 25.7614 28 23 28H9C6.23858 28 4 25.7614 4 23V9Z" fill="#1CAD4F"/>
<path d="M13.2914 18.2885C13.2914 19.5334 12.4613 20.2654 11.217 20.2654H10.1552V22.0837H9.11802V16.3482H11.217C12.4738 16.3362 13.2914 17.0317 13.2914 18.2885ZM12.2662 18.2885C12.2662 17.5931 11.8389 17.3124 11.229 17.3124H10.1672V19.2892H11.229C11.8269 19.2892 12.2662 18.972 12.2662 18.2885Z" fill="white"/>
<path d="M18.1848 19.4849V22.0356H17.1596V21.5718C17.1596 21.5838 16.8059 22.0842 15.9147 22.0842C14.5723 22.0842 13.7427 21.2176 13.7427 19.8751V19.4969C13.7427 18.1424 14.6213 17.2878 15.9758 17.2878C17.3302 17.2758 18.1848 18.1304 18.1848 19.4849ZM17.1596 19.4849C17.1596 18.7403 16.6713 18.2765 15.9758 18.2765C15.2803 18.2765 14.7674 18.7278 14.7674 19.4849V19.8631C14.7674 20.5711 15.2798 21.0835 15.9758 21.0835C16.7203 21.0835 17.1596 20.6687 17.1596 19.8876V19.4849Z" fill="white"/>
<path d="M22.8956 17.3369V22.0842C22.8956 23.3536 22.0415 24 20.7476 24C20.1252 24 19.5638 23.7558 19.1975 23.4141V22.3769C19.5638 22.7066 20.1252 23.0113 20.7961 23.0113C21.5041 23.0113 21.9309 22.7061 21.9309 22.0226V21.5833C21.6992 21.8885 21.2109 22.0717 20.7471 22.0717C19.5513 22.0717 18.8313 21.2541 18.8313 20.0703V17.3369H19.9175V20.0703C19.9175 20.6562 20.2958 21.071 20.8817 21.071C21.4676 21.071 21.8458 20.7047 21.8458 20.1193V17.3369H22.8956Z" fill="white"/>
<path d="M24.5357 10.6834C24.1079 10.2556 23.5375 10.0094 22.9416 10.0094C22.5007 10.0094 22.0599 10.178 21.8268 10.3336C21.3214 10.6709 20.9196 11.0336 20.1806 11.9798V12.6667C20.8026 11.8502 21.399 11.2022 21.8528 10.852C22.151 10.6188 22.5658 10.4632 22.9546 10.4632C23.9397 10.4632 24.7563 11.2928 24.7563 12.265V12.6797C24.7563 13.1596 24.5617 13.6129 24.2249 13.9631C23.8877 14.3004 23.4344 14.4945 22.9546 14.4945C22.151 14.4945 21.438 13.9371 21.2434 13.1856L20.9191 13.5744C21.1523 14.3649 22.0079 14.9483 22.9541 14.9483C23.5505 14.9483 24.1209 14.7152 24.5482 14.2744C24.976 13.8466 25.2221 13.2762 25.2221 12.6802V12.2655C25.2091 11.6821 24.9635 11.1112 24.5357 10.6834ZM14.7098 10.4637C15.0211 10.4637 15.2932 10.5288 15.5394 10.6709C15.656 10.5283 15.7726 10.4117 15.8506 10.3211C15.5914 10.1265 15.1637 9.99689 14.7098 9.99689C14.0749 9.99689 13.4915 10.23 13.0767 10.6448C12.6619 11.0596 12.4418 11.63 12.4418 12.265V14.9608H12.8956V12.2775C12.8956 11.2147 13.6476 10.4627 14.7103 10.4627M19.0654 14.9603V12.277C19.0654 11.4474 18.4174 10.8125 17.6008 10.8125C17.2121 10.8125 16.8488 10.9681 16.5641 11.2533C16.2789 11.5385 16.1233 11.9012 16.1233 12.29V12.7048C16.1233 13.4953 16.7973 14.1693 17.5878 14.1693C17.808 14.1693 18.1062 14.1172 18.2878 13.9621V13.4823C18.1062 13.6249 17.847 13.7155 17.5878 13.7155C17.0174 13.7155 16.5766 13.2747 16.5766 12.7043V12.2895C16.5766 11.7191 17.0174 11.2783 17.5878 11.2783C18.1582 11.2783 18.599 11.7191 18.599 12.2895V14.9598L19.0654 14.9603ZM6.77783 12.0053V12.1479C6.77783 12.9384 7.07604 13.6904 7.63343 14.2348C8.1778 14.7922 8.91682 15.0904 9.69436 15.0904C10.3293 15.0904 10.8867 14.9478 11.3535 14.6626C11.7423 14.4295 11.9109 14.1958 11.9239 14.1703V11.7206H9.57778V12.1744H11.4701V14.0537C11.2499 14.2739 10.7181 14.6501 9.69436 14.6501C9.02039 14.6501 8.39796 14.3909 7.94464 13.9241C7.49133 13.4573 7.24466 12.8354 7.24466 12.1614V12.0188C7.24466 11.3838 7.52985 10.7484 8.0352 10.2821C8.54056 9.80225 9.21452 9.54307 9.91451 9.54307C10.5625 9.54307 11.0163 9.64664 11.379 9.8673V9.34894C11.0033 9.19333 10.5494 9.11577 9.91451 9.11577C8.20382 9.08876 6.77783 10.4237 6.77783 12.0053ZM14.7103 11.2663C14.879 11.2663 15.0346 11.2923 15.1511 11.3568C15.2032 11.2142 15.2677 11.0977 15.3583 10.9551C15.2287 10.8645 14.9305 10.8125 14.7233 10.8125C13.8808 10.8125 13.2588 11.4474 13.2588 12.277V14.9603H13.7126V12.277C13.6996 11.6806 14.1139 11.2663 14.7103 11.2663ZM11.3665 10.7214V10.177C10.9517 9.95686 10.4979 9.85279 9.902 9.85279C9.30609 9.85279 8.70967 10.0729 8.26887 10.4877C7.82806 10.9025 7.58189 11.4339 7.58189 12.0043V12.1469C7.58189 13.3262 8.52805 14.2984 9.69486 14.2984C10.641 14.2984 11.0298 13.9872 11.1339 13.8836V12.5096H9.57828V12.9634H10.7061V13.6504C10.5635 13.7025 10.2653 13.832 9.69486 13.832C9.25405 13.832 8.82625 13.6634 8.51554 13.3397C8.20432 13.0285 8.03571 12.6007 8.03571 12.1344V11.9918C8.03571 11.0716 8.8913 10.3066 9.902 10.3066C10.589 10.3196 11.0038 10.4362 11.3665 10.7214ZM22.2025 11.59C22.4097 11.3828 22.6824 11.2658 22.9416 11.2658C23.5119 11.2658 23.9528 11.7066 23.9528 12.277V12.6918C23.9528 13.2622 23.5119 13.703 22.9416 13.703C22.6694 13.703 22.3972 13.5474 22.1895 13.2752C22.0079 13.029 21.8913 12.7048 21.8653 12.4196L21.4895 12.8734C21.5671 13.2231 21.7487 13.5473 21.9949 13.7805C22.2541 14.0267 22.5913 14.1563 22.928 14.1563C23.7446 14.1563 24.3926 13.4953 24.3926 12.6918V12.277C24.3926 11.8882 24.2369 11.5249 23.9518 11.2402C23.6666 10.9556 23.3038 10.7994 22.915 10.7994C22.6689 10.7994 22.2931 10.89 21.8263 11.3048C21.6967 11.4214 21.4115 11.7196 21.2429 11.9267C20.9447 12.251 20.5169 12.7303 20.1541 13.2231V13.9361C20.5559 13.4178 20.7891 13.1196 21.1783 12.6787C21.5281 12.29 21.9559 11.7971 22.2025 11.59ZM15.3328 12.6918C15.3328 13.2882 15.5659 13.8586 16.0067 14.2859C16.4345 14.7137 17.0049 14.9598 17.6008 14.9598C17.847 14.9598 18.1192 14.9078 18.3008 14.8172V14.3634C18.0807 14.454 17.821 14.506 17.6008 14.506C16.6157 14.506 15.7991 13.6764 15.7991 12.7043V12.2895C15.7991 11.3043 16.6287 10.4877 17.6008 10.4877C18.0932 10.4877 18.547 10.6694 18.8842 11.0191C19.2215 11.3563 19.4156 11.8096 19.4156 12.3025V14.9598H19.8694V12.1989C19.8434 11.6155 19.5972 11.0711 19.1694 10.6563C18.7416 10.2416 18.1842 10.0214 17.6008 10.0214C17.0174 10.0214 16.434 10.2546 16.0067 10.6954C15.5789 11.1232 15.3328 11.6936 15.3328 12.2895V12.6918ZM20.647 10.916C20.7896 10.7474 20.9322 10.5788 21.1008 10.4362V8.01301H20.647V10.916ZM21.4375 10.2421V8H21.8913V9.91833C21.7747 9.98338 21.6061 10.1125 21.4375 10.2421Z" fill="white"/>
</svg>
