<svg width="32" height="32" viewBox="0 0 32 32" fill="none" xmlns="http://www.w3.org/2000/svg">
<path fill-rule="evenodd" clip-rule="evenodd" d="M25.2674 4.71457C24.3972 4.2475 23.5309 4 21.1477 4H10.8483C8.46505 4 7.60278 4.2475 6.73252 4.71457C5.86226 5.18164 5.17962 5.86427 4.71256 6.73453C4.24549 7.60479 3.99799 8.47106 3.99799 10.8503V21.1497C3.99799 23.5329 4.24549 24.3952 4.71256 25.2655C5.17962 26.1357 5.86226 26.8184 6.73252 27.2854C7.60278 27.7525 8.46904 28 10.8483 28H21.1477C23.5309 28 24.3932 27.7525 25.2635 27.2854C26.1337 26.8184 26.8164 26.1357 27.2834 25.2655C27.7505 24.3952 27.998 23.5289 27.998 21.1497V10.8503C27.998 8.46707 27.7505 7.60479 27.2834 6.73453C26.8164 5.86427 26.1337 5.18164 25.2635 4.71457H25.2674Z" fill="url(#paint0_linear_1044_3891)"/>
<path style="mix-blend-mode:multiply" opacity="0.5" fill-rule="evenodd" clip-rule="evenodd" d="M7.11169 20.8703L12.5808 28.004H24.9919C28.3732 28.004 30.2893 24.1238 28.2335 21.4411L24.9001 17.0898V17.8403L22.453 14.6427V17.5289L17.3392 11.0858L13.3073 16.2994L9.34722 11.0858L7.11169 20.8703Z" fill="url(#paint1_linear_1044_3891)"/>
<path d="M9.34722 11.0819H7.11169V20.8664H9.34722V11.0819Z" fill="white"/>
<path d="M17.3395 20.8662L12.114 14.1037L12.0102 14.2394L10.6689 15.976L13.7627 19.98C14.0781 20.3871 14.4493 20.8702 15.3395 20.8702H17.3395V20.8662Z" fill="white"/>
<path opacity="0.8" d="M12.114 14.1077L13.5591 15.9759L17.3396 11.0857H15.3396C14.4493 11.0857 14.0781 11.5648 13.7627 11.9759L12.114 14.1077Z" fill="url(#paint2_linear_1044_3891)"/>
<path d="M24.9001 17.0859H22.453V14.6428H21.1197V17.0859H18.6725V18.4232H21.1197V20.8663H22.453V18.4232H24.9001V17.0859Z" fill="white"/>
<defs>
<linearGradient id="paint0_linear_1044_3891" x1="27.7585" y1="7.27745" x2="3.22753" y2="25.477" gradientUnits="userSpaceOnUse">
<stop stop-color="#69A775"/>
<stop offset="0.5" stop-color="#49A057"/>
<stop offset="1" stop-color="#367A45"/>
</linearGradient>
<linearGradient id="paint1_linear_1044_3891" x1="7.53825" y1="8.36349" x2="22.4423" y2="27.3732" gradientUnits="userSpaceOnUse">
<stop stop-color="#68696B" stop-opacity="0.6"/>
<stop offset="1" stop-color="white"/>
</linearGradient>
<linearGradient id="paint2_linear_1044_3891" x1="8.75259" y1="21.6054" x2="17.3396" y2="11.0857" gradientUnits="userSpaceOnUse">
<stop stop-color="#515253"/>
<stop offset="1" stop-color="white"/>
</linearGradient>
</defs>
</svg>
