<svg width="32" height="32" viewBox="0 0 32 32" fill="none" xmlns="http://www.w3.org/2000/svg">
<path d="M16.7175 20.5203C16.4079 20.5203 16.1273 20.6591 15.9335 20.8761C15.7367 20.6562 15.459 20.5203 15.1495 20.5203C14.5593 20.5203 14.0791 21.0149 14.0791 21.6225V23.0227C14.0791 23.1789 14.2064 23.3062 14.3626 23.3062C14.5188 23.3062 14.6461 23.1789 14.6461 23.0227V21.6225C14.6461 21.3274 14.8717 21.0873 15.1466 21.0873C15.4214 21.0873 15.6471 21.3274 15.6471 21.6225V23.0227C15.6471 23.1789 15.7744 23.3062 15.9306 23.3062C16.0868 23.3062 16.2141 23.1789 16.2141 23.0227V21.6225C16.2141 21.3274 16.4397 21.0873 16.7146 21.0873C16.9894 21.0873 17.215 21.3274 17.215 21.6225V23.0227C17.215 23.1789 17.3423 23.3062 17.4986 23.3062C17.6548 23.3062 17.7821 23.1789 17.7821 23.0227V21.6225C17.7821 21.0149 17.3018 20.5203 16.7117 20.5203H16.7175Z" fill="#F48220"/>
<path d="M22.6104 23.3091C22.4542 23.3091 22.3269 23.1818 22.3269 23.0256V21.6254C22.3269 21.3303 22.0897 21.0902 21.8004 21.0902C21.5111 21.0902 21.2739 21.3303 21.2739 21.6254V23.0256C21.2739 23.1818 21.1466 23.3091 20.9904 23.3091C20.8341 23.3091 20.7068 23.1818 20.7068 23.0256V21.6254C20.7068 21.0178 21.1987 20.5231 21.8033 20.5231C22.4079 20.5231 22.8997 21.0178 22.8997 21.6254V23.0256C22.8997 23.1818 22.7724 23.3091 22.6162 23.3091H22.6104Z" fill="#F48220"/>
<path d="M27.7107 20.5203C27.5545 20.5203 27.4272 20.6475 27.4272 20.8038V22.204C27.4272 22.499 27.19 22.7392 26.9007 22.7392C26.6114 22.7392 26.3742 22.499 26.3742 22.204V20.8038C26.3742 20.6475 26.2469 20.5203 26.0906 20.5203C25.9344 20.5203 25.8071 20.6475 25.8071 20.8038V22.204C25.8071 22.8115 26.2989 23.3091 26.9036 23.3091C27.0945 23.3091 27.2739 23.2599 27.4301 23.1731V23.3149C27.4301 23.6099 27.1929 23.85 26.9036 23.85C26.8486 23.85 26.7965 23.8414 26.7445 23.824C26.594 23.7748 26.4349 23.8587 26.3857 24.0063C26.3365 24.1567 26.4204 24.3158 26.568 24.365C26.675 24.3997 26.7879 24.4171 26.9036 24.4171C27.5082 24.4171 28 23.9224 28 23.3149V20.8038C28 20.6475 27.8727 20.5203 27.7165 20.5203H27.7107Z" fill="#F48220"/>
<path d="M19.2575 23.3525C18.595 23.3525 18.0569 22.8144 18.0569 22.1519V21.7179C18.0569 21.0554 18.595 20.5174 19.2575 20.5174C19.92 20.5174 20.4581 21.0554 20.4581 21.7179V22.1519C20.4581 22.8144 19.92 23.3525 19.2575 23.3525ZM19.2575 21.0902C18.9103 21.0902 18.6268 21.3737 18.6268 21.7208V22.1548C18.6268 22.5019 18.9103 22.7854 19.2575 22.7854C19.6046 22.7854 19.8881 22.5019 19.8881 22.1548V21.7208C19.8881 21.3737 19.6046 21.0902 19.2575 21.0902Z" fill="#F48220"/>
<path d="M24.3346 23.3525C23.6721 23.3525 23.134 22.8144 23.134 22.1519V21.7179C23.134 21.0554 23.6721 20.5174 24.3346 20.5174C24.9971 20.5174 25.5352 21.0554 25.5352 21.7179V21.9349C25.5352 22.0911 25.4079 22.2184 25.2517 22.2184H23.7097C23.7445 22.5338 24.0106 22.7797 24.3375 22.7797C24.5805 22.7797 24.7078 22.7536 24.8756 22.5916C24.9884 22.4846 25.1707 22.4875 25.2777 22.6003C25.3848 22.7131 25.3819 22.8954 25.269 23.0024C24.9364 23.3206 24.6268 23.3467 24.3375 23.3467L24.3346 23.3525ZM24.9624 21.6514C24.9277 21.3361 24.6615 21.0902 24.3346 21.0902C24.0077 21.0902 23.7416 21.3361 23.7068 21.6514H24.9624Z" fill="#F48220"/>
<path fill-rule="evenodd" clip-rule="evenodd" d="M4.39634 19.8259V20.5203H4V21.2869H4.39634V22.1866C4.39634 22.8925 4.96914 23.3409 5.67502 23.3409H6.16972V22.6061H5.67213C5.43202 22.6061 5.23529 22.4094 5.23529 22.1692V21.2869H5.78496C5.99904 21.2753 6.16972 21.1017 6.16972 20.8819V20.5203H5.23529V19.8259H4.39634ZM10.0434 22.204C10.0434 22.4441 9.84667 22.6408 9.60366 22.6408C9.36066 22.6408 9.16683 22.4412 9.16683 22.204V20.9253C9.16683 20.7025 8.98746 20.5203 8.76181 20.5203H8.32498V22.094C8.32498 22.8028 8.70685 23.3756 9.60366 23.3756C10.5005 23.3756 10.8824 22.8028 10.8824 22.094V20.5203H10.0434V22.204ZM13.7695 22.0159C13.7637 21.1422 13.2893 20.4537 12.4069 20.4537C11.649 20.4537 11.0357 21.067 11.0357 21.9089C11.0357 22.8202 11.5911 23.3582 12.4127 23.3756C12.945 23.3756 13.4108 23.0776 13.648 22.6379L12.8814 22.4383C12.7888 22.5771 12.6123 22.6755 12.4069 22.6755C12.1061 22.6755 11.866 22.4614 11.8573 22.2011H13.7695C13.7695 22.1606 13.7695 22.0622 13.7695 22.0188V22.0159ZM11.8573 21.6254C11.866 21.365 12.1061 21.1538 12.4069 21.1538C12.7078 21.1538 12.9537 21.365 12.9566 21.6254H11.8573ZM7.52652 20.5203C6.88428 20.5203 6.36355 21.041 6.36355 21.6832V23.3409H7.20251V21.7237C7.20251 21.4807 7.39923 21.2869 7.64224 21.2869H8.13115V20.5203H7.52652Z" fill="#ED1C24"/>
<path d="M12.5053 8.03713C12.4301 7.78544 12.1639 7.58293 11.9122 7.58293H7.5323C7.28062 7.58293 7.13886 7.78544 7.21408 8.03713L9.68756 16.2792C9.76278 16.5309 10.0289 16.7334 10.2806 16.7334H13.8766C14.1283 16.7334 14.4118 16.5309 14.5101 16.2792L14.7763 15.5935L12.5053 8.03713Z" fill="#EB2227"/>
<path d="M17.6837 10.0738H13.3587C13.0723 10.0738 12.9508 10.2763 12.8611 10.528L10.8419 16.2792C10.7522 16.5309 10.4773 16.7334 10.2257 16.7334H15.3404C15.5921 16.7334 15.8669 16.5309 15.9566 16.2792L17.9759 10.528C18.0627 10.2763 17.9325 10.0738 17.6808 10.0738H17.6837Z" fill="#9D1C20"/>
<path d="M18.3144 10.5251C18.2392 10.2734 17.973 10.0709 17.7213 10.0709H13.3414C13.0897 10.0709 12.9479 10.2734 13.0231 10.5251L15.0771 17.419C15.1524 17.6707 15.4185 17.8732 15.6702 17.8732H19.2662C19.5178 17.8732 19.8014 17.6707 19.8997 17.419L20.1659 16.7334L18.3144 10.5251Z" fill="#FFCE01"/>
<path d="M24.5053 8.61572H19.8563C19.6046 8.61572 19.3211 8.81823 19.2228 9.06991L16.2922 17.4161V17.4219C16.1909 17.6707 15.9103 17.8732 15.6586 17.8732H21.216C21.4677 17.8732 21.7512 17.6707 21.8467 17.419L24.7801 9.07281C24.8785 8.82112 24.7541 8.61861 24.5024 8.61861L24.5053 8.61572Z" fill="#FF8300"/>
</svg>
