<svg width="32" height="32" viewBox="0 0 32 32" fill="none" xmlns="http://www.w3.org/2000/svg">
<path d="M4 8.99997C4 6.23855 6.23858 3.99997 9 3.99997H23C25.7614 3.99997 28 6.23855 28 8.99997V23C28 25.7614 25.7614 28 23 28H9C6.23858 28 4 25.7614 4 23V8.99997Z" fill="#01A6E6"/>
<mask id="mask0_1044_3910" style="mask-type:luminance" maskUnits="userSpaceOnUse" x="8" y="8" width="16" height="16">
<path d="M22.9681 12.5178C23 12.4893 23.0253 12.4541 23.0421 12.4148C23.059 12.3755 23.067 12.333 23.0656 12.2902C23.0656 11.589 20.6326 9.80103 19.2351 9.80103C18.0716 9.80103 18.5886 11.7362 17.3668 11.7362C16.7801 11.7362 16.4238 11.4169 16.4238 10.7028C16.4238 9.82237 17.019 9.21501 17.7423 9.21501C18.3113 9.21501 18.59 9.37076 18.59 9.54714C18.7074 9.44899 18.8247 9.35441 18.8247 9.15598C18.8247 8.86297 18.4734 8.58703 17.7693 8.58703C17.5737 8.2357 17.0468 8.00101 16.519 8.00101C16.1841 8.00101 15.7695 8.12546 15.3456 8.38007C15.2196 8.43657 15.0832 8.4659 14.9452 8.46613C14.7724 8.46613 14.6536 8.46186 14.5654 8.41563C14.616 8.408 14.6621 8.38206 14.6948 8.34274C14.7276 8.30341 14.7448 8.25343 14.7432 8.20227C14.7386 8.14523 14.712 8.09222 14.669 8.0545C14.626 8.01678 14.5699 7.99734 14.5128 8.00029C14.4803 7.99912 14.4479 8.00461 14.4176 8.01641C14.3873 8.02822 14.3598 8.0461 14.3367 8.06895C14.3136 8.0918 14.2954 8.11914 14.2832 8.14928C14.2711 8.17943 14.2652 8.21174 14.266 8.24423C14.266 8.5344 14.5469 8.693 14.8705 8.72287C14.815 8.77028 14.7596 8.81935 14.7041 8.87008C14.6596 8.87865 14.6143 8.88294 14.569 8.88288C14.1878 8.88288 13.7795 8.72784 13.6985 8.41563C13.7218 8.42113 13.7456 8.42423 13.7696 8.42488C13.7972 8.42476 13.8245 8.41882 13.8497 8.40743C13.8748 8.39604 13.8973 8.37947 13.9157 8.35879C13.934 8.33811 13.9477 8.3138 13.956 8.28744C13.9643 8.26108 13.9669 8.23327 13.9637 8.20583C13.9637 8.0771 13.8642 8.00598 13.7234 8.00527C13.5825 8.00456 13.4552 8.1084 13.4552 8.30753C13.4552 8.67877 13.7923 9.13038 14.3961 9.18941C13.9339 9.72713 13.5881 10.3548 13.3806 11.0328C13.3254 11.0427 13.2695 11.0475 13.2134 11.047C12.8806 11.047 12.7867 10.8017 12.7867 10.407C12.7867 9.89847 12.6502 9.66449 12.0833 9.66449C10.7086 9.66449 8.89293 11.5093 8.89293 12.2539C8.89571 12.3057 8.90991 12.3562 8.9345 12.4018C8.95909 12.4474 8.99347 12.487 9.03517 12.5178C8.50533 12.9886 8.07861 13.9203 8.07861 15.2409C8.07861 16.5211 8.43421 17.7735 8.82679 17.7735C8.85877 17.773 8.89033 17.7661 8.91964 17.7533C8.94894 17.7405 8.9754 17.722 8.99747 17.6988C9.25137 18.969 10.7755 20.7278 10.7755 22.3301C10.7755 22.5847 10.6382 22.7213 10.4234 22.7213C10.2278 22.7213 10.0522 22.6039 9.87651 22.4083C9.89988 22.5777 9.98422 22.7326 10.1137 22.8442C10.2432 22.9558 10.409 23.0162 10.5799 23.0143C11.0294 23.0143 11.2249 22.643 11.2249 22.1936C11.2249 20.8011 10.5038 19.5515 10.065 18.6554C10.7442 18.6163 10.9312 17.4954 10.9312 16.2914C11.8973 16.2843 12.8264 15.9194 13.5392 15.2673C13.7148 15.632 13.9477 15.9662 14.229 16.2572C14.091 16.834 13.7888 17.1619 13.3848 17.3397C13.2426 17.2209 12.9176 17.0616 12.4603 17.0616C12.03 17.0616 11.6196 17.2174 11.6196 17.6306C11.6196 17.9044 11.8017 18.0807 12.0556 18.0807C12.173 18.0807 12.2057 18.0416 12.2057 18.0416C12.1706 18.0222 12.1413 17.9939 12.1207 17.9596C12.1001 17.9253 12.0889 17.8861 12.0883 17.846C12.088 17.8168 12.0942 17.7878 12.1065 17.7612C12.1188 17.7346 12.1369 17.7111 12.1594 17.6924C12.3273 17.8055 12.6096 17.846 12.8521 17.846C13.1138 17.8391 13.372 17.7852 13.6145 17.6867C13.6293 17.718 13.6359 17.7525 13.6337 17.787C13.632 17.8292 13.6182 17.8701 13.594 17.9047C13.5698 17.9394 13.5362 17.9664 13.4972 17.9826C13.5477 17.9989 13.6007 18.0057 13.6537 18.0025C13.6964 18.0052 13.7392 17.9992 13.7794 17.9847C13.8197 17.9701 13.8565 17.9475 13.8877 17.9182C13.9188 17.8888 13.9436 17.8534 13.9605 17.8141C13.9774 17.7747 13.986 17.7324 13.9858 17.6896C13.9888 17.6353 13.971 17.5819 13.936 17.5402C14.2965 17.36 14.6123 17.1017 14.8605 16.7842C15.1328 16.9639 15.4258 17.1101 15.7332 17.2195C15.5824 17.8766 15.2887 18.3304 14.8563 18.5708C14.7084 18.4527 14.3883 18.2991 13.9424 18.2991C13.5157 18.2991 13.1025 18.4555 13.1025 18.868C13.1025 19.1418 13.2845 19.3175 13.5384 19.3175C13.6558 19.3175 13.6885 19.2784 13.6885 19.2784C13.6535 19.259 13.6242 19.2307 13.6036 19.1964C13.583 19.162 13.5718 19.1229 13.5712 19.0828C13.5704 19.0531 13.5764 19.0237 13.5887 18.9967C13.601 18.9697 13.6193 18.9459 13.6423 18.9271C13.8051 19.048 14.0804 19.1027 14.3421 19.1027C14.6041 19.1026 14.8634 19.0496 15.1045 18.947C15.1114 18.9722 15.1145 18.9983 15.1137 19.0245C15.1118 19.0666 15.098 19.1073 15.0738 19.1418C15.0496 19.1763 15.0161 19.2032 14.9772 19.2194C15.0276 19.2357 15.0807 19.2424 15.1336 19.2393C15.1764 19.242 15.2192 19.2359 15.2594 19.2214C15.2997 19.2069 15.3365 19.1843 15.3677 19.1549C15.3988 19.1256 15.4236 19.0902 15.4405 19.0508C15.4573 19.0115 15.466 18.9691 15.4658 18.9263C15.4675 18.875 15.4511 18.8247 15.4195 18.7841C15.9537 18.4449 16.3206 17.8937 16.4401 17.4129C16.7393 17.4676 17.0428 17.495 17.3469 17.4947C17.79 17.7906 18.004 18.127 18.004 18.7037C18.004 19.6226 17.4962 19.9938 16.9685 20.0131C16.5582 20.0131 16.1471 19.8182 15.9522 19.5636C15.9242 19.7835 15.9579 20.0068 16.0497 20.2086C16.0834 20.2792 16.1246 20.346 16.1727 20.4078C15.5981 20.3189 15.2674 20.0756 15.1116 19.8573C15.1116 20.8459 16.002 21.4781 17.0859 21.5336C16.4152 22.217 15.4679 22.6715 14.271 22.6715C14.1099 22.6713 13.9491 22.658 13.7902 22.6317C13.5153 22.311 13.3667 21.9012 13.372 21.4788C13.372 20.6581 13.8606 20.0522 14.6429 19.8573C14.4061 19.8572 14.1717 19.9045 13.9534 19.9963C13.7351 20.0881 13.5373 20.2225 13.3717 20.3918C13.206 20.5611 13.0759 20.7617 12.9889 20.982C12.9019 21.2022 12.8597 21.4376 12.8649 21.6744C12.8642 21.908 12.9049 22.1399 12.9851 22.3593C12.5378 22.1075 12.2199 21.7014 12.2199 21.1275C12.2199 20.5408 12.4937 20.033 13.1971 19.8374C12.3764 19.8374 11.8095 20.4234 11.8095 21.2249C11.8095 22.1758 12.4887 22.7654 13.3784 23.01C13.9154 23.6174 14.8413 24 15.9921 24C18.2579 24 19.8474 22.51 19.8325 20.1446C20.1461 19.6269 20.319 18.9889 20.319 18.2763C20.319 17.1761 20.0345 16.551 19.5075 16.0467C20.0133 16.2096 20.5408 16.295 21.0721 16.2999C21.0721 16.9364 21.1304 17.5843 21.299 18.0402C21.304 18.053 21.3089 18.0665 21.3139 18.0786C21.3338 18.1298 21.3552 18.1772 21.3779 18.2208C21.39 18.2436 21.4014 18.2657 21.4142 18.2863C21.427 18.3069 21.4391 18.3282 21.4519 18.3481C21.483 18.3952 21.5185 18.4393 21.5579 18.4797C21.5726 18.4953 21.5883 18.5101 21.6048 18.5238C21.6979 18.6054 21.8155 18.6537 21.9391 18.6611C21.5002 19.5572 20.7791 20.8067 20.7791 22.1993C20.7791 22.6487 20.9747 23.02 21.4241 23.02C21.595 23.0218 21.7607 22.9612 21.8902 22.8497C22.0196 22.7382 22.104 22.5833 22.1275 22.414C21.9519 22.6096 21.7762 22.727 21.5806 22.727C21.3673 22.727 21.225 22.5904 21.225 22.3358C21.225 20.7335 22.7498 18.9747 23.003 17.7045C23.025 17.7276 23.0513 17.7461 23.0805 17.7589C23.1097 17.7717 23.1411 17.7786 23.173 17.7792C23.5648 17.7792 23.9211 16.5247 23.9211 15.2466C23.9254 13.9203 23.4959 12.9886 22.9681 12.5178ZM15.9913 23.4815C15.4539 23.4895 14.9223 23.3688 14.4409 23.1295C15.0913 23.1319 15.7335 22.9845 16.3177 22.6987C16.9019 22.413 17.4125 21.9965 17.8099 21.4817C18.3046 21.4061 18.7714 21.2042 19.1654 20.8956C18.8831 22.5136 17.6157 23.4837 15.9913 23.4837V23.4815Z" fill="white"/>
</mask>
<g mask="url(#mask0_1044_3910)">
<path d="M20.7792 22.193C20.7792 22.6425 20.9748 23.0138 21.4242 23.0138C21.5951 23.0156 21.7608 22.955 21.8902 22.8435C22.0197 22.732 22.1041 22.5771 22.1276 22.4078C21.9519 22.6034 21.7763 22.7207 21.5807 22.7207C21.3673 22.7207 21.2251 22.5842 21.2251 22.3296C21.2251 20.7273 22.7499 18.9685 23.0031 17.6983H22.2691C22.2691 18.4856 20.7792 20.191 20.7792 22.193Z" fill="white"/>
<path style="mix-blend-mode:multiply" d="M20.7792 22.193C20.7792 22.6425 20.9748 23.0138 21.4242 23.0138C21.5951 23.0156 21.7608 22.955 21.8902 22.8435C22.0197 22.732 22.1041 22.5771 22.1276 22.4078C21.9519 22.6034 21.7763 22.7207 21.5807 22.7207C21.3673 22.7207 21.2251 22.5842 21.2251 22.3296C21.2251 20.7273 22.7499 18.9685 23.0031 17.6983H22.2691C22.2691 18.4856 20.7792 20.191 20.7792 22.193Z" fill="url(#paint0_linear_1044_3910)"/>
<path style="mix-blend-mode:multiply" d="M22.2691 17.6983C22.2691 18.4856 20.7792 20.1911 20.7792 22.1931C20.7792 22.6425 20.9748 23.0138 21.4242 23.0138C21.5349 23.015 21.6442 22.9899 21.7431 22.9404C21.8421 22.8909 21.9278 22.8186 21.9932 22.7293C21.9932 22.7293 21.8751 22.9156 21.5174 22.9156C21.0907 22.9156 20.979 22.5543 20.979 22.2564C20.979 22.075 21.0039 21.585 21.2735 20.7757C21.543 19.9663 22.6183 18.3697 22.6183 17.6955L22.2691 17.6983Z" fill="url(#paint1_radial_1044_3910)"/>
<path d="M15.9526 19.558C15.9245 19.7779 15.9582 20.0013 16.05 20.2031C16.1436 20.3937 16.288 20.5548 16.4673 20.6687C16.6467 20.7825 16.8539 20.8446 17.0663 20.8481C17.301 20.8481 18.062 20.5942 18.3756 20.3595L18.0044 18.6982C18.0044 19.617 17.4966 19.9883 16.9689 20.0075C16.5585 20.0039 16.1474 19.8091 15.9526 19.558Z" fill="white"/>
<path style="mix-blend-mode:multiply" d="M15.9526 19.558C15.9245 19.7779 15.9582 20.0013 16.05 20.2031C16.1436 20.3937 16.288 20.5548 16.4673 20.6687C16.6467 20.7825 16.8539 20.8446 17.0663 20.8481C17.301 20.8481 18.062 20.5942 18.3756 20.3595L18.0044 18.6982C18.0044 19.617 17.4966 19.9883 16.9689 20.0075C16.5585 20.0039 16.1474 19.8091 15.9526 19.558Z" fill="url(#paint2_linear_1044_3910)"/>
<path style="mix-blend-mode:multiply" d="M17.0663 20.8448C16.8538 20.8411 16.6464 20.7788 16.4671 20.6647C16.2877 20.5507 16.1434 20.3893 16.05 20.1983C15.9582 19.9965 15.9245 19.7732 15.9526 19.5533C15.9526 19.5533 16.0336 20.3456 17.0663 20.4921V20.8448Z" fill="url(#paint3_linear_1044_3910)"/>
<path d="M14.3885 23.1314C17.1052 23.1314 18.7076 20.9032 18.8057 18.8123H18.2581C18.1607 20.7084 16.7532 22.6627 14.2711 22.6627C13.294 22.6627 12.2193 22.1741 12.2193 21.1187C12.2193 20.532 12.4932 20.0242 13.1965 19.8286C12.3758 19.8286 11.809 20.4146 11.809 21.2162C11.809 22.5063 13.0571 23.1314 14.3885 23.1314Z" fill="white"/>
<path style="mix-blend-mode:multiply" d="M14.2712 22.6628C14.7372 22.666 15.2005 22.5907 15.6416 22.4402L15.8749 22.8854C15.4137 23.0455 14.9293 23.1287 14.4411 23.1315C14.1936 23.0053 13.9727 22.8327 13.7904 22.623C13.9493 22.6493 14.1101 22.6626 14.2712 22.6628ZM12.986 22.3506C12.5387 22.0988 12.2208 21.6928 12.2208 21.1188C12.2208 20.5321 12.4946 20.0243 13.198 19.8287C12.3772 19.8287 11.8104 20.4147 11.8104 21.2163C11.8104 22.1671 12.4896 22.7567 13.3793 23.0014C13.2091 22.8106 13.0758 22.59 12.986 22.3506Z" fill="url(#paint4_radial_1044_3910)"/>
<path style="mix-blend-mode:multiply" d="M17.2421 21.5287C17.1902 21.5287 17.1376 21.5287 17.0864 21.5245C16.5439 22.0792 15.8427 22.452 15.0794 22.5913L15.2579 23.0535C16.2717 22.8625 17.1801 22.3057 17.8104 21.4889C17.6223 21.5176 17.4323 21.5309 17.2421 21.5287Z" fill="url(#paint5_linear_1044_3910)"/>
<path style="mix-blend-mode:multiply" d="M13.1994 19.8286C12.3786 19.8286 11.8118 20.4146 11.8118 21.2162C11.8118 22.5063 13.0628 23.1314 14.3913 23.1314C17.1081 23.1314 18.7104 20.9032 18.8085 18.8123H18.4914C18.4914 20.5292 17.1956 22.8661 14.2889 22.8661C12.7015 22.8661 12.0344 22.0255 12.0344 21.1152C12.0344 20.2048 12.8303 19.8286 13.1994 19.8286Z" fill="url(#paint6_radial_1044_3910)"/>
<path d="M15.9914 23.9911C18.6882 23.9911 20.4278 21.8803 19.6455 18.6949L19.0203 18.7731C19.8026 21.6264 18.238 23.4833 15.9914 23.4833C14.6038 23.4833 13.372 22.7601 13.372 21.47C13.372 20.6492 13.8606 20.0433 14.6429 19.8484C14.4061 19.8484 14.1717 19.8956 13.9534 19.9874C13.7351 20.0792 13.5373 20.2137 13.3717 20.383C13.2061 20.5522 13.0759 20.7529 12.9889 20.9731C12.9019 21.1934 12.8598 21.4288 12.865 21.6655C12.8643 22.9948 14.1344 23.9911 15.9914 23.9911Z" fill="white"/>
<path style="mix-blend-mode:multiply" d="M19.1656 20.8974C18.9935 21.8796 18.458 22.6228 17.6998 23.0552L17.8812 23.5772C19.0902 22.9798 19.8427 21.7658 19.8341 20.1358C19.6585 20.4275 19.4321 20.6855 19.1656 20.8974Z" fill="url(#paint7_linear_1044_3910)"/>
<path style="mix-blend-mode:multiply" d="M14.6429 19.8484C14.4061 19.8484 14.1717 19.8956 13.9534 19.9874C13.7351 20.0792 13.5373 20.2137 13.3717 20.383C13.2061 20.5522 13.0759 20.7529 12.9889 20.9731C12.9019 21.1934 12.8598 21.4288 12.865 21.6655C12.865 22.9948 14.1352 23.9911 15.9942 23.9911C18.6911 23.9911 20.4306 21.8803 19.6483 18.6949L19.3781 18.7447C19.3781 18.7447 19.526 19.2894 19.526 20.3562C19.526 21.8568 18.4983 23.7038 16.0234 23.7038C14.3428 23.7038 13.158 22.8902 13.158 21.5902C13.158 20.2901 14.2141 19.8484 14.6429 19.8484Z" fill="url(#paint8_radial_1044_3910)"/>
<path d="M11.2231 22.193C11.2231 22.6425 11.0275 23.0138 10.578 23.0138C10.4071 23.0157 10.2414 22.9552 10.1119 22.8437C9.98238 22.7321 9.89804 22.5771 9.87467 22.4078C10.0503 22.6034 10.226 22.7207 10.4216 22.7207C10.6349 22.7207 10.7736 22.5842 10.7736 22.3296C10.7736 20.7273 9.24882 18.9685 8.99564 17.6983H9.73385C9.73314 18.4856 11.2231 20.191 11.2231 22.193Z" fill="white"/>
<path style="mix-blend-mode:multiply" d="M11.2231 22.193C11.2231 22.6425 11.0275 23.0138 10.578 23.0138C10.4071 23.0157 10.2414 22.9552 10.1119 22.8437C9.98238 22.7321 9.89804 22.5771 9.87467 22.4078C10.0503 22.6034 10.226 22.7207 10.4216 22.7207C10.6349 22.7207 10.7736 22.5842 10.7736 22.3296C10.7736 20.7273 9.24882 18.9685 8.99564 17.6983H9.73385C9.73314 18.4856 11.2231 20.191 11.2231 22.193Z" fill="url(#paint9_linear_1044_3910)"/>
<path style="mix-blend-mode:multiply" d="M9.73298 17.6983C9.73298 18.4856 11.2265 20.1911 11.2265 22.1931C11.2265 22.6425 11.0309 23.0138 10.5814 23.0138C10.4708 23.015 10.3615 22.9899 10.2625 22.9404C10.1636 22.8909 10.0779 22.8186 10.0125 22.7293C10.0125 22.7293 10.1305 22.9156 10.4883 22.9156C10.915 22.9156 11.0266 22.5543 11.0266 22.2564C11.0266 22.075 11.0017 21.585 10.7322 20.7757C10.4627 19.9663 9.38663 18.3697 9.38663 17.6955L9.73298 17.6983Z" fill="url(#paint10_radial_1044_3910)"/>
<path d="M8.99478 17.6987C8.99478 17.6987 9.24583 18.6559 10.026 18.6559C10.7372 18.6559 10.9292 17.518 10.9292 16.2912C13.0792 16.2912 14.7206 14.4542 14.7988 12.832L13.998 10.33C13.7434 10.7994 13.6638 11.0469 13.2157 11.0469C12.8829 11.0469 12.789 10.8015 12.789 10.4068C12.789 9.89831 12.6524 9.66433 12.0856 9.66433C10.7109 9.66433 8.89522 11.5092 8.89522 12.2538C8.898 12.3055 8.91219 12.356 8.93678 12.4016C8.96137 12.4473 8.99575 12.4869 9.03745 12.5176C8.50548 12.9884 8.07877 13.9201 8.07877 15.2408C8.07877 16.5209 8.43436 17.7734 8.82694 17.7734C8.89055 17.7716 8.95088 17.7447 8.99478 17.6987Z" fill="white"/>
<path style="mix-blend-mode:multiply" d="M8.99469 17.6985C9.15684 17.5435 9.47048 17.0144 9.55938 15.9462C9.90004 16.1545 10.3417 16.2911 10.9291 16.2911C10.9291 17.4553 10.7357 18.6558 10.0259 18.6558C9.24361 18.6558 8.99469 17.6985 8.99469 17.6985Z" fill="url(#paint11_linear_1044_3910)"/>
<path style="mix-blend-mode:multiply" d="M13.9982 10.3298C13.7436 10.7992 13.6639 11.0467 13.2159 11.0467C13.1469 11.0533 13.0775 11.0395 13.0162 11.0072C12.9549 10.9748 12.9044 10.9253 12.8709 10.8646C12.8334 10.7923 12.8093 10.7137 12.7998 10.6328C12.7903 10.5585 12.7858 10.4837 12.7863 10.4088V10.8895C12.7863 11.1441 12.8354 11.5837 13.2358 11.5837C13.6362 11.5837 14.1369 11.036 13.9982 10.3298Z" fill="url(#paint12_radial_1044_3910)"/>
<path style="mix-blend-mode:multiply" d="M9.55938 15.9463C9.61049 15.2307 9.58881 14.5118 9.49466 13.8006C10.3225 13.8006 10.9291 14.706 10.9291 16.2898C10.9291 17.454 10.7357 18.6545 10.0259 18.6545C9.24361 18.6545 8.99469 17.6973 8.99469 17.6973C9.15684 17.5437 9.47048 17.0145 9.55938 15.9463Z" fill="url(#paint13_radial_1044_3910)"/>
<path style="mix-blend-mode:multiply" d="M12.9642 12.0958C12.7427 12.9605 12.3018 13.7535 11.6841 14.3979C10.325 15.8203 8.07831 16.5187 8.07831 15.2407C8.07831 13.92 8.50858 12.9883 9.03628 12.5197C9.70481 13.095 11.4273 12.7266 12.5922 11.7089" fill="url(#paint14_radial_1044_3910)"/>
<path style="mix-blend-mode:multiply" d="M12.6302 10.8894V10.4086C12.6302 10.1718 12.599 10.0295 12.5285 9.94844C12.4905 9.90584 12.4412 9.87479 12.3863 9.85883C12.2885 9.83123 12.187 9.81875 12.0855 9.82185C11.7861 9.82185 11.4454 9.91644 11.0777 10.1063C10.7165 10.2944 10.3806 10.5274 10.0778 10.7997C9.79651 11.0453 9.54493 11.3229 9.32818 11.6269C9.1518 11.8822 9.05081 12.1119 9.05081 12.257C9.05081 12.2911 9.06148 12.3359 9.13829 12.4028C9.3168 12.5564 9.59843 12.6375 9.9526 12.6375C10.157 12.6349 10.3605 12.6111 10.56 12.5663C10.7853 12.5181 11.0062 12.4505 11.2199 12.3644C11.6825 12.1793 12.111 11.9185 12.488 11.5927H12.4916C12.5492 11.5486 12.6231 11.4505 12.658 11.2371C12.6356 11.1226 12.6262 11.006 12.6302 10.8894Z" fill="url(#paint15_linear_1044_3910)"/>
<path style="mix-blend-mode:multiply" d="M8.8241 17.6172C8.83627 17.6168 8.84822 17.6138 8.85913 17.6084C8.87005 17.603 8.87969 17.5953 8.88739 17.5859C9.00809 17.446 9.10037 17.2839 9.15907 17.1087C9.29553 16.7307 9.37812 16.3354 9.40443 15.9345C9.42505 15.61 9.42505 15.2846 9.40443 14.9601C9.38452 14.6152 9.34682 14.2539 9.29562 13.9161C9.20032 13.2867 9.09079 12.9325 9.01114 12.7611C8.7896 13.0109 8.61752 13.3005 8.50406 13.6146C8.31607 14.1354 8.22426 14.686 8.2331 15.2396C8.22987 15.8143 8.30426 16.3868 8.45428 16.9415C8.61358 17.4956 8.77929 17.6172 8.8241 17.6172Z" fill="url(#paint16_linear_1044_3910)"/>
<path style="mix-blend-mode:multiply" d="M10.3545 18.3494C10.3148 18.3972 10.2652 18.4358 10.2091 18.4625C10.1529 18.4891 10.0916 18.5032 10.0295 18.5037C9.76279 18.5037 9.53592 18.3686 9.35527 18.1012C9.28017 17.9887 9.21926 17.8673 9.17392 17.7399C9.29211 17.5828 9.38631 17.409 9.45342 17.2243C9.5752 16.8932 9.65616 16.5486 9.69451 16.198C9.82988 16.2617 9.97082 16.3129 10.1155 16.3509C10.3316 16.407 10.5532 16.4394 10.7762 16.4476C10.767 17.0294 10.7051 17.5144 10.5984 17.87C10.552 18.0453 10.4688 18.2087 10.3545 18.3494Z" fill="url(#paint17_linear_1044_3910)"/>
<path style="mix-blend-mode:multiply" d="M13.998 10.33C13.7434 10.7994 13.6637 11.0469 13.2157 11.0469C12.8828 11.0469 12.789 10.8015 12.789 10.4068C12.789 9.89831 12.6524 9.66433 12.0856 9.66433C10.7108 9.66433 8.89517 11.5092 8.89517 12.2538C8.89776 12.3056 8.91187 12.3561 8.93647 12.4018C8.96108 12.4474 8.99556 12.487 9.03741 12.5176L9.49826 13.7978C9.59241 14.509 9.61409 15.2279 9.56298 15.9435C9.90364 16.1518 10.3453 16.2884 10.9327 16.2884C13.0827 16.2884 14.7241 14.4514 14.8023 12.8291L13.998 10.33Z" fill="url(#paint18_linear_1044_3910)"/>
<path d="M15.4106 8.42399C15.1375 8.67788 14.8829 8.8827 14.5706 8.8827C14.1894 8.8827 13.7812 8.72766 13.7001 8.41545C13.7235 8.42095 13.7473 8.42405 13.7713 8.4247C13.7989 8.42458 13.8262 8.41864 13.8514 8.40725C13.8765 8.39586 13.899 8.37929 13.9173 8.35861C13.9357 8.33793 13.9494 8.31362 13.9577 8.28726C13.966 8.2609 13.9686 8.23309 13.9654 8.20565C13.9654 8.07692 13.8658 8.0058 13.725 8.00509C13.5842 8.00438 13.4569 8.10822 13.4569 8.30735C13.4569 8.70491 13.8438 9.19563 14.5322 9.19563C14.9227 9.19563 15.4504 9.02992 15.5485 8.91115L15.4106 8.42399Z" fill="white"/>
<path style="mix-blend-mode:multiply" d="M15.0121 8.74378C14.8814 8.83233 14.7282 8.88168 14.5704 8.88602C14.1892 8.88602 13.781 8.73098 13.6999 8.41877C13.66 8.40825 13.6227 8.38961 13.5904 8.36401C13.5904 8.36401 13.6551 9.03253 14.6216 9.03253C14.6216 9.03253 15.133 9.04604 15.3101 9.04533L15.3655 9.02257C15.3542 8.96212 15.3122 8.78361 15.3122 8.78361L15.0121 8.74378Z" fill="url(#paint19_linear_1044_3910)"/>
<path d="M15.6346 8.237C15.4611 8.32163 15.2619 8.47027 14.9455 8.47027C14.7726 8.47027 14.6539 8.466 14.5657 8.41977C14.6163 8.41214 14.6624 8.3862 14.6951 8.34688C14.7279 8.30756 14.7451 8.25758 14.7435 8.20642C14.7389 8.14938 14.7123 8.09636 14.6693 8.05864C14.6262 8.02092 14.5702 8.00148 14.5131 8.00444C14.4809 8.00329 14.4489 8.00864 14.4189 8.02019C14.3889 8.03174 14.3616 8.04923 14.3385 8.07162C14.3155 8.09401 14.2972 8.12084 14.2848 8.15048C14.2724 8.18012 14.2661 8.21197 14.2663 8.24411C14.2663 8.56841 14.6169 8.72843 14.986 8.72843C15.7285 8.72843 16.0805 8.41551 16.0805 8.15948C16.0229 8.16161 15.9895 8.06489 15.6346 8.237Z" fill="white"/>
<path style="mix-blend-mode:multiply" d="M15.2095 8.56875C15.7848 8.46136 15.9406 8.42651 15.9406 8.42651L15.7208 8.20035C15.6945 8.21173 15.666 8.22453 15.6348 8.23946C15.4612 8.3241 15.2621 8.47273 14.9456 8.47273C14.7728 8.47273 14.654 8.46847 14.5658 8.42224C14.5396 8.42643 14.5128 8.42531 14.4871 8.41896C14.4613 8.41261 14.437 8.40115 14.4158 8.38526C14.4158 8.38526 14.6334 8.67685 15.2095 8.56875Z" fill="url(#paint20_linear_1044_3910)"/>
<path d="M12.1592 17.6894C12.327 17.8024 12.6094 17.843 12.8519 17.843C13.1135 17.8361 13.3718 17.7821 13.6143 17.6837C13.6291 17.7149 13.6357 17.7494 13.6335 17.784C13.6317 17.8262 13.6179 17.867 13.5937 17.9016C13.5695 17.9363 13.536 17.9633 13.4969 17.9795C13.5474 17.9958 13.6005 18.0026 13.6534 17.9994C13.6961 18.0022 13.7389 17.9961 13.7792 17.9816C13.8194 17.9671 13.8563 17.9444 13.8874 17.9151C13.9186 17.8858 13.9434 17.8503 13.9602 17.811C13.9771 17.7717 13.9857 17.7293 13.9855 17.6865C13.9886 17.6322 13.9708 17.5788 13.9358 17.5372C14.5545 17.2136 15.0801 16.6837 15.0801 16.2008H14.2394C14.1086 16.8132 13.7999 17.156 13.386 17.3387C13.2438 17.22 12.9187 17.0607 12.4614 17.0607C12.0312 17.0607 11.6208 17.2164 11.6208 17.6296C11.6208 17.9034 11.8029 18.0798 12.0568 18.0798C12.1741 18.0798 12.2068 18.0407 12.2068 18.0407C12.1718 18.0213 12.1425 17.993 12.1219 17.9587C12.1013 17.9243 12.0901 17.8852 12.0895 17.8451C12.0887 17.8156 12.0945 17.7863 12.1066 17.7593C12.1187 17.7323 12.1366 17.7084 12.1592 17.6894Z" fill="white"/>
<path style="mix-blend-mode:multiply" d="M13.6139 17.6835C13.6286 17.7147 13.6353 17.7492 13.6331 17.7838C13.6313 17.826 13.6175 17.8668 13.5933 17.9014C13.5691 17.9361 13.5355 17.9631 13.4965 17.9793C13.547 17.9956 13.6 18.0024 13.653 17.9992C13.6957 18.002 13.7385 17.9959 13.7787 17.9814C13.819 17.9669 13.8558 17.9442 13.887 17.9149C13.9181 17.8856 13.9429 17.8501 13.9598 17.8108C13.9766 17.7715 13.9852 17.7291 13.9851 17.6863C13.9881 17.632 13.9703 17.5786 13.9353 17.537C13.831 17.5919 13.7237 17.6408 13.6139 17.6835Z" fill="url(#paint21_linear_1044_3910)"/>
<path style="mix-blend-mode:multiply" d="M12.8519 17.843C13.7707 17.843 15.0801 16.9632 15.0801 16.2008H14.2394C14.0054 17.2954 13.2039 17.5301 12.2267 17.5301L12.0703 17.6083C12.204 17.784 12.5596 17.843 12.8519 17.843Z" fill="url(#paint22_linear_1044_3910)"/>
<g style="mix-blend-mode:multiply">
<path d="M13.6139 17.6833C13.6286 17.7146 13.6353 17.7491 13.6331 17.7836C13.6313 17.8258 13.6175 17.8666 13.5933 17.9013C13.5691 17.9359 13.5355 17.9629 13.4965 17.9792C13.6053 17.9792 13.798 17.9351 13.798 17.7096C13.7972 17.6767 13.7912 17.644 13.7803 17.6129C13.7248 17.6378 13.6693 17.6613 13.6139 17.6833Z" fill="#808184"/>
</g>
<g style="mix-blend-mode:multiply">
<path d="M12.0315 17.5379C11.9857 17.5547 11.9458 17.5847 11.917 17.624C11.8881 17.6634 11.8716 17.7104 11.8694 17.7591C11.8694 17.9483 12.0464 18.0379 12.2064 18.0386C12.1714 18.0192 12.1421 17.9909 12.1215 17.9566C12.1009 17.9222 12.0897 17.8831 12.0891 17.843C12.0884 17.8133 12.0944 17.7837 12.1068 17.7567C12.1191 17.7296 12.1373 17.7056 12.1602 17.6866C12.1085 17.6454 12.0648 17.595 12.0315 17.5379Z" fill="#808184"/>
</g>
<path style="mix-blend-mode:multiply" d="M15.0798 16.2008H14.7996L14.7626 16.2079C14.4568 17.0223 13.7947 17.6709 12.7599 17.6709C12.2066 17.6709 12.0316 17.5379 12.0316 17.5379C12.0654 17.5951 12.1095 17.6455 12.1618 17.6865C12.3296 17.7996 12.6119 17.8401 12.8545 17.8401C13.1161 17.8332 13.3744 17.7793 13.6169 17.6808C13.6317 17.7121 13.6383 17.7466 13.6361 17.7811C13.6343 17.8233 13.6205 17.8642 13.5963 17.8988C13.5721 17.9335 13.5385 17.9605 13.4995 17.9767C13.55 17.993 13.603 17.9997 13.656 17.9966C13.6987 17.9993 13.7415 17.9933 13.7818 17.9787C13.822 17.9642 13.8589 17.9416 13.89 17.9123C13.9211 17.8829 13.9459 17.8475 13.9628 17.8082C13.9797 17.7688 13.9883 17.7265 13.9881 17.6837C13.9912 17.6294 13.9734 17.5759 13.9383 17.5343C14.5542 17.2114 15.0798 16.6837 15.0798 16.2008Z" fill="url(#paint23_linear_1044_3910)"/>
<path d="M16.4825 17.0856H15.76C15.6177 17.8139 15.3162 18.3117 14.856 18.5692C14.7081 18.4511 14.3881 18.2975 13.9422 18.2975C13.5154 18.2975 13.1022 18.454 13.1022 18.8665C13.1022 19.1403 13.2843 19.3159 13.5382 19.3159C13.6555 19.3159 13.6883 19.2768 13.6883 19.2768C13.6532 19.2574 13.6239 19.2291 13.6033 19.1948C13.5827 19.1605 13.5715 19.1213 13.5709 19.0812C13.5701 19.0516 13.5761 19.0221 13.5884 18.9951C13.6008 18.9681 13.6191 18.9443 13.642 18.9255C13.8049 19.0464 14.0801 19.1012 14.3418 19.1012C14.6039 19.101 14.8632 19.048 15.1042 18.9454C15.1112 18.9706 15.1143 18.9968 15.1135 19.0229C15.1116 19.065 15.0977 19.1057 15.0735 19.1402C15.0494 19.1747 15.0159 19.2016 14.9769 19.2178C15.0274 19.2341 15.0805 19.2409 15.1334 19.2377C15.1761 19.2404 15.2189 19.2344 15.2592 19.2199C15.2994 19.2053 15.3363 19.1827 15.3674 19.1534C15.3986 19.124 15.4233 19.0886 15.4402 19.0493C15.4571 19.0099 15.4657 18.9676 15.4655 18.9248C15.4672 18.8734 15.4509 18.8231 15.4193 18.7825C16.0793 18.3594 16.4825 17.6183 16.4825 17.0856Z" fill="white"/>
<path style="mix-blend-mode:multiply" d="M15.1048 18.9431C15.1117 18.9683 15.1148 18.9945 15.114 19.0206C15.1121 19.0627 15.0983 19.1034 15.0741 19.1379C15.0499 19.1724 15.0164 19.1993 14.9775 19.2155C15.028 19.2318 15.081 19.2385 15.134 19.2354C15.1767 19.2381 15.2195 19.232 15.2597 19.2175C15.3 19.203 15.3368 19.1804 15.3679 19.151C15.3991 19.1217 15.4239 19.0863 15.4407 19.047C15.4576 19.0076 15.4662 18.9653 15.466 18.9225C15.4677 18.8711 15.4514 18.8208 15.4198 18.7803C15.3194 18.843 15.2141 18.8975 15.1048 18.9431Z" fill="url(#paint24_linear_1044_3910)"/>
<path style="mix-blend-mode:multiply" d="M14.3425 19.099C15.6127 19.099 16.4825 17.8672 16.4825 17.0856H15.7599C15.5465 18.1994 14.9491 18.7747 13.9912 18.7747L13.5645 18.8458C13.6974 19.0208 14.0296 19.099 14.3425 19.099Z" fill="url(#paint25_linear_1044_3910)"/>
<g style="mix-blend-mode:multiply">
<path d="M15.1048 18.9429C15.1117 18.9681 15.1148 18.9943 15.114 19.0204C15.1121 19.0625 15.0983 19.1032 15.0741 19.1377C15.0499 19.1722 15.0164 19.1991 14.9775 19.2153C15.0863 19.2153 15.279 19.1712 15.279 18.9457C15.2784 18.9187 15.2741 18.8919 15.2662 18.8661C15.2136 18.8938 15.1596 18.918 15.1048 18.9429Z" fill="#808184"/>
</g>
<g style="mix-blend-mode:multiply">
<path d="M13.5124 18.776C13.4667 18.7929 13.427 18.8229 13.3982 18.8623C13.3694 18.9016 13.3527 18.9485 13.3503 18.9972C13.3503 19.1863 13.5274 19.2759 13.6874 19.2766C13.6523 19.2572 13.623 19.229 13.6024 19.1946C13.5818 19.1603 13.5707 19.1211 13.57 19.0811C13.5693 19.0514 13.5753 19.022 13.5876 18.995C13.5999 18.968 13.6182 18.9442 13.6412 18.9254C13.5895 18.8838 13.5459 18.8332 13.5124 18.776Z" fill="#808184"/>
</g>
<path style="mix-blend-mode:multiply" d="M16.4823 17.0856H16.1978C16.1978 18.028 15.2782 18.9468 14.2534 18.9468C13.7406 18.9468 13.5116 18.774 13.5116 18.774C13.5455 18.8314 13.5896 18.882 13.6418 18.9234C13.8046 19.0443 14.0799 19.099 14.3416 19.099C14.6036 19.0989 14.8629 19.0459 15.104 18.9433C15.1109 18.9685 15.114 18.9946 15.1132 19.0208C15.1113 19.0629 15.0975 19.1036 15.0733 19.1381C15.0491 19.1726 15.0156 19.1995 14.9767 19.2157C15.0271 19.232 15.0802 19.2387 15.1331 19.2356C15.1759 19.2383 15.2187 19.2322 15.2589 19.2177C15.2992 19.2032 15.336 19.1806 15.3672 19.1512C15.3983 19.1219 15.4231 19.0865 15.44 19.0471C15.4568 19.0078 15.4655 18.9654 15.4653 18.9227C15.467 18.8713 15.4506 18.821 15.419 18.7804C16.079 18.3594 16.4823 17.6183 16.4823 17.0856Z" fill="url(#paint26_linear_1044_3910)"/>
<path d="M21.9761 18.6559C22.7584 18.6559 23.0073 17.6987 23.0073 17.6987C23.0293 17.7217 23.0557 17.7402 23.0848 17.753C23.114 17.7658 23.1454 17.7727 23.1773 17.7733C23.5692 17.7733 23.9255 16.5188 23.9255 15.2408C23.9255 13.9201 23.4988 12.9884 22.9682 12.5198C23.0001 12.4913 23.0254 12.4561 23.0422 12.4168C23.059 12.3775 23.067 12.3349 23.0656 12.2922C23.0656 11.5909 20.6326 9.80299 19.2352 9.80299C18.0716 9.80299 18.5887 11.7381 17.3669 11.7381C16.7801 11.7381 16.4238 11.4188 16.4238 10.7048L15.3855 12.1876C15.4637 13.8091 18.3725 16.2912 21.075 16.2912C21.0722 17.4554 21.2663 18.6559 21.9761 18.6559Z" fill="white"/>
<path d="M18.5688 15.3387C17.8662 14.8942 16.4239 13.9974 16.4239 10.7046C16.4239 9.8241 17.0191 9.21674 17.7424 9.21674C18.3114 9.21674 18.5902 9.37249 18.5902 9.54886C18.7075 9.45072 18.8249 9.35613 18.8249 9.15771C18.8249 8.8647 18.4735 8.58875 17.7694 8.58875C17.5739 8.23743 17.0469 8.00273 16.5192 8.00273C15.3165 8.00273 13.0791 9.61074 13.0791 13.1034C13.0791 16.0257 15.0861 17.4858 17.3463 17.4858C17.7894 17.7816 18.0034 18.118 18.0034 18.6948C18.0034 19.731 17.4956 20.4344 16.6522 20.4344C15.7724 20.4344 15.3009 20.1215 15.1082 19.8484C15.1082 20.8839 16.0853 21.5289 17.2417 21.5289C19.0987 21.5289 20.3205 20.1634 20.3205 18.2674C20.3205 16.6259 19.6804 16.0421 18.5688 15.3387Z" fill="white"/>
<path style="mix-blend-mode:multiply" d="M23.0075 17.6985C22.8453 17.5435 22.5317 17.0144 22.4385 15.9462C22.0986 16.1545 21.6562 16.2911 21.0688 16.2911C21.0688 17.4553 21.2629 18.6558 21.9727 18.6558C22.755 18.6558 23.0039 17.6985 23.0039 17.6985H23.0075Z" fill="url(#paint27_linear_1044_3910)"/>
<path style="mix-blend-mode:multiply" d="M21.6514 18.3494C21.6908 18.3974 21.7404 18.4362 21.7966 18.4629C21.8528 18.4895 21.9142 18.5035 21.9764 18.5037C22.2424 18.5037 22.4692 18.3686 22.6506 18.1012C22.7257 17.9887 22.7866 17.8673 22.8319 17.7399C22.7135 17.583 22.6193 17.4092 22.5524 17.2243C22.4303 16.8934 22.3493 16.5487 22.3113 16.198C22.1759 16.2615 22.035 16.3127 21.8903 16.3509C21.6742 16.4069 21.4527 16.4393 21.2296 16.4476C21.2381 17.0294 21.3007 17.5144 21.4074 17.87C21.4539 18.0453 21.537 18.2087 21.6514 18.3494Z" fill="url(#paint28_linear_1044_3910)"/>
<path style="mix-blend-mode:multiply" d="M16.656 20.4343C17.4966 20.4343 18.0073 19.7309 18.0073 18.6947C18.0073 18.1201 17.7939 17.7837 17.3501 17.4857C18.094 17.4857 18.7426 17.0639 18.7426 17.0639C18.7426 17.0639 19.2881 17.4316 19.2881 18.5162C19.2881 19.8362 18.4261 20.6782 17.4163 20.6782C16.582 20.6782 16.1759 20.3938 16.1759 20.3938L16.656 20.4343Z" fill="url(#paint29_linear_1044_3910)"/>
<path style="mix-blend-mode:multiply" d="M20.3206 14.3979C21.6797 15.8203 23.9257 16.5187 23.9257 15.2407C23.9257 13.92 23.499 12.9883 22.9684 12.5196C22.1939 13.1867 20.0042 12.5858 18.9011 11.1769C18.9011 11.1769 18.889 12.8973 20.3206 14.3979Z" fill="url(#paint30_radial_1044_3910)"/>
<path style="mix-blend-mode:multiply" d="M14.3446 16.1544C14.6834 16.5006 15.0866 16.7773 15.5316 16.9687C15.8436 17.1043 16.1707 17.2019 16.5059 17.2596L16.459 17.2134C16.1436 16.8931 15.8488 16.5532 15.5764 16.1956C15.2151 15.7254 14.9035 15.219 14.6469 14.6844C14.3618 14.098 14.1811 13.4665 14.1128 12.8182C13.9862 11.4605 14.1839 10.3404 14.7023 9.4891C15.0258 8.94851 15.4978 8.5123 16.0621 8.23242C15.8839 8.28511 15.7118 8.35663 15.5487 8.44578C15.1359 8.67645 14.7692 8.98118 14.4669 9.34473C14.0855 9.80161 13.7899 10.3237 13.5943 10.8859C13.3488 11.5994 13.2274 12.3496 13.2352 13.1041C13.2276 13.7066 13.3298 14.3055 13.5367 14.8714C13.7148 15.3502 13.9898 15.787 14.3446 16.1544Z" fill="url(#paint31_linear_1044_3910)"/>
<path style="mix-blend-mode:multiply" d="M21.5864 10.9131C21.2018 10.6481 20.7921 10.4215 20.3632 10.2367C19.9315 10.0554 19.5425 9.95934 19.2381 9.95863C18.9835 9.96717 18.8164 10.0511 18.7552 10.2147C18.4956 10.9052 19.3953 11.4948 20.4571 12.228C20.9549 12.5723 21.6369 12.6299 22.0928 12.6299C22.4221 12.6299 22.6881 12.5524 22.8616 12.4058C22.878 12.392 22.8909 12.3745 22.8993 12.3547C22.9077 12.3349 22.9114 12.3135 22.91 12.2921C22.91 12.1697 22.7756 11.9535 22.5501 11.7139C22.2577 11.4141 21.9347 11.1457 21.5864 10.9131Z" fill="url(#paint32_linear_1044_3910)"/>
<path style="mix-blend-mode:multiply" d="M23.1559 17.5667C23.146 17.5667 23.126 17.5667 23.0926 17.5347C22.9719 17.3948 22.8797 17.2327 22.8209 17.0575C22.6844 16.6796 22.6018 16.2843 22.5756 15.8833C22.555 15.5591 22.555 15.2339 22.5756 14.9097C22.5955 14.564 22.6332 14.2035 22.6844 13.8649C22.7797 13.2355 22.8892 12.8821 22.9689 12.7107C23.1905 12.9604 23.3626 13.25 23.476 13.5641C23.664 14.0847 23.7558 14.6351 23.7469 15.1885C23.7502 15.7631 23.6758 16.3356 23.5257 16.8904C23.3636 17.4444 23.1979 17.5667 23.1559 17.5667Z" fill="url(#paint33_linear_1044_3910)"/>
<path style="mix-blend-mode:multiply" d="M23.0075 17.6985C22.8453 17.5435 22.5317 17.0144 22.4385 15.9462C22.0986 16.1545 21.6562 16.2911 21.0688 16.2911C21.0688 17.4553 21.2629 18.6558 21.9727 18.6558C22.755 18.6558 23.0039 17.6985 23.0039 17.6985H23.0075Z" fill="url(#paint34_linear_1044_3910)"/>
<path style="mix-blend-mode:multiply" d="M22.4451 15.9463C22.3945 15.2307 22.4164 14.5118 22.5106 13.8006C21.682 13.8006 21.0754 14.706 21.0754 16.2898C21.0754 17.454 21.2695 18.6545 21.9793 18.6545C22.7616 18.6545 23.0105 17.6973 23.0105 17.6973C22.8455 17.5437 22.5319 17.0145 22.4451 15.9463Z" fill="url(#paint35_radial_1044_3910)"/>
<path style="mix-blend-mode:multiply" d="M22.445 15.946C22.3943 15.2304 22.4162 14.5116 22.5104 13.8004L22.9713 12.5202C23.0036 12.4921 23.0292 12.457 23.0461 12.4176C23.0629 12.3782 23.0707 12.3355 23.0687 12.2926C23.0687 11.5914 20.6357 9.80347 19.2382 9.80347C18.0747 9.80347 19.4224 12.3687 17.5783 12.3687C17.2347 12.3597 16.8927 12.3181 16.557 12.2443C16.7028 14.3857 18.1736 15.5684 19.4018 16.0022C19.9415 16.1876 20.5075 16.2853 21.0781 16.2917C21.6371 16.2917 22.093 16.1622 22.4486 15.9489L22.445 15.946Z" fill="url(#paint36_linear_1044_3910)"/>
<path style="mix-blend-mode:multiply" d="M11.782 17.917C11.825 17.9603 11.8788 17.9914 11.9377 18.0073C11.8991 17.9786 11.8679 17.9411 11.8466 17.898C11.8253 17.8548 11.8146 17.8072 11.8154 17.7591C11.8155 17.7092 11.8286 17.6602 11.8536 17.617C11.8786 17.5738 11.9144 17.538 11.9576 17.513L11.8481 17.2748C11.7917 17.3149 11.7462 17.3684 11.7155 17.4305C11.6849 17.4925 11.6701 17.5612 11.6725 17.6304C11.6696 17.7366 11.709 17.8397 11.782 17.917Z" fill="url(#paint37_linear_1044_3910)"/>
<path style="mix-blend-mode:multiply" d="M13.2627 19.1527C13.3056 19.1962 13.3594 19.2274 13.4185 19.243C13.3796 19.2145 13.3482 19.1771 13.3267 19.1339C13.3053 19.0907 13.2946 19.043 13.2954 18.9948C13.2955 18.9449 13.3086 18.8959 13.3336 18.8527C13.3586 18.8095 13.3945 18.7737 13.4377 18.7487L13.3281 18.5105C13.2718 18.5506 13.2262 18.6041 13.1955 18.6662C13.1649 18.7282 13.1501 18.7969 13.1525 18.8661C13.1509 18.9188 13.1599 18.9712 13.1788 19.0204C13.1977 19.0697 13.2262 19.1146 13.2627 19.1527Z" fill="url(#paint38_linear_1044_3910)"/>
<path style="mix-blend-mode:multiply" d="M15.1119 19.8485C15.1119 20.884 16.0891 21.5291 17.2455 21.5291C18.3229 21.5291 19.1863 21.0689 19.7219 20.3129L18.8393 19.9652C18.8393 19.9652 18.3201 20.9943 17.1111 20.9943C16.035 20.9943 15.3857 20.6806 15.1119 19.8485Z" fill="url(#paint39_linear_1044_3910)"/>
<path style="mix-blend-mode:multiply" d="M18.5688 15.3387C17.8662 14.8942 16.4239 13.9974 16.4239 10.7046C16.4239 9.8241 17.0191 9.21674 17.7424 9.21674C18.3114 9.21674 18.5902 9.37249 18.5902 9.54886C18.7075 9.45072 18.8249 9.35613 18.8249 9.15771C18.8249 8.8647 18.4735 8.58875 17.7694 8.58875C17.5739 8.23743 17.0469 8.00273 16.5192 8.00273C15.3165 8.00273 13.0791 9.61074 13.0791 13.1034C13.0791 16.0257 15.0861 17.4858 17.3463 17.4858C18.0902 17.4858 18.7388 17.064 18.7388 17.064L18.6528 16.1921L18.5688 15.3387Z" fill="url(#paint40_linear_1044_3910)"/>
<path style="mix-blend-mode:multiply" d="M17.3672 11.7352C16.7805 11.7352 16.4242 11.4158 16.4242 10.7018C16.4242 9.82135 17.0195 9.21399 17.7427 9.21399C18.3117 9.21399 18.5905 9.36974 18.5905 9.54612C18.5905 9.19052 18.2349 8.92809 17.6439 8.92809C16.506 8.92809 15.8986 9.66133 15.8986 10.7246C15.8986 11.3718 16.3495 11.8724 17.06 11.8724C17.3231 11.8724 17.7036 11.7956 17.9511 11.5019C17.8758 11.5798 17.7848 11.6408 17.6841 11.681C17.5835 11.7212 17.4755 11.7397 17.3672 11.7352Z" fill="url(#paint41_radial_1044_3910)"/>
<path style="mix-blend-mode:multiply" d="M16.8727 8.23543C17.1863 8.23543 17.4182 8.3862 17.4182 8.53484C17.3762 8.61805 17.2546 8.70268 17.0263 8.70268C16.7319 8.70268 16.4936 8.46514 16.3094 8.3357C16.489 8.26655 16.6802 8.23251 16.8727 8.23543Z" fill="url(#paint42_linear_1044_3910)"/>
<path d="M17.2176 8.61817C17.2552 8.62056 17.2928 8.61431 17.3275 8.59988C17.3623 8.58546 17.3933 8.56325 17.4181 8.53497C17.405 8.49394 17.3771 8.45923 17.3399 8.43755C17.3412 8.45346 17.3392 8.46947 17.3339 8.48454C17.3286 8.49962 17.3203 8.51342 17.3094 8.52508C17.2984 8.53673 17.2852 8.54597 17.2705 8.5522C17.2558 8.55844 17.24 8.56153 17.224 8.56128C17.2066 8.5631 17.1891 8.56099 17.1726 8.55511C17.1561 8.54923 17.1412 8.53972 17.1289 8.5273C17.1166 8.51487 17.1073 8.49985 17.1016 8.48333C17.0959 8.46681 17.094 8.44922 17.096 8.43186C17.0977 8.4092 17.1053 8.38738 17.1181 8.36857C17.0663 8.35746 17.0127 8.35746 16.9609 8.36857C16.9597 8.40227 16.9656 8.43584 16.9782 8.46712C16.9908 8.4984 17.0098 8.5267 17.034 8.55021C17.0582 8.57371 17.087 8.5919 17.1186 8.60361C17.1502 8.61531 17.184 8.62027 17.2176 8.61817Z" fill="white"/>
</g>
<defs>
<linearGradient id="paint0_linear_1044_3910" x1="21.8929" y1="23.3957" x2="21.8929" y2="18.1179" gradientUnits="userSpaceOnUse">
<stop offset="0.53" stop-color="white" stop-opacity="0"/>
<stop offset="0.76" stop-color="#C1C2C3" stop-opacity="0.49"/>
<stop offset="1" stop-color="#808184"/>
</linearGradient>
<radialGradient id="paint1_radial_1044_3910" cx="0" cy="0" r="1" gradientUnits="userSpaceOnUse" gradientTransform="translate(21.6995 20.3561) scale(2.67124 2.67124)">
<stop stop-color="white" stop-opacity="0"/>
<stop offset="0.14" stop-color="#F8F8F8" stop-opacity="0.06"/>
<stop offset="0.34" stop-color="#E4E4E5" stop-opacity="0.21"/>
<stop offset="0.59" stop-color="#C4C4C6" stop-opacity="0.47"/>
<stop offset="0.87" stop-color="#97989A" stop-opacity="0.82"/>
<stop offset="1" stop-color="#808184"/>
</radialGradient>
<linearGradient id="paint2_linear_1044_3910" x1="16.5215" y1="18.9855" x2="18.1338" y2="20.5978" gradientUnits="userSpaceOnUse">
<stop offset="0.06" stop-color="white" stop-opacity="0"/>
<stop offset="0.31" stop-color="#CDCECF" stop-opacity="0.39"/>
<stop offset="0.55" stop-color="#A3A4A6" stop-opacity="0.72"/>
<stop offset="0.74" stop-color="#8A8A8D" stop-opacity="0.92"/>
<stop offset="0.86" stop-color="#808184"/>
</linearGradient>
<linearGradient id="paint3_linear_1044_3910" x1="15.8374" y1="19.6699" x2="17.3472" y2="21.1805" gradientUnits="userSpaceOnUse">
<stop offset="0.14" stop-color="#808184"/>
<stop offset="0.26" stop-color="#8A8A8D" stop-opacity="0.92"/>
<stop offset="0.45" stop-color="#A3A4A6" stop-opacity="0.72"/>
<stop offset="0.69" stop-color="#CDCECF" stop-opacity="0.39"/>
<stop offset="0.94" stop-color="white" stop-opacity="0"/>
</linearGradient>
<radialGradient id="paint4_radial_1044_3910" cx="0" cy="0" r="1" gradientUnits="userSpaceOnUse" gradientTransform="translate(13.5849 22.7624) scale(4.0858)">
<stop stop-color="#6D6E70"/>
<stop offset="0.19" stop-color="#ABACAD" stop-opacity="0.57"/>
<stop offset="0.47" stop-color="white" stop-opacity="0"/>
</radialGradient>
<linearGradient id="paint5_linear_1044_3910" x1="15.8901" y1="23.5592" x2="16.9064" y2="20.7678" gradientUnits="userSpaceOnUse">
<stop offset="0.57" stop-color="white" stop-opacity="0"/>
<stop offset="0.58" stop-color="#FCFCFC" stop-opacity="0.02"/>
<stop offset="0.61" stop-color="#DBDBDC" stop-opacity="0.28"/>
<stop offset="0.64" stop-color="#BFBFC1" stop-opacity="0.5"/>
<stop offset="0.69" stop-color="#A8A8AB" stop-opacity="0.69"/>
<stop offset="0.73" stop-color="#969799" stop-opacity="0.83"/>
<stop offset="0.79" stop-color="#898A8D" stop-opacity="0.93"/>
<stop offset="0.86" stop-color="#828386" stop-opacity="0.98"/>
<stop offset="1" stop-color="#808184"/>
</linearGradient>
<radialGradient id="paint6_radial_1044_3910" cx="0" cy="0" r="1" gradientUnits="userSpaceOnUse" gradientTransform="translate(13.5948 22.4351) scale(4.86243)">
<stop stop-color="#808184"/>
<stop offset="0.1" stop-color="#96979A" stop-opacity="0.82"/>
<stop offset="0.29" stop-color="#BCBCBE" stop-opacity="0.53"/>
<stop offset="0.48" stop-color="#D9D9DA" stop-opacity="0.3"/>
<stop offset="0.66" stop-color="#EEEEEF" stop-opacity="0.13"/>
<stop offset="0.84" stop-color="#FBFBFB" stop-opacity="0.03"/>
<stop offset="1" stop-color="white" stop-opacity="0"/>
</radialGradient>
<linearGradient id="paint7_linear_1044_3910" x1="19.2972" y1="24.6049" x2="18.5319" y2="20.2623" gradientUnits="userSpaceOnUse">
<stop offset="0.58" stop-color="white" stop-opacity="0"/>
<stop offset="0.64" stop-color="#DBDCDC" stop-opacity="0.28"/>
<stop offset="0.71" stop-color="#BBBBBD" stop-opacity="0.54"/>
<stop offset="0.78" stop-color="#A1A2A4" stop-opacity="0.74"/>
<stop offset="0.85" stop-color="#8F8F92" stop-opacity="0.89"/>
<stop offset="0.92" stop-color="#848587" stop-opacity="0.97"/>
<stop offset="1" stop-color="#808184"/>
</linearGradient>
<radialGradient id="paint8_radial_1044_3910" cx="0" cy="0" r="1" gradientUnits="userSpaceOnUse" gradientTransform="translate(14.5747 23.1021) scale(7.29115 7.29115)">
<stop stop-color="#808184"/>
<stop offset="0.1" stop-color="#96979A" stop-opacity="0.82"/>
<stop offset="0.29" stop-color="#BCBCBE" stop-opacity="0.53"/>
<stop offset="0.48" stop-color="#D9D9DA" stop-opacity="0.3"/>
<stop offset="0.66" stop-color="#EEEEEF" stop-opacity="0.13"/>
<stop offset="0.84" stop-color="#FBFBFB" stop-opacity="0.03"/>
<stop offset="1" stop-color="white" stop-opacity="0"/>
</radialGradient>
<linearGradient id="paint9_linear_1044_3910" x1="10.1087" y1="23.3957" x2="10.1087" y2="18.1179" gradientUnits="userSpaceOnUse">
<stop offset="0.53" stop-color="white" stop-opacity="0"/>
<stop offset="0.76" stop-color="#C1C2C3" stop-opacity="0.49"/>
<stop offset="1" stop-color="#808184"/>
</linearGradient>
<radialGradient id="paint10_radial_1044_3910" cx="0" cy="0" r="1" gradientUnits="userSpaceOnUse" gradientTransform="translate(10.3026 20.3561) rotate(180) scale(2.67124)">
<stop stop-color="white" stop-opacity="0"/>
<stop offset="0.14" stop-color="#F8F8F8" stop-opacity="0.06"/>
<stop offset="0.34" stop-color="#E4E4E5" stop-opacity="0.21"/>
<stop offset="0.59" stop-color="#C4C4C6" stop-opacity="0.47"/>
<stop offset="0.87" stop-color="#97989A" stop-opacity="0.82"/>
<stop offset="1" stop-color="#808184"/>
</radialGradient>
<linearGradient id="paint11_linear_1044_3910" x1="9.73718" y1="18.6195" x2="10.1888" y2="16.0578" gradientUnits="userSpaceOnUse">
<stop stop-color="white" stop-opacity="0"/>
<stop offset="0.14" stop-color="#F6F6F6" stop-opacity="0.07"/>
<stop offset="0.37" stop-color="#DDDDDE" stop-opacity="0.27"/>
<stop offset="0.67" stop-color="#B4B5B7" stop-opacity="0.59"/>
<stop offset="1" stop-color="#808184"/>
</linearGradient>
<radialGradient id="paint12_radial_1044_3910" cx="0" cy="0" r="1" gradientUnits="userSpaceOnUse" gradientTransform="translate(13.4043 10.9571) scale(0.622293)">
<stop stop-color="white" stop-opacity="0"/>
<stop offset="0.24" stop-color="#E4E5E5" stop-opacity="0.25"/>
<stop offset="1" stop-color="#929497"/>
</radialGradient>
<radialGradient id="paint13_radial_1044_3910" cx="0" cy="0" r="1" gradientTransform="matrix(-0.845111 2.67618 1.0423 0.338044 8.94298 16.2884)" gradientUnits="userSpaceOnUse">
<stop stop-color="#808184"/>
<stop offset="0.33" stop-color="#B4B5B7" stop-opacity="0.59"/>
<stop offset="0.63" stop-color="#DDDDDE" stop-opacity="0.27"/>
<stop offset="0.86" stop-color="#F6F6F6" stop-opacity="0.07"/>
<stop offset="1" stop-color="white" stop-opacity="0"/>
</radialGradient>
<radialGradient id="paint14_radial_1044_3910" cx="0" cy="0" r="1" gradientTransform="matrix(-6.67861 1.87836 1.1131 4.03499 9.38119 12.4034)" gradientUnits="userSpaceOnUse">
<stop stop-color="#58595B"/>
<stop offset="0.01" stop-color="#616264" stop-opacity="0.94"/>
<stop offset="0.05" stop-color="#929394" stop-opacity="0.65"/>
<stop offset="0.1" stop-color="#BABBBC" stop-opacity="0.41"/>
<stop offset="0.15" stop-color="#D9DADA" stop-opacity="0.23"/>
<stop offset="0.22" stop-color="#EFEFEF" stop-opacity="0.1"/>
<stop offset="0.32" stop-color="#FCFCFC" stop-opacity="0.02"/>
<stop offset="0.59" stop-color="white" stop-opacity="0"/>
</radialGradient>
<linearGradient id="paint15_linear_1044_3910" x1="11.8721" y1="12.7008" x2="10.1738" y2="10.2258" gradientUnits="userSpaceOnUse">
<stop offset="0.49" stop-color="white" stop-opacity="0"/>
<stop offset="0.56" stop-color="#FAFAFA" stop-opacity="0.04"/>
<stop offset="0.66" stop-color="#ECEDED" stop-opacity="0.15"/>
<stop offset="0.76" stop-color="#D6D6D7" stop-opacity="0.33"/>
<stop offset="0.86" stop-color="#B6B6B8" stop-opacity="0.58"/>
<stop offset="0.97" stop-color="#8D8E90" stop-opacity="0.9"/>
<stop offset="1" stop-color="#808184"/>
</linearGradient>
<linearGradient id="paint16_linear_1044_3910" x1="7.77651" y1="15.1344" x2="10.6028" y2="15.2702" gradientUnits="userSpaceOnUse">
<stop stop-color="#808184"/>
<stop offset="0.07" stop-color="#9B9B9E" stop-opacity="0.79"/>
<stop offset="0.23" stop-color="#D1D1D2" stop-opacity="0.37"/>
<stop offset="0.35" stop-color="#F2F2F3" stop-opacity="0.1"/>
<stop offset="0.41" stop-color="white" stop-opacity="0"/>
</linearGradient>
<linearGradient id="paint17_linear_1044_3910" x1="9.7002" y1="18.8984" x2="10.0864" y2="16.7072" gradientUnits="userSpaceOnUse">
<stop stop-color="#808184"/>
<stop offset="0.03" stop-color="#87888B" stop-opacity="0.94"/>
<stop offset="0.26" stop-color="#B2B3B4" stop-opacity="0.61"/>
<stop offset="0.47" stop-color="#D3D4D5" stop-opacity="0.34"/>
<stop offset="0.67" stop-color="#EBECEC" stop-opacity="0.15"/>
<stop offset="0.85" stop-color="#FAFAFA" stop-opacity="0.04"/>
<stop offset="1" stop-color="white" stop-opacity="0"/>
</linearGradient>
<linearGradient id="paint18_linear_1044_3910" x1="8.50188" y1="11.9437" x2="14.9424" y2="14.2878" gradientUnits="userSpaceOnUse">
<stop offset="0.27" stop-color="white" stop-opacity="0"/>
<stop offset="0.42" stop-color="#F0F0F0" stop-opacity="0.08"/>
<stop offset="0.61" stop-color="#C5C5C6" stop-opacity="0.3"/>
<stop offset="0.81" stop-color="#7F7F80" stop-opacity="0.67"/>
<stop offset="0.95" stop-color="#404041"/>
</linearGradient>
<linearGradient id="paint19_linear_1044_3910" x1="13.5904" y1="8.70325" x2="15.362" y2="8.70325" gradientUnits="userSpaceOnUse">
<stop stop-color="#808184"/>
<stop offset="0.09" stop-color="#8B8C8F" stop-opacity="0.91"/>
<stop offset="0.24" stop-color="#A9AAAC" stop-opacity="0.68"/>
<stop offset="0.44" stop-color="#D9D9DA" stop-opacity="0.3"/>
<stop offset="0.59" stop-color="white" stop-opacity="0"/>
</linearGradient>
<linearGradient id="paint20_linear_1044_3910" x1="14.4158" y1="8.39521" x2="15.9406" y2="8.39521" gradientUnits="userSpaceOnUse">
<stop stop-color="#808184"/>
<stop offset="0.09" stop-color="#8B8C8F" stop-opacity="0.91"/>
<stop offset="0.24" stop-color="#A9AAAC" stop-opacity="0.68"/>
<stop offset="0.44" stop-color="#D9D9DA" stop-opacity="0.3"/>
<stop offset="0.59" stop-color="white" stop-opacity="0"/>
</linearGradient>
<linearGradient id="paint21_linear_1044_3910" x1="13.8315" y1="17.9551" x2="13.6594" y2="17.6565" gradientUnits="userSpaceOnUse">
<stop stop-color="white" stop-opacity="0"/>
<stop offset="0.27" stop-color="#D1D1D2" stop-opacity="0.34"/>
<stop offset="0.6" stop-color="#A0A1A3" stop-opacity="0.7"/>
<stop offset="0.85" stop-color="#828386" stop-opacity="0.92"/>
<stop offset="1" stop-color="#77787B"/>
</linearGradient>
<linearGradient id="paint22_linear_1044_3910" x1="12.4465" y1="18.4119" x2="14.8062" y2="15.5999" gradientUnits="userSpaceOnUse">
<stop offset="0.49" stop-color="white" stop-opacity="0"/>
<stop offset="0.52" stop-color="#E0E0E1" stop-opacity="0.23"/>
<stop offset="0.57" stop-color="#C0C0C2" stop-opacity="0.47"/>
<stop offset="0.62" stop-color="#A5A6A8" stop-opacity="0.66"/>
<stop offset="0.67" stop-color="#909194" stop-opacity="0.81"/>
<stop offset="0.74" stop-color="#828386" stop-opacity="0.92"/>
<stop offset="0.83" stop-color="#797A7D" stop-opacity="0.98"/>
<stop offset="1" stop-color="#77787B"/>
</linearGradient>
<linearGradient id="paint23_linear_1044_3910" x1="12.0316" y1="17.1005" x2="15.35" y2="17.1005" gradientUnits="userSpaceOnUse">
<stop offset="0.58" stop-color="white" stop-opacity="0"/>
<stop offset="0.64" stop-color="#DBDCDC" stop-opacity="0.28"/>
<stop offset="0.71" stop-color="#BBBBBD" stop-opacity="0.54"/>
<stop offset="0.78" stop-color="#A1A2A4" stop-opacity="0.74"/>
<stop offset="0.85" stop-color="#8F8F92" stop-opacity="0.89"/>
<stop offset="0.92" stop-color="#848587" stop-opacity="0.97"/>
<stop offset="1" stop-color="#808184"/>
</linearGradient>
<linearGradient id="paint24_linear_1044_3910" x1="15.3124" y1="19.1913" x2="15.1532" y2="18.9154" gradientUnits="userSpaceOnUse">
<stop stop-color="white" stop-opacity="0"/>
<stop offset="0.27" stop-color="#D1D1D2" stop-opacity="0.34"/>
<stop offset="0.6" stop-color="#A0A1A3" stop-opacity="0.7"/>
<stop offset="0.85" stop-color="#828386" stop-opacity="0.92"/>
<stop offset="1" stop-color="#77787B"/>
</linearGradient>
<linearGradient id="paint25_linear_1044_3910" x1="14.3788" y1="19.8479" x2="15.6916" y2="16.24" gradientUnits="userSpaceOnUse">
<stop offset="0.49" stop-color="white" stop-opacity="0"/>
<stop offset="0.52" stop-color="#E0E0E1" stop-opacity="0.23"/>
<stop offset="0.57" stop-color="#C0C0C2" stop-opacity="0.47"/>
<stop offset="0.62" stop-color="#A5A6A8" stop-opacity="0.66"/>
<stop offset="0.67" stop-color="#909194" stop-opacity="0.81"/>
<stop offset="0.74" stop-color="#828386" stop-opacity="0.92"/>
<stop offset="0.83" stop-color="#797A7D" stop-opacity="0.98"/>
<stop offset="1" stop-color="#77787B"/>
</linearGradient>
<linearGradient id="paint26_linear_1044_3910" x1="13.5123" y1="18.161" x2="16.4823" y2="18.161" gradientUnits="userSpaceOnUse">
<stop offset="0.58" stop-color="white" stop-opacity="0"/>
<stop offset="0.64" stop-color="#DBDCDC" stop-opacity="0.28"/>
<stop offset="0.71" stop-color="#BBBBBD" stop-opacity="0.54"/>
<stop offset="0.78" stop-color="#A1A2A4" stop-opacity="0.74"/>
<stop offset="0.85" stop-color="#8F8F92" stop-opacity="0.89"/>
<stop offset="0.92" stop-color="#848587" stop-opacity="0.97"/>
<stop offset="1" stop-color="#808184"/>
</linearGradient>
<linearGradient id="paint27_linear_1044_3910" x1="22.2643" y1="18.6195" x2="21.8127" y2="16.0578" gradientUnits="userSpaceOnUse">
<stop stop-color="white"/>
<stop offset="0.08" stop-color="white" stop-opacity="0.73"/>
<stop offset="0.17" stop-color="white" stop-opacity="0.47"/>
<stop offset="0.24" stop-color="white" stop-opacity="0.27"/>
<stop offset="0.31" stop-color="white" stop-opacity="0.12"/>
<stop offset="0.36" stop-color="white" stop-opacity="0.03"/>
<stop offset="0.4" stop-color="white" stop-opacity="0"/>
</linearGradient>
<linearGradient id="paint28_linear_1044_3910" x1="22.3021" y1="18.8984" x2="21.9159" y2="16.7072" gradientUnits="userSpaceOnUse">
<stop stop-color="#808184"/>
<stop offset="0.03" stop-color="#87888B" stop-opacity="0.94"/>
<stop offset="0.26" stop-color="#B2B3B4" stop-opacity="0.61"/>
<stop offset="0.47" stop-color="#D3D4D5" stop-opacity="0.34"/>
<stop offset="0.67" stop-color="#EBECEC" stop-opacity="0.15"/>
<stop offset="0.85" stop-color="#FAFAFA" stop-opacity="0.04"/>
<stop offset="1" stop-color="white" stop-opacity="0"/>
</linearGradient>
<linearGradient id="paint29_linear_1044_3910" x1="17.7292" y1="20.6804" x2="17.7292" y2="17.0661" gradientUnits="userSpaceOnUse">
<stop stop-color="white" stop-opacity="0"/>
<stop offset="0.13" stop-color="#F6F6F6" stop-opacity="0.07"/>
<stop offset="0.35" stop-color="#DDDDDE" stop-opacity="0.27"/>
<stop offset="0.64" stop-color="#B4B5B7" stop-opacity="0.59"/>
<stop offset="0.95" stop-color="#808184"/>
</linearGradient>
<radialGradient id="paint30_radial_1044_3910" cx="0" cy="0" r="1" gradientUnits="userSpaceOnUse" gradientTransform="translate(22.5847 12.5066) rotate(15.81) scale(7.73422 4.64053)">
<stop stop-color="#58595B"/>
<stop offset="0.01" stop-color="#616264" stop-opacity="0.94"/>
<stop offset="0.05" stop-color="#929394" stop-opacity="0.65"/>
<stop offset="0.1" stop-color="#BABBBC" stop-opacity="0.41"/>
<stop offset="0.15" stop-color="#D9DADA" stop-opacity="0.23"/>
<stop offset="0.22" stop-color="#EFEFEF" stop-opacity="0.1"/>
<stop offset="0.32" stop-color="#FCFCFC" stop-opacity="0.02"/>
<stop offset="0.59" stop-color="white" stop-opacity="0"/>
</radialGradient>
<linearGradient id="paint31_linear_1044_3910" x1="14.8702" y1="16.7034" x2="14.8702" y2="5.5562" gradientUnits="userSpaceOnUse">
<stop offset="0.29" stop-color="white" stop-opacity="0"/>
<stop offset="0.39" stop-color="#F8F8F8" stop-opacity="0.05"/>
<stop offset="0.53" stop-color="#E5E5E6" stop-opacity="0.2"/>
<stop offset="0.7" stop-color="#C6C6C8" stop-opacity="0.45"/>
<stop offset="0.89" stop-color="#9B9C9E" stop-opacity="0.79"/>
<stop offset="1" stop-color="#808184"/>
</linearGradient>
<linearGradient id="paint32_linear_1044_3910" x1="19.5354" y1="13.4335" x2="21.5431" y2="10.0866" gradientUnits="userSpaceOnUse">
<stop offset="0.52" stop-color="white" stop-opacity="0"/>
<stop offset="0.59" stop-color="#FAFAFA" stop-opacity="0.04"/>
<stop offset="0.66" stop-color="#ECEDED" stop-opacity="0.15"/>
<stop offset="0.75" stop-color="#D6D6D7" stop-opacity="0.33"/>
<stop offset="0.84" stop-color="#B6B6B8" stop-opacity="0.58"/>
<stop offset="0.93" stop-color="#8D8E90" stop-opacity="0.9"/>
<stop offset="0.96" stop-color="#808184"/>
</linearGradient>
<linearGradient id="paint33_linear_1044_3910" x1="24.1075" y1="15.0903" x2="21.2812" y2="15.2255" gradientUnits="userSpaceOnUse">
<stop stop-color="#808184"/>
<stop offset="0.03" stop-color="#8C8D90" stop-opacity="0.91"/>
<stop offset="0.15" stop-color="#BDBEBF" stop-opacity="0.52"/>
<stop offset="0.26" stop-color="#E1E1E2" stop-opacity="0.24"/>
<stop offset="0.34" stop-color="#F7F7F7" stop-opacity="0.06"/>
<stop offset="0.4" stop-color="white" stop-opacity="0"/>
</linearGradient>
<linearGradient id="paint34_linear_1044_3910" x1="22.2643" y1="18.6195" x2="21.8127" y2="16.0578" gradientUnits="userSpaceOnUse">
<stop stop-color="white" stop-opacity="0"/>
<stop offset="0.14" stop-color="#F6F6F6" stop-opacity="0.07"/>
<stop offset="0.37" stop-color="#DDDDDE" stop-opacity="0.27"/>
<stop offset="0.67" stop-color="#B4B5B7" stop-opacity="0.59"/>
<stop offset="1" stop-color="#808184"/>
</linearGradient>
<radialGradient id="paint35_radial_1044_3910" cx="0" cy="0" r="1" gradientUnits="userSpaceOnUse" gradientTransform="translate(22.7685 16.8926) rotate(72.65) scale(2.81703 1.09864)">
<stop stop-color="#808184"/>
<stop offset="0.33" stop-color="#B4B5B7" stop-opacity="0.59"/>
<stop offset="0.63" stop-color="#DDDDDE" stop-opacity="0.27"/>
<stop offset="0.86" stop-color="#F6F6F6" stop-opacity="0.07"/>
<stop offset="1" stop-color="white" stop-opacity="0"/>
</radialGradient>
<linearGradient id="paint36_linear_1044_3910" x1="18.1885" y1="16.3642" x2="21.0646" y2="11.3837" gradientUnits="userSpaceOnUse">
<stop offset="0.05" stop-color="#404041"/>
<stop offset="0.16" stop-color="#7A7A7B" stop-opacity="0.7"/>
<stop offset="0.33" stop-color="#C3C3C3" stop-opacity="0.31"/>
<stop offset="0.48" stop-color="#F0F0F0" stop-opacity="0.08"/>
<stop offset="0.61" stop-color="white" stop-opacity="0"/>
</linearGradient>
<linearGradient id="paint37_linear_1044_3910" x1="11.681" y1="17.7641" x2="12.0202" y2="17.5685" gradientUnits="userSpaceOnUse">
<stop stop-color="#808184"/>
<stop offset="0.05" stop-color="#8C8D90" stop-opacity="0.91"/>
<stop offset="0.26" stop-color="#BDBEBF" stop-opacity="0.52"/>
<stop offset="0.45" stop-color="#E1E1E2" stop-opacity="0.24"/>
<stop offset="0.6" stop-color="#F7F7F7" stop-opacity="0.06"/>
<stop offset="0.7" stop-color="white" stop-opacity="0"/>
</linearGradient>
<linearGradient id="paint38_linear_1044_3910" x1="13.1617" y1="18.9998" x2="13.501" y2="18.8042" gradientUnits="userSpaceOnUse">
<stop stop-color="#808184"/>
<stop offset="0.05" stop-color="#8C8D90" stop-opacity="0.91"/>
<stop offset="0.26" stop-color="#BDBEBF" stop-opacity="0.52"/>
<stop offset="0.45" stop-color="#E1E1E2" stop-opacity="0.24"/>
<stop offset="0.6" stop-color="#F7F7F7" stop-opacity="0.06"/>
<stop offset="0.7" stop-color="white" stop-opacity="0"/>
</linearGradient>
<linearGradient id="paint39_linear_1044_3910" x1="15.9369" y1="18.9133" x2="17.9851" y2="20.9623" gradientUnits="userSpaceOnUse">
<stop offset="0.14" stop-color="#808184"/>
<stop offset="0.26" stop-color="#8A8A8D" stop-opacity="0.92"/>
<stop offset="0.45" stop-color="#A3A4A6" stop-opacity="0.72"/>
<stop offset="0.69" stop-color="#CDCECF" stop-opacity="0.39"/>
<stop offset="0.94" stop-color="white" stop-opacity="0"/>
</linearGradient>
<linearGradient id="paint40_linear_1044_3910" x1="13.3615" y1="16.9481" x2="17.549" y2="11.9577" gradientUnits="userSpaceOnUse">
<stop offset="0.05" stop-color="#404041"/>
<stop offset="0.16" stop-color="#7A7A7B" stop-opacity="0.7"/>
<stop offset="0.33" stop-color="#C3C3C3" stop-opacity="0.31"/>
<stop offset="0.48" stop-color="#F0F0F0" stop-opacity="0.08"/>
<stop offset="0.61" stop-color="white" stop-opacity="0"/>
</linearGradient>
<radialGradient id="paint41_radial_1044_3910" cx="0" cy="0" r="1" gradientUnits="userSpaceOnUse" gradientTransform="translate(15.5857 9.95577) scale(2.38819)">
<stop stop-color="white" stop-opacity="0"/>
<stop offset="0.22" stop-color="#E8E8E9" stop-opacity="0.18"/>
<stop offset="0.68" stop-color="#ADAEAF" stop-opacity="0.65"/>
<stop offset="1" stop-color="#808184"/>
</radialGradient>
<linearGradient id="paint42_linear_1044_3910" x1="16.5932" y1="8.67352" x2="17.1757" y2="8.18493" gradientUnits="userSpaceOnUse">
<stop stop-color="white" stop-opacity="0"/>
<stop offset="0.06" stop-color="#F4F4F4" stop-opacity="0.09"/>
<stop offset="0.38" stop-color="#C2C3C4" stop-opacity="0.48"/>
<stop offset="0.65" stop-color="#9E9FA1" stop-opacity="0.76"/>
<stop offset="0.86" stop-color="#88898C" stop-opacity="0.94"/>
<stop offset="1" stop-color="#808184"/>
</linearGradient>
</defs>
</svg>
