<svg width="32" height="32" viewBox="0 0 32 32" fill="none" xmlns="http://www.w3.org/2000/svg">
<path d="M23 3.99971H9C6.23858 3.99971 4 6.23829 4 8.99971V22.9997C4 25.7611 6.23858 27.9997 9 27.9997H23C25.7614 27.9997 28 25.7611 28 22.9997V8.99971C28 6.23829 25.7614 3.99971 23 3.99971Z" fill="#FFDD00"/>
<path fill-rule="evenodd" clip-rule="evenodd" d="M8.51553 21.1991C8.83878 21.7884 9.2229 22.3347 9.76521 22.7935V16.2538C9.76521 15.9128 9.76498 15.5718 9.76476 15.2309C9.76418 14.3786 9.76361 13.5264 9.76662 12.6739C9.76896 11.9643 10.1772 11.3933 10.8518 11.2911C11.719 11.1594 12.2969 11.24 12.8182 12.0838C13.5639 13.2909 14.3181 14.4931 15.0722 15.6951C15.37 16.1697 15.6677 16.6442 15.9649 17.1191C15.9985 17.1727 16.0336 17.2251 16.0738 17.2849C16.0958 17.3177 16.1193 17.3527 16.1449 17.3914C16.1646 17.3617 16.1829 17.3342 16.2002 17.3082C16.2493 17.2346 16.29 17.1735 16.3291 17.1111C16.6215 16.645 16.9147 16.1795 17.2079 15.714C17.9613 14.5179 18.7146 13.3219 19.4529 12.1166C19.8246 11.5096 20.3079 11.2433 21.0269 11.2386C21.8702 11.2335 22.5321 11.8714 22.5251 12.7518C22.4993 16.0039 22.5208 22.911 22.5208 22.911C22.5702 22.8634 22.6284 22.7928 22.6783 22.7322C22.7056 22.699 22.7305 22.6688 22.7501 22.6471C23.5437 21.7639 24.0949 20.7397 24.4849 19.6274C25.1355 17.773 25.3422 15.8835 24.8468 13.956C23.7691 9.76394 19.7051 6.85441 15.1076 7.36535C13.1022 7.588 11.3524 8.4041 9.8899 9.80191C8.36271 11.2616 7.44631 13.0471 7.22928 15.1471C7.00803 17.2907 7.48006 19.3114 8.51553 21.1991Z" fill="black"/>
<path d="M13.3404 17.631C13.0305 17.1561 12.7163 16.6749 12.4003 16.1932C12.4003 16.1932 12.4045 21.6209 12.4003 24.1385C12.4003 24.1385 12.4589 24.1638 12.5719 24.2093C14.8819 25.1356 17.1923 25.1445 19.5089 24.2299C19.6673 24.1676 19.688 24.1573 19.688 24.1573C19.6861 22.5032 19.6859 20.7482 19.6857 19.0265C19.6856 18.1598 19.6854 17.3015 19.6851 16.4688C19.6851 16.4216 19.6812 16.3742 19.6759 16.3092C19.6731 16.276 19.67 16.2383 19.6669 16.1937C19.637 16.2371 19.6112 16.2744 19.5883 16.3076C19.5423 16.3739 19.5076 16.424 19.4742 16.4749C19.236 16.837 18.9994 17.2001 18.7628 17.5632C18.2254 18.3879 17.688 19.2126 17.1328 20.0252C16.5356 20.8985 15.5367 20.8887 14.9184 20.0309C14.7636 19.8163 14.6202 19.5935 14.4767 19.3707C14.4176 19.279 14.3586 19.1873 14.2987 19.0962C13.9858 18.6197 13.6655 18.1289 13.3404 17.631Z" fill="black"/>
</svg>
