<svg width="32" height="32" viewBox="0 0 32 32" fill="none" xmlns="http://www.w3.org/2000/svg">
<path d="M23.3227 7.87524C23.1448 7.21402 22.6156 6.83397 21.8826 6.83341C18.2621 6.83231 10.781 6.83673 10.6634 6.82237C10.3468 6.7837 10.1104 6.50363 10.1242 6.19484C10.1353 5.94295 10.2574 5.87169 10.6816 5.87169C13.8518 5.87169 20.3579 5.87114 20.4402 5.87059C20.6325 5.86948 20.7247 5.77557 20.7225 5.58058C20.7192 5.27731 20.7242 4.97405 20.722 4.67078C20.7181 4.17583 20.5032 3.97144 20.0005 4.00348C19.5614 4.03166 19.1228 4.07806 18.6842 4.11617C17.3584 4.23107 11.6212 4.77463 10.0745 4.87406C9.31663 4.92323 8.62668 5.48501 8.63331 6.41801C8.65817 9.64401 8.65983 12.87 8.63165 16.096C8.62447 16.9467 9.24702 17.651 10.18 17.6317C12.1178 17.5913 19.9481 17.6206 21.9234 17.619C22.799 17.6179 23.3668 17.0506 23.368 16.1684C23.3707 13.5489 23.3602 8.01444 23.3227 7.87524ZM18.5162 14.3549C18.4113 15.1 17.9887 15.6546 17.2761 15.9132C15.9117 16.4076 14.6793 16.0844 13.5651 15.2133C13.511 15.1707 13.485 15.0128 13.5198 14.9476C13.7833 14.4548 13.7833 14.4659 14.249 14.778C15.0019 15.2829 15.8189 15.5569 16.7199 15.2818C17.0032 15.1951 17.2883 15.0089 17.4938 14.7935C17.876 14.3919 17.8357 13.7511 17.3783 13.3357C17.0679 13.054 16.6746 12.8501 16.2934 12.6623C15.8344 12.4358 15.3427 12.2762 14.8754 12.0646C14.0286 11.6801 13.5502 10.8493 13.7159 10.0848C13.9098 9.19049 14.7599 8.47956 15.6648 8.45636C15.7382 8.4547 15.8117 8.45636 15.8852 8.45636C16.6353 8.46188 17.3314 8.65743 17.9815 9.03361C18.2069 9.16398 18.2251 9.29324 18.076 9.491C17.9534 9.6534 17.9047 9.87326 17.6092 9.665C17.0784 9.29103 16.4619 9.14243 15.8139 9.14299C15.2124 9.14354 14.6887 9.54568 14.529 10.1235C14.4346 10.4643 14.5423 10.7576 14.7732 11.0106C15.0803 11.3476 15.4963 11.494 15.9023 11.6685C16.5061 11.9276 17.1225 12.1756 17.6849 12.5093C18.3654 12.9131 18.6245 13.5837 18.5151 14.3554L18.5162 14.3549Z" fill="#EE4D2D"/>
<path d="M11.1211 19.2247C10.4234 19.2181 9.72572 19.2219 9.02804 19.2236C8.71152 19.2247 8.66291 19.2739 8.66236 19.5931C8.66125 20.6029 8.66236 21.6127 8.66236 22.6225C8.66236 23.6234 8.66236 24.6238 8.66236 25.6248C8.66236 25.9849 8.72202 26.0446 9.07168 26.0457C9.43847 26.0468 9.48985 26.0004 9.49206 25.6391C9.49537 25.079 9.49261 24.5189 9.49316 23.9593C9.49316 23.7041 9.625 23.5763 9.88868 23.5759C10.3107 23.5754 10.7333 23.5831 11.1553 23.5721C12.3502 23.54 13.2887 22.554 13.2776 21.3525C13.2671 20.1914 12.3027 19.2363 11.1211 19.2247ZM11.1796 22.7573C10.6571 22.7689 10.1345 22.7573 9.61193 22.7556C9.58596 22.7556 9.56 22.7412 9.51415 22.728V20.0577C9.56884 20.0472 9.61966 20.029 9.67048 20.029C10.1748 20.029 10.6792 20.0218 11.1835 20.0362C11.9574 20.0583 12.5407 20.6598 12.5341 21.4111C12.528 22.1491 11.9408 22.7401 11.1796 22.7573Z" fill="#EE4D2D"/>
<path d="M16.9629 21.9311V22.2504C16.4768 21.8582 15.9338 21.645 15.3129 21.6859C14.6843 21.7273 14.1634 21.9903 13.7706 22.4835C13.1768 23.2304 13.1906 24.3015 13.7982 25.0284C14.1219 25.4162 14.5357 25.6698 15.0312 25.7554C15.7449 25.8786 16.3934 25.7018 16.9436 25.2356L16.9541 25.5366C16.9591 25.6714 17.0701 25.7775 17.2049 25.7764C17.3667 25.7747 17.5689 25.7742 17.6711 25.7797V21.682H17.2109C17.0734 21.682 16.9629 21.7936 16.9629 21.9311ZM15.4455 25.0224C14.6992 25.0257 14.0441 24.4153 14.0441 23.7159C14.0441 23.031 14.6942 22.4211 15.4261 22.4195C16.1807 22.4178 16.8248 23.021 16.8215 23.7264C16.8182 24.4236 16.1857 25.019 15.4455 25.0224Z" fill="#EE4D2D"/>
<path d="M23.0899 21.6658H22.4977C22.4839 21.689 21.4139 23.4787 20.9703 24.2156C20.5207 23.4931 19.433 21.6807 19.433 21.6807H18.7829C18.6332 21.6807 18.5398 21.8436 18.6166 21.9724C19.016 22.6452 20.002 24.3029 20.4627 25.0371C20.1191 25.601 19.6822 26.3617 19.348 26.9318C19.2358 27.1229 19.0397 27.4643 18.8989 27.7101C18.8248 27.8388 18.9182 27.9996 19.0668 27.9996H19.628C19.628 27.9996 21.4012 25.0685 22.1884 23.7544C22.4475 23.3219 22.9811 22.422 23.2562 21.9574C23.3324 21.8287 23.2396 21.6658 23.0899 21.6658Z" fill="#EE4D2D"/>
</svg>
