<svg width="32" height="32" viewBox="0 0 32 32" fill="none" xmlns="http://www.w3.org/2000/svg">
<path d="M9 4H23C25.7614 4 28 6.23858 28 9V23C28 25.7614 25.7614 28 23 28H9C6.23858 28 4 25.7614 4 23V9C4 6.23858 6.23858 4 9 4Z" fill="#F9E900"/>
<path d="M8.68902 17.1252C8.62648 17.0845 8.56719 17.0439 8.50628 17.0033C8.10424 16.7191 7.80088 16.3584 7.67987 15.8727C7.5353 15.2896 7.69083 14.7738 8.07419 14.3247C8.43968 13.8975 8.91197 13.6437 9.45208 13.5153C10.2562 13.3245 11.0298 13.4077 11.7555 13.815C12.1932 14.0607 12.5388 14.4023 12.7126 14.8823C12.9656 15.5795 12.789 16.1911 12.2887 16.7154C11.8899 17.1329 11.3855 17.3574 10.8267 17.4671C10.5436 17.5158 10.2558 17.5317 9.96904 17.5146C9.92466 17.5139 9.88104 17.5262 9.84356 17.5499C9.45045 17.8111 9.05979 18.0779 8.66831 18.3398C8.64638 18.3544 8.62364 18.3694 8.60171 18.3849C8.57954 18.4044 8.55145 18.4158 8.52197 18.4174C8.49249 18.4189 8.46336 18.4105 8.43927 18.3934C8.38363 18.3528 8.37917 18.2967 8.39582 18.235C8.47704 17.9323 8.55826 17.6299 8.63948 17.3278C8.6541 17.2612 8.67075 17.1938 8.68902 17.1252Z" fill="#1E1E1E"/>
<path d="M14.3675 13.8334C14.4893 13.8334 14.6087 13.8334 14.7289 13.8334C14.817 13.8334 14.9243 13.8087 14.9884 13.8493C15.0526 13.8899 15.0599 13.9971 15.0932 14.0751C15.0985 14.0872 15.1058 14.0986 15.1155 14.1157L15.1894 14.0511C15.602 13.6913 16.2684 13.6275 16.7233 13.9037C16.9489 14.0395 17.1183 14.2518 17.2008 14.5019C17.4116 15.1151 17.4279 15.7336 17.1887 16.3423C16.9519 16.945 16.4268 17.2914 15.7795 17.2877C15.6329 17.2877 15.4867 17.2609 15.3401 17.2471C15.3194 17.2451 15.2995 17.2443 15.269 17.2418V17.3429C15.269 17.6966 15.269 18.0508 15.269 18.4049C15.269 18.4695 15.2536 18.4946 15.1846 18.4934C14.9373 18.4902 14.6903 18.4934 14.4434 18.4934C14.4199 18.4934 14.3959 18.4902 14.3663 18.4877L14.3675 13.8334ZM15.269 16.6099C15.3795 16.6099 15.4802 16.6099 15.5809 16.6099C15.9752 16.6067 16.2465 16.4118 16.357 16.0357C16.4609 15.6783 16.4663 15.2994 16.3724 14.9392C16.2912 14.6168 16.0841 14.4622 15.7511 14.4755C15.6199 14.4808 15.49 14.5242 15.3596 14.5522C15.2902 14.5668 15.2662 14.6058 15.2666 14.6826C15.2707 15.2852 15.269 15.8879 15.269 16.4905V16.6099Z" fill="#1E1E1E"/>
<path d="M21.4495 18.1168C21.4767 18.092 21.5035 18.0669 21.5307 18.0425C21.7776 17.8222 21.9877 17.5639 22.1532 17.2774C22.166 17.2576 22.1736 17.2348 22.1754 17.2113C22.1772 17.1877 22.1731 17.1641 22.1634 17.1426C21.7844 16.1122 21.4053 15.0815 21.0263 14.0506C21.0166 14.0233 21.0068 13.9957 20.993 13.958L21.8949 13.7143L22.6539 16.3361L22.8164 15.7675C23.0059 15.1059 23.1943 14.4442 23.3817 13.7825C23.3991 13.7216 23.419 13.7013 23.4869 13.722C23.7512 13.8004 24.0176 13.8719 24.2901 13.9474C24.2836 13.9734 24.2808 13.9937 24.2739 14.0128C23.9145 14.9992 23.5579 15.9864 23.1941 16.9712C23.052 17.3741 22.8495 17.753 22.5934 18.0949C22.4441 18.2922 22.2633 18.4636 22.0582 18.6021C22.0286 18.6216 22.0038 18.6427 21.9672 18.6066C21.8011 18.4502 21.6326 18.2967 21.4653 18.1416C21.459 18.134 21.4537 18.1257 21.4495 18.1168Z" fill="#1E1E1E"/>
<path d="M18.2619 14.715C18.1843 14.5246 18.106 14.3374 18.0341 14.1465C18.0276 14.1295 18.0572 14.0868 18.0804 14.0726C18.3466 13.9103 18.6431 13.804 18.9519 13.7603C19.2093 13.7167 19.4728 13.7255 19.7267 13.7863C20.2169 13.9081 20.5222 14.2533 20.5836 14.754C20.5962 14.8551 20.6027 14.9568 20.6031 15.0586C20.605 15.7392 20.605 16.4201 20.6031 17.1013C20.6031 17.1301 20.6006 17.1585 20.5986 17.1975C20.4362 17.1975 20.2778 17.1975 20.1202 17.1975C19.9269 17.1951 19.9752 17.2272 19.9139 17.0493C19.9001 17.0087 19.8855 16.9701 19.8701 16.9275C19.7775 16.9839 19.6922 17.04 19.6032 17.0899C19.2853 17.2637 18.9494 17.3413 18.588 17.2621C18.1665 17.1699 17.9001 16.8645 17.857 16.4328C17.8349 16.2624 17.8434 16.0894 17.8822 15.922C17.987 15.5187 18.2741 15.3067 18.6583 15.2137C18.8309 15.1763 19.0064 15.154 19.1829 15.1471C19.3701 15.1362 19.5582 15.1447 19.7442 15.1447C19.8351 14.8198 19.6223 14.5254 19.2816 14.5071C18.9696 14.4956 18.6589 14.554 18.3724 14.6781C18.3452 14.6891 18.3184 14.7012 18.2911 14.7126C18.2815 14.7142 18.2717 14.715 18.2619 14.715ZM19.7576 15.7303C19.5667 15.7303 19.3896 15.7279 19.213 15.7303C19.1568 15.7333 19.1011 15.7424 19.0469 15.7575C18.7659 15.8261 18.6481 15.9874 18.6664 16.2757C18.6773 16.4491 18.7789 16.56 18.9531 16.577C19.2374 16.6067 19.4863 16.5157 19.7178 16.3614C19.7275 16.3556 19.7361 16.3479 19.7428 16.3388C19.7496 16.3296 19.7545 16.3192 19.7572 16.3082C19.7572 16.1177 19.7576 15.9281 19.7576 15.7303Z" fill="#1E1E1E"/>
</svg>
