<svg width="32" height="32" viewBox="0 0 32 32" fill="none" xmlns="http://www.w3.org/2000/svg">
<path d="M4 9C4 6.23858 6.23858 4 9 4H23C25.7614 4 28 6.23858 28 9V23C28 25.7614 25.7614 28 23 28H9C6.23858 28 4 25.7614 4 23V9Z" fill="#F0FF5F"/>
<path d="M21.4046 17.9915C21.8043 17.5227 22.409 16.6644 22.7651 16.1597C22.842 16.0508 23.0328 15.7318 23.0328 15.7318C22.1169 15.7318 19.9725 15.7254 19.9725 15.7254C19.9725 15.7254 19.9071 15.8163 19.7124 16.061C19.0873 16.8527 18.3737 17.5521 17.4437 17.989C16.2665 18.5424 14.8355 18.3348 13.9132 17.4573C14.5973 16.3082 15.2865 15.1502 16.0128 13.9307C16.1806 14.192 16.3087 14.4008 16.4445 14.6045C16.8749 15.2476 17.4091 15.3782 18.074 14.9837C18.3263 14.8338 19.1488 14.2163 19.1488 14.2163C18.2392 12.7188 17.1286 10.8203 16.2331 9.31513C16.1768 9.22034 16.0999 9.13835 15.9949 9C13.3291 13.4964 10.6914 17.9428 8 22.4828C8.88519 22.4828 10.9694 22.493 10.9694 22.493C11.3947 21.7091 12.1121 20.501 12.5822 19.7055C13.6583 20.4267 14.792 20.8495 16.0487 20.8661C17.3054 20.8828 18.4314 20.4472 19.4946 19.7645C19.9878 20.5984 20.6168 21.6898 21.0908 22.4687C21.0908 22.4687 23.0354 22.4777 24 22.4777C23.9065 22.2894 21.4021 17.9928 21.4021 17.9928L21.4046 17.9915Z" fill="#131926"/>
</svg>
