<svg width="32" height="32" viewBox="0 0 32 32" fill="none" xmlns="http://www.w3.org/2000/svg">
<path d="M26.943 8.63781H5.05696C4.55661 8.63781 4.15099 9.04342 4.15099 9.54377V22.4568C4.15099 22.9571 4.55661 23.3628 5.05696 23.3628H26.943C27.4434 23.3628 27.849 22.9571 27.849 22.4568V9.54377C27.849 9.04342 27.4434 8.63781 26.943 8.63781Z" fill="white"/>
<path d="M7.67212 17.5626C7.67212 17.2264 7.49697 17.2485 7.32986 17.2445V17.1479C7.47482 17.1539 7.6238 17.1539 7.77077 17.1539C7.9278 17.1539 8.14121 17.1479 8.41702 17.1479C9.38338 17.1479 9.90884 17.7921 9.90884 18.4545C9.90884 18.8249 9.69343 19.753 8.37072 19.753C8.18147 19.753 8.00431 19.745 7.82915 19.745C7.654 19.745 7.49697 19.749 7.32986 19.753V19.6564C7.55334 19.6342 7.66205 19.6262 7.67212 19.3725V17.5626ZM8.03853 19.3141C8.03853 19.602 8.24388 19.6342 8.42709 19.6342C9.2344 19.6342 9.49814 19.0262 9.49814 18.4706C9.49814 17.774 9.0512 17.2687 8.33045 17.2687C8.17744 17.2687 8.10698 17.2787 8.03853 17.2827V19.3141Z" fill="#231F20"/>
<path d="M10.0377 19.6563H10.1081C10.2128 19.6563 10.2873 19.6563 10.2873 19.5335V18.5229C10.2873 18.3578 10.231 18.3356 10.0941 18.2612V18.2008C10.2692 18.1484 10.4786 18.0779 10.4947 18.0659C10.5209 18.0518 10.543 18.0477 10.5611 18.0477C10.5792 18.0477 10.5873 18.0699 10.5873 18.1001V19.5335C10.5873 19.6563 10.6698 19.6563 10.7745 19.6563H10.839V19.753C10.7121 19.753 10.5813 19.7449 10.4464 19.7449C10.3115 19.7449 10.1786 19.7489 10.0397 19.753V19.6563H10.0377ZM10.4383 17.474C10.3417 17.474 10.2551 17.3834 10.2551 17.2867C10.2551 17.1901 10.3437 17.1076 10.4383 17.1076C10.5329 17.1076 10.6215 17.1861 10.6215 17.2867C10.6215 17.3874 10.539 17.474 10.4383 17.474Z" fill="#231F20"/>
<path d="M11.1913 18.5431C11.1913 18.4062 11.151 18.3679 10.9759 18.2975V18.227C11.1369 18.1747 11.2899 18.1263 11.4691 18.0478C11.4812 18.0478 11.4913 18.0559 11.4913 18.0841V18.3277C11.7047 18.1747 11.8879 18.0478 12.1375 18.0478C12.4536 18.0478 12.5663 18.2794 12.5663 18.5693V19.5316C12.5663 19.6544 12.6489 19.6544 12.7536 19.6544H12.82V19.751C12.6891 19.751 12.5583 19.743 12.4254 19.743C12.2925 19.743 12.1556 19.747 12.0228 19.751V19.6544H12.0892C12.1939 19.6544 12.2684 19.6544 12.2684 19.5316V18.5652C12.2684 18.3518 12.1375 18.2471 11.9261 18.2471C11.8073 18.2471 11.6161 18.3438 11.4933 18.4263V19.5296C11.4933 19.6524 11.5758 19.6524 11.6805 19.6524H11.7469V19.749C11.6161 19.749 11.4852 19.741 11.3503 19.741C11.2154 19.741 11.0826 19.745 10.9477 19.749V19.6524H11.0161C11.1208 19.6524 11.1953 19.6524 11.1953 19.5296V18.5411L11.1913 18.5431Z" fill="#231F20"/>
<path d="M13.1019 18.7222C13.0938 18.7564 13.0938 18.8108 13.1019 18.9376C13.124 19.292 13.3515 19.5839 13.6495 19.5839C13.8548 19.5839 14.0159 19.4711 14.1528 19.3342L14.2051 19.3866C14.034 19.6141 13.8206 19.8074 13.5146 19.8074C12.9207 19.8074 12.8019 19.2336 12.8019 18.994C12.8019 18.2632 13.2951 18.0458 13.5548 18.0458C13.8568 18.0458 14.183 18.235 14.185 18.6316C14.185 18.6538 14.185 18.6759 14.181 18.7001L14.1467 18.7222H13.0978H13.1019ZM13.7622 18.6014C13.8548 18.6014 13.8669 18.5531 13.8669 18.5088C13.8669 18.3176 13.7521 18.1645 13.5428 18.1645C13.3153 18.1645 13.1582 18.3316 13.1139 18.6014H13.7642H13.7622Z" fill="#231F20"/>
<path d="M14.2736 19.6564H14.3742C14.4789 19.6564 14.5534 19.6564 14.5534 19.5336V18.4847C14.5534 18.3699 14.4165 18.3478 14.3601 18.3176V18.2632C14.6319 18.1464 14.7829 18.0498 14.8151 18.0498C14.8373 18.0498 14.8494 18.0599 14.8494 18.0981V18.4343H14.8574C14.95 18.2894 15.1071 18.0498 15.3346 18.0498C15.4272 18.0498 15.548 18.1122 15.548 18.2471C15.548 18.3478 15.4775 18.4384 15.3728 18.4384C15.256 18.4384 15.256 18.3478 15.1272 18.3478C15.0648 18.3478 14.8554 18.4343 14.8554 18.6578V19.5336C14.8554 19.6564 14.9299 19.6564 15.0346 19.6564H15.244V19.753C15.0386 19.749 14.8816 19.745 14.7225 19.745C14.5635 19.745 14.4125 19.749 14.2776 19.753V19.6564H14.2736Z" fill="#231F20"/>
<path d="M15.711 19.2336C15.7594 19.4792 15.9083 19.6886 16.1821 19.6886C16.4016 19.6886 16.4841 19.5537 16.4841 19.4228C16.4841 18.9819 15.6708 19.1229 15.6708 18.5229C15.6708 18.3135 15.8379 18.0458 16.2486 18.0458C16.3674 18.0458 16.5284 18.08 16.6734 18.1545L16.6996 18.535H16.613C16.5747 18.2994 16.4439 18.1645 16.2063 18.1645C16.0573 18.1645 15.9144 18.2511 15.9144 18.4102C15.9144 18.847 16.7801 18.7122 16.7801 19.298C16.7801 19.5436 16.5828 19.8053 16.1379 19.8053C15.9889 19.8053 15.8137 19.753 15.6829 19.6785L15.6426 19.2497L15.709 19.2316L15.711 19.2336Z" fill="#231F20"/>
<path d="M20.1523 17.8223H20.0596C19.9892 17.3854 19.6791 17.2103 19.2624 17.2103C18.8457 17.2103 18.2095 17.4982 18.2095 18.392C18.2095 19.147 18.747 19.6886 19.3228 19.6886C19.6932 19.6886 19.9992 19.4349 20.0737 19.0423L20.1583 19.0645L20.0737 19.6101C19.9167 19.7067 19.4939 19.8074 19.2483 19.8074C18.3745 19.8074 17.8229 19.2437 17.8229 18.4041C17.8229 17.6391 18.5054 17.0895 19.2362 17.0895C19.5382 17.0895 19.8301 17.1861 20.116 17.2868L20.1543 17.8203L20.1523 17.8223Z" fill="#231F20"/>
<path d="M20.2871 19.6564H20.3576C20.4623 19.6564 20.5368 19.6564 20.5368 19.5336V17.4559C20.5368 17.2123 20.4804 17.2062 20.3395 17.164V17.1036C20.4885 17.0553 20.6455 16.9888 20.724 16.9425C20.7643 16.9204 20.7945 16.9002 20.8066 16.9002C20.8287 16.9002 20.8368 16.9224 20.8368 16.9526V19.5316C20.8368 19.6544 20.9193 19.6544 21.024 19.6544H21.0864V19.751C20.9596 19.751 20.8287 19.7429 20.6938 19.7429C20.5589 19.7429 20.4261 19.747 20.2871 19.751V19.6544V19.6564Z" fill="#231F20"/>
<path d="M22.6829 19.5477C22.6829 19.6162 22.7232 19.6182 22.7876 19.6182C22.8319 19.6182 22.8883 19.6141 22.9366 19.6141V19.6927C22.7755 19.7068 22.4695 19.7853 22.399 19.8074L22.3809 19.7953V19.4933C22.1574 19.6766 21.9843 19.8074 21.7206 19.8074C21.5192 19.8074 21.3099 19.6766 21.3099 19.3645V18.4082C21.3099 18.3116 21.2938 18.2169 21.0864 18.1988V18.1284C21.2213 18.1243 21.5192 18.1022 21.5676 18.1022C21.6098 18.1022 21.6098 18.1284 21.6098 18.2109V19.1732C21.6098 19.286 21.6098 19.6061 21.934 19.6061C22.0608 19.6061 22.2279 19.5095 22.3849 19.3786V18.374C22.3849 18.2995 22.2058 18.2592 22.0709 18.221V18.1545C22.4071 18.1324 22.6165 18.1022 22.6527 18.1022C22.6829 18.1022 22.6829 18.1284 22.6829 18.1686V19.5477Z" fill="#231F20"/>
<path d="M23.4258 18.3156C23.5748 18.1887 23.7761 18.0478 23.9815 18.0478C24.4143 18.0478 24.6761 18.4243 24.6761 18.8309C24.6761 19.3202 24.3177 19.8094 23.7842 19.8094C23.5084 19.8094 23.3634 19.7208 23.2648 19.6785L23.152 19.7631L23.0735 19.7228C23.1057 19.5034 23.1259 19.2859 23.1259 19.0584V17.4539C23.1259 17.2103 23.0695 17.2022 22.9286 17.162V17.1016C23.0775 17.0532 23.2346 16.9868 23.3131 16.9405C23.3534 16.9184 23.3835 16.9002 23.3956 16.9002C23.4178 16.9002 23.4258 16.9224 23.4258 16.9526V18.3156ZM23.4258 19.3302C23.4258 19.4712 23.5607 19.7107 23.8104 19.7107C24.211 19.7107 24.3781 19.3182 24.3781 18.986C24.3781 18.5833 24.0721 18.2471 23.7802 18.2471C23.6412 18.2471 23.5265 18.3377 23.4258 18.4223V19.3302Z" fill="#231F20"/>
<path d="M7.32382 21.9233H7.352C7.42448 21.9233 7.503 21.9133 7.503 21.8086V20.7456C7.503 20.6389 7.4265 20.6308 7.352 20.6308H7.32382V20.5684C7.40234 20.5684 7.52514 20.5765 7.62379 20.5765C7.72244 20.5765 7.84727 20.5684 7.94189 20.5684V20.6308H7.9137C7.84123 20.6308 7.76271 20.6409 7.76271 20.7456V21.8086C7.76271 21.9153 7.83921 21.9233 7.9137 21.9233H7.94189V21.9837C7.84525 21.9837 7.72244 21.9757 7.62178 21.9757C7.52112 21.9757 7.40234 21.9837 7.32382 21.9837V21.9233Z" fill="#231F20"/>
<path d="M7.9439 21.9917C7.84525 21.9917 7.72445 21.9837 7.62379 21.9837C7.52313 21.9837 7.40434 21.9917 7.32583 21.9917H7.31777V21.9132H7.35603C7.43052 21.9132 7.49695 21.9052 7.49695 21.8065V20.7435C7.49695 20.6449 7.4285 20.6368 7.35603 20.6368H7.31777V20.5583H7.32583C7.40636 20.5583 7.52715 20.5664 7.6258 20.5664C7.72445 20.5664 7.84927 20.5583 7.9439 20.5583H7.95195V20.6368H7.91571C7.84122 20.6368 7.77478 20.6449 7.77478 20.7435V21.8065C7.77478 21.9052 7.84323 21.9112 7.91571 21.9132H7.95195V21.9917H7.9439ZM7.93584 21.9736V21.9293H7.91571C7.84323 21.9293 7.75666 21.9172 7.75666 21.8045V20.7415C7.75666 20.6288 7.84323 20.6167 7.91571 20.6167H7.93584V20.5744C7.84122 20.5744 7.72445 20.5825 7.6258 20.5825C7.52715 20.5825 7.4124 20.5744 7.33388 20.5744V20.6167H7.35401C7.42649 20.6167 7.51306 20.6288 7.51306 20.7415V21.8045C7.51306 21.9172 7.42649 21.9293 7.35401 21.9293H7.33388V21.9736C7.4124 21.9736 7.52715 21.9656 7.62379 21.9656C7.72042 21.9656 7.84122 21.9736 7.93584 21.9736Z" fill="#231F20"/>
<path d="M9.33908 21.5831L9.34311 21.579V20.818C9.34311 20.6509 9.22634 20.6268 9.16594 20.6268H9.12165V20.5643C9.21627 20.5643 9.3109 20.5724 9.40552 20.5724C9.48806 20.5724 9.57262 20.5643 9.65516 20.5643V20.6268H9.62496C9.53839 20.6268 9.44377 20.6429 9.44377 20.8845V21.8085C9.44377 21.879 9.44578 21.9495 9.45585 22.0139H9.37935L8.33447 20.8482V21.6837C8.33447 21.8609 8.36869 21.9213 8.52573 21.9213H8.55995V21.9817C8.47338 21.9817 8.3848 21.9736 8.29823 21.9736C8.21166 21.9736 8.11301 21.9817 8.02241 21.9817V21.9213H8.0506C8.19153 21.9213 8.2338 21.8267 8.2338 21.6636V20.8079C8.2338 20.6932 8.13918 20.6247 8.04859 20.6247H8.02241V20.5623C8.09892 20.5623 8.17945 20.5704 8.25595 20.5704C8.31635 20.5704 8.37675 20.5623 8.43714 20.5623L9.34109 21.581L9.33908 21.5831Z" fill="#231F20"/>
<path d="M9.45584 22.024L9.37128 22.0199L8.34049 20.8724V21.6857C8.34251 21.8629 8.37069 21.9132 8.52169 21.9152H8.56598V21.9938H8.55591C8.46733 21.9938 8.38076 21.9857 8.29419 21.9857C8.20762 21.9857 8.11098 21.9938 8.01837 21.9938H8.01032V21.9152H8.04857C8.18346 21.9152 8.22171 21.8287 8.22373 21.6656V20.81C8.22373 20.7012 8.13514 20.6368 8.04656 20.6368H8.01032V20.5583H8.01837C8.09689 20.5583 8.17541 20.5664 8.25191 20.5664C8.31231 20.5664 8.37069 20.5583 8.43914 20.5623L9.33102 21.5669V20.82C9.33102 20.659 9.2223 20.6388 9.1619 20.6368H9.10754V20.5583H9.11761C9.21425 20.5583 9.30686 20.5664 9.40148 20.5664C9.48402 20.5664 9.56657 20.5583 9.65112 20.5583H9.66119V20.6368H9.62092C9.53637 20.6388 9.45181 20.6469 9.44778 20.8865V21.8105C9.44778 21.881 9.44778 21.9515 9.45986 22.0139V22.024H9.45181H9.45584ZM9.37933 22.0058H9.44577C9.4357 21.9454 9.43571 21.877 9.43571 21.8105V20.8865C9.43571 20.6429 9.53838 20.6207 9.62495 20.6207H9.6471V20.5764C9.56657 20.5764 9.48604 20.5845 9.40551 20.5845C9.3129 20.5845 9.2223 20.5764 9.12969 20.5764V20.6207H9.16593C9.22834 20.6207 9.35115 20.6489 9.35115 20.82V21.5871L9.34511 21.5911L9.33907 21.5971L8.43713 20.5764C8.37673 20.5764 8.31835 20.5845 8.25594 20.5845C8.18145 20.5845 8.10494 20.5764 8.03045 20.5764V20.6207H8.04857C8.1432 20.6207 8.24185 20.6932 8.24185 20.812V21.6676C8.24185 21.8307 8.19554 21.9334 8.05059 21.9354H8.03045V21.9797C8.11904 21.9797 8.20963 21.9716 8.29822 21.9716C8.3868 21.9716 8.46733 21.9797 8.55189 21.9797V21.9354H8.52571C8.36667 21.9354 8.3264 21.8649 8.3264 21.6877V20.8281L9.38135 22.0078L9.37933 22.0058Z" fill="#231F20"/>
<path d="M9.95914 20.6671C9.80613 20.6671 9.80211 20.7033 9.76989 20.8523H9.7095C9.71755 20.7959 9.72761 20.7395 9.73365 20.6791C9.74171 20.6228 9.74573 20.5644 9.74573 20.506H9.79405C9.81016 20.5664 9.86049 20.5644 9.91686 20.5644H10.9638C11.0181 20.5644 11.0684 20.5644 11.0745 20.502L11.1228 20.51C11.1147 20.5644 11.1067 20.6187 11.1007 20.6751C11.0966 20.7295 11.0966 20.7858 11.0966 20.8402L11.0362 20.8623C11.0322 20.7879 11.0221 20.6671 10.8852 20.6671H10.553V21.7482C10.553 21.9052 10.6235 21.9233 10.7222 21.9233H10.7604V21.9837C10.6819 21.9837 10.539 21.9757 10.4302 21.9757C10.3094 21.9757 10.1665 21.9837 10.086 21.9837V21.9233H10.1242C10.237 21.9233 10.2933 21.9133 10.2933 21.7542V20.6691H9.96115L9.95914 20.6671Z" fill="#231F20"/>
<path d="M10.7605 21.9918C10.6799 21.9918 10.539 21.9837 10.4283 21.9837C10.3075 21.9837 10.1645 21.9918 10.084 21.9918H10.0759V21.9133H10.1223C10.235 21.9112 10.2793 21.9092 10.2813 21.7522V20.6751H9.95716V20.657H10.2994V21.7502C10.2994 21.9133 10.233 21.9294 10.1223 21.9294H10.0921V21.9716C10.1726 21.9716 10.3095 21.9636 10.4263 21.9636C10.533 21.9636 10.6678 21.9716 10.7484 21.9716V21.9294H10.7182C10.6195 21.9294 10.541 21.9052 10.541 21.7462V20.657H10.8833C11.0202 20.657 11.0383 20.7738 11.0423 20.8482L11.0866 20.8321C11.0866 20.7798 11.0866 20.7254 11.0906 20.6731C11.0967 20.6207 11.1047 20.5684 11.1108 20.5181L11.0806 20.512C11.0705 20.5704 11.0141 20.5744 10.9638 20.5744H9.90482C9.8565 20.5744 9.80416 20.5724 9.78604 20.5161H9.75181C9.75181 20.5724 9.74779 20.6268 9.73973 20.6811C9.73369 20.7375 9.72564 20.7899 9.71759 20.8442H9.76188C9.78805 20.7033 9.80617 20.657 9.95716 20.659V20.6771C9.80818 20.6811 9.8102 20.7053 9.77798 20.8563V20.8623H9.69745V20.8523C9.70752 20.7959 9.71759 20.7395 9.72363 20.6791C9.73168 20.6228 9.73571 20.5664 9.73571 20.508V20.5H9.80013V20.506C9.81624 20.5563 9.85247 20.5583 9.90482 20.5583H10.9638C11.0202 20.5583 11.0624 20.5583 11.0645 20.504V20.4939H11.0745L11.1309 20.502V20.51C11.1228 20.5644 11.1148 20.6187 11.1087 20.6731C11.1047 20.7275 11.1047 20.7818 11.1047 20.8362V20.8422H11.0987L11.0262 20.8704V20.8583C11.0202 20.7818 11.0121 20.6711 10.8833 20.6711H10.5591V21.7421C10.5591 21.8951 10.6215 21.9052 10.7182 21.9072H10.7645V21.9857H10.7564L10.7605 21.9918Z" fill="#231F20"/>
<path d="M11.1893 21.9233H11.2174C11.2899 21.9233 11.3684 21.9133 11.3684 21.8086V20.7456C11.3684 20.6389 11.2919 20.6308 11.2174 20.6308H11.1893V20.5684C11.3121 20.5684 11.5255 20.5765 11.6946 20.5765C11.8637 20.5765 12.0771 20.5684 12.214 20.5684C12.21 20.657 12.214 20.7899 12.218 20.8805L12.1576 20.8966C12.1476 20.7637 12.1234 20.659 11.91 20.659H11.6281V21.1905H11.8697C11.9925 21.1905 12.0187 21.1221 12.0308 21.0113H12.0912C12.0872 21.0899 12.0852 21.1704 12.0852 21.2489C12.0852 21.3274 12.0872 21.4039 12.0912 21.4804L12.0308 21.4925C12.0187 21.3697 12.0127 21.2912 11.8717 21.2912H11.6281V21.7643C11.6281 21.8972 11.7449 21.8972 11.8758 21.8972C12.1194 21.8972 12.2281 21.8811 12.2885 21.6495L12.3449 21.6636C12.3187 21.7724 12.2945 21.8791 12.2764 21.9858C12.1476 21.9858 11.912 21.9777 11.7308 21.9777C11.5496 21.9777 11.306 21.9858 11.1913 21.9858V21.9254L11.1893 21.9233Z" fill="#231F20"/>
<path d="M12.2744 21.9917C12.1435 21.9917 11.91 21.9837 11.7288 21.9837C11.5476 21.9837 11.304 21.9917 11.1892 21.9917H11.1812V21.9132H11.2194C11.2919 21.9132 11.3604 21.9052 11.3604 21.8065V20.7435C11.3604 20.6449 11.2919 20.6388 11.2194 20.6368H11.1812V20.5583H11.1892C11.3121 20.5583 11.5255 20.5664 11.6946 20.5664C11.8637 20.5664 12.0751 20.5583 12.214 20.5583H12.2241V20.5664C12.2241 20.5966 12.222 20.6328 12.222 20.671C12.222 20.7415 12.2241 20.818 12.2281 20.8764V20.8844H12.222L12.1516 20.9046V20.8945C12.1395 20.7637 12.1214 20.667 11.912 20.665H11.6382V21.1784H11.8717C11.9885 21.1784 12.0086 21.118 12.0227 21.0073V20.9992H12.1013V21.0073C12.0972 21.0858 12.0952 21.1663 12.0952 21.2448C12.0952 21.3233 12.0972 21.3978 12.1013 21.4763V21.4824H12.0932L12.0227 21.4985V21.4884C12.0086 21.3636 12.0066 21.2972 11.8717 21.2952H11.6362V21.7602C11.6362 21.883 11.7429 21.883 11.8758 21.883C12.1214 21.883 12.218 21.8689 12.2804 21.6414V21.6334H12.2905L12.3549 21.6495V21.6575C12.3267 21.7642 12.3026 21.873 12.2845 21.9797V21.9877H12.2764L12.2744 21.9917ZM12.2663 21.9736C12.2845 21.8709 12.3066 21.7683 12.3328 21.6656L12.2925 21.6555C12.2321 21.883 12.1133 21.9032 11.8738 21.9011C11.7449 21.9011 11.6181 21.9011 11.6181 21.7602V21.279H11.8697C12.0107 21.279 12.0247 21.3636 12.0348 21.4784L12.0791 21.4683C12.0751 21.3938 12.0731 21.3173 12.0731 21.2428C12.0731 21.1683 12.0731 21.0898 12.0791 21.0133H12.0348C12.0227 21.12 11.9905 21.1945 11.8657 21.1925H11.6161V20.6429H11.908C12.1194 20.6429 12.1536 20.7516 12.1637 20.8784L12.208 20.8663C12.2039 20.81 12.2019 20.7355 12.2019 20.669C12.2019 20.6328 12.2019 20.6006 12.2019 20.5724C12.065 20.5724 11.8576 20.5804 11.6905 20.5804C11.5234 20.5804 11.3181 20.5724 11.1933 20.5724V20.6167H11.2134C11.2859 20.6167 11.3725 20.6288 11.3725 20.7415V21.8045C11.3725 21.9172 11.2859 21.9293 11.2134 21.9293H11.1933V21.9716C11.3121 21.9716 11.5456 21.9636 11.7248 21.9636C11.904 21.9636 12.1315 21.9716 12.2643 21.9716" fill="#231F20"/>
<path d="M12.6187 20.7818C12.6187 20.6328 12.5381 20.6288 12.4737 20.6288H12.4375V20.5664C12.5019 20.5664 12.6287 20.5744 12.7535 20.5744C12.8784 20.5744 12.973 20.5664 13.0797 20.5664C13.3354 20.5664 13.5629 20.6348 13.5629 20.9247C13.5629 21.1079 13.4421 21.2187 13.281 21.2831L13.6293 21.8025C13.6857 21.8891 13.7259 21.9132 13.8266 21.9253V21.9857C13.7602 21.9857 13.6937 21.9777 13.6273 21.9777C13.5649 21.9777 13.4984 21.9857 13.436 21.9857C13.279 21.7804 13.1461 21.5609 13.0133 21.3274H12.8804V21.7622C12.8804 21.9193 12.9529 21.9253 13.0455 21.9253H13.0817V21.9857C12.9649 21.9857 12.8482 21.9777 12.7314 21.9777C12.6348 21.9777 12.5381 21.9857 12.4375 21.9857V21.9253H12.4737C12.5482 21.9253 12.6187 21.8911 12.6187 21.8166V20.7818ZM12.8784 21.2529H12.977C13.1804 21.2529 13.2891 21.1764 13.2891 20.9368C13.2891 20.7556 13.1723 20.6409 12.9931 20.6409C12.9327 20.6409 12.9066 20.6469 12.8784 20.6489V21.2529Z" fill="#231F20"/>
<path d="M13.8246 21.9918C13.7561 21.9918 13.6917 21.9837 13.6253 21.9837C13.5629 21.9837 13.4984 21.9918 13.428 21.9878C13.273 21.7824 13.1401 21.565 13.0072 21.3335H12.8864V21.7582C12.8864 21.9113 12.9488 21.9092 13.0434 21.9113H13.0898V21.9898H13.0797C12.9629 21.9898 12.8461 21.9817 12.7294 21.9817C12.6327 21.9817 12.5381 21.9898 12.4354 21.9898H12.4274V21.9113H12.4737C12.5462 21.9113 12.6086 21.879 12.6086 21.8106V20.7798C12.6086 20.6369 12.5361 20.6369 12.4737 20.6349H12.4274V20.5563H12.4354C12.5019 20.5563 12.6267 20.5644 12.7515 20.5644C12.8763 20.5644 12.971 20.5563 13.0777 20.5563C13.3334 20.5563 13.5689 20.6268 13.5689 20.9227C13.5689 21.106 13.4481 21.2207 13.2911 21.2851L13.6313 21.7965C13.6877 21.8811 13.7239 21.9012 13.8226 21.9153H13.8306V21.9938H13.8226L13.8246 21.9918ZM13.0173 21.3153V21.3194C13.1522 21.5529 13.285 21.7723 13.434 21.9737C13.4964 21.9737 13.5609 21.9656 13.6253 21.9656C13.6897 21.9656 13.7521 21.9717 13.8165 21.9737V21.9294C13.7219 21.9173 13.6776 21.8891 13.6212 21.8046L13.2669 21.2751L13.277 21.271C13.436 21.2086 13.5528 21.0999 13.5528 20.9207C13.5528 20.6389 13.3334 20.5745 13.0777 20.5724C12.971 20.5724 12.8723 20.5805 12.7515 20.5805C12.6307 20.5805 12.5119 20.5724 12.4455 20.5724V20.6167H12.4737C12.5361 20.6167 12.6267 20.6268 12.6267 20.7798V21.8106C12.6267 21.8931 12.5502 21.9294 12.4737 21.9294H12.4455V21.9717C12.5442 21.9717 12.6348 21.9636 12.7314 21.9636C12.8461 21.9636 12.9589 21.9717 13.0716 21.9717V21.9294H13.0434C12.9508 21.9294 12.8683 21.9173 12.8683 21.7582V21.3153H13.0173ZM12.8703 21.259V20.6369H12.8784C12.9065 20.6349 12.9327 20.6288 12.9951 20.6288C13.1803 20.6288 13.3011 20.7496 13.3011 20.9348C13.3011 21.1764 13.1844 21.259 12.979 21.259H12.8703ZM12.977 21.2408C13.1783 21.2408 13.279 21.1684 13.281 20.9328C13.281 20.7556 13.1703 20.6449 12.9931 20.6449C12.9388 20.6449 12.9126 20.6489 12.8864 20.653V21.2408H12.977Z" fill="#231F20"/>
<path d="M15.2017 21.5831L15.2057 21.579V20.818C15.2057 20.6509 15.091 20.6268 15.0286 20.6268H14.9843V20.5643C15.0809 20.5643 15.1735 20.5724 15.2681 20.5724C15.3507 20.5724 15.4352 20.5643 15.5178 20.5643V20.6268H15.4876C15.403 20.6268 15.3064 20.6429 15.3064 20.8845V21.8085C15.3064 21.879 15.3064 21.9495 15.3185 22.0139H15.242L14.1971 20.8482V21.6837C14.1971 21.8609 14.2313 21.9213 14.3883 21.9213H14.4226V21.9817C14.334 21.9817 14.2474 21.9736 14.1608 21.9736C14.0743 21.9736 13.9756 21.9817 13.885 21.9817V21.9213H13.9132C14.0541 21.9213 14.0964 21.8267 14.0964 21.6636V20.8079C14.0964 20.6932 14.0038 20.6247 13.9112 20.6247H13.885V20.5623C13.9615 20.5623 14.0421 20.5704 14.1186 20.5704C14.179 20.5704 14.2374 20.5623 14.2998 20.5623L15.2037 21.581L15.2017 21.5831Z" fill="#231F20"/>
<path d="M15.3205 22.024L15.2379 22.02L14.2071 20.8724V21.6858C14.2092 21.8629 14.2373 21.9133 14.3904 21.9153H14.4326V21.9938H14.4246C14.336 21.9938 14.2494 21.9857 14.1629 21.9857C14.0763 21.9857 13.9776 21.9938 13.887 21.9938H13.877V21.9153H13.9152C14.0501 21.9153 14.0884 21.8287 14.0904 21.6656V20.81C14.0904 20.7013 14.0018 20.6369 13.9152 20.6369H13.879V20.5583H13.889C13.9656 20.5583 14.0461 20.5664 14.1226 20.5664C14.183 20.5664 14.2414 20.5583 14.3098 20.5604L15.2017 21.565V20.8181C15.2017 20.657 15.093 20.6369 15.0346 20.6349H14.9802V20.5563H14.9883C15.0849 20.5563 15.1775 20.5644 15.2722 20.5644C15.3547 20.5644 15.4372 20.5563 15.5218 20.5563H15.5299V20.6349H15.4916C15.407 20.6349 15.3225 20.6449 15.3185 20.8845V21.8086C15.3185 21.879 15.3185 21.9495 15.3305 22.0119V22.022H15.3225L15.3205 22.024ZM15.244 22.0059H15.3104C15.3024 21.9455 15.3003 21.877 15.3003 21.8106V20.8865C15.3003 20.6429 15.403 20.6208 15.4896 20.6208H15.5117V20.5765C15.4312 20.5765 15.3507 20.5845 15.2701 20.5845C15.1775 20.5845 15.0869 20.5765 14.9943 20.5765V20.6208H15.0306C15.093 20.6208 15.2158 20.6489 15.2158 20.8201V21.5871L15.2097 21.5911L15.2037 21.5972L14.2998 20.5765C14.2394 20.5765 14.181 20.5845 14.1186 20.5845C14.0441 20.5845 13.9676 20.5765 13.8931 20.5765V20.6208H13.9112C14.0058 20.6208 14.1045 20.6932 14.1045 20.812V21.6677C14.1045 21.8307 14.0582 21.9334 13.9132 21.9354H13.8931V21.9777C13.9817 21.9777 14.0723 21.9696 14.1608 21.9696C14.2494 21.9696 14.33 21.9777 14.4145 21.9777V21.9354H14.3883C14.2293 21.9354 14.189 21.865 14.187 21.6878V20.8281L15.242 22.0079L15.244 22.0059Z" fill="#231F20"/>
<path d="M15.8459 21.6938C15.8258 21.7622 15.7996 21.8166 15.7996 21.8528C15.7996 21.9132 15.8862 21.9233 15.9526 21.9233H15.9748V21.9837C15.8922 21.9797 15.8097 21.9756 15.7291 21.9756C15.6567 21.9756 15.5842 21.9797 15.5097 21.9837V21.9233H15.5218C15.6003 21.9233 15.6687 21.877 15.6989 21.7904L16.0251 20.8583C16.0513 20.7838 16.0875 20.6811 16.0996 20.6066C16.164 20.5845 16.2465 20.5442 16.2848 20.5201C16.2908 20.518 16.2949 20.516 16.3009 20.516C16.3069 20.516 16.311 20.516 16.315 20.5221C16.321 20.5382 16.3271 20.5563 16.3331 20.5724L16.7056 21.6354C16.7297 21.7059 16.7539 21.7824 16.7801 21.8428C16.8042 21.8991 16.8465 21.9233 16.9149 21.9233H16.927V21.9837C16.8364 21.9797 16.7438 21.9756 16.6472 21.9756C16.5505 21.9756 16.4459 21.9797 16.3432 21.9837V21.9233H16.3653C16.4116 21.9233 16.4901 21.9152 16.4901 21.8649C16.4901 21.8387 16.472 21.7844 16.4499 21.7179L16.3714 21.4824H15.9103L15.8459 21.6938ZM16.1419 20.7939H16.1378L15.9486 21.3697H16.3291L16.1419 20.7939Z" fill="#231F20"/>
<path d="M16.927 21.9917C16.8364 21.9877 16.7458 21.9837 16.6472 21.9837C16.5485 21.9837 16.4458 21.9877 16.3432 21.9917H16.3331V21.9132H16.3653C16.4116 21.9132 16.4821 21.9032 16.4821 21.8649C16.4821 21.8407 16.464 21.7864 16.4418 21.722L16.3653 21.4925H15.9164L15.854 21.6978C15.8338 21.7683 15.8097 21.8206 15.8097 21.8528C15.8097 21.9032 15.8862 21.9152 15.9546 21.9152H15.9848V21.9958H15.9747C15.8942 21.9917 15.8097 21.9877 15.7291 21.9877C15.6567 21.9877 15.5822 21.9917 15.5097 21.9958H15.5016V21.9173H15.5218C15.5983 21.9173 15.6607 21.873 15.6889 21.7924L16.015 20.8603C16.0412 20.7858 16.0774 20.6831 16.0955 20.6026C16.16 20.5805 16.2405 20.5402 16.2808 20.516C16.2868 20.516 16.2928 20.512 16.3009 20.512C16.3049 20.512 16.317 20.512 16.323 20.5241C16.3291 20.5402 16.3351 20.5583 16.3412 20.5744L16.7156 21.6374C16.7398 21.7079 16.7639 21.7824 16.7901 21.8428C16.8143 21.8971 16.8505 21.9193 16.917 21.9193H16.9371V21.9998H16.927V21.9917ZM16.3512 21.9736C16.4519 21.9696 16.5505 21.9656 16.6472 21.9656C16.7438 21.9656 16.8304 21.9696 16.919 21.9736V21.9313H16.9149C16.8465 21.9313 16.7982 21.9032 16.772 21.8448C16.7458 21.7824 16.7217 21.7079 16.6975 21.6374L16.323 20.5744C16.317 20.5583 16.311 20.5402 16.3049 20.5261C16.3049 20.5261 16.3049 20.5261 16.3009 20.5261H16.2969C16.2969 20.5261 16.2908 20.5261 16.2848 20.5281C16.2445 20.5543 16.164 20.5925 16.1036 20.6086C16.0915 20.6851 16.0553 20.7878 16.0291 20.8623L15.705 21.7944C15.6748 21.883 15.6023 21.9334 15.5198 21.9334H15.5157V21.9756C15.5842 21.9716 15.6546 21.9676 15.7271 21.9676C15.8056 21.9676 15.8862 21.9716 15.9627 21.9756V21.9334H15.9506C15.8841 21.9334 15.7915 21.9253 15.7895 21.8528C15.7895 21.8126 15.8137 21.7602 15.8338 21.6918L15.9003 21.4743H16.3734L16.4539 21.7159C16.476 21.7804 16.4962 21.8347 16.4962 21.8649C16.4922 21.9273 16.4076 21.9313 16.3613 21.9334H16.3472V21.9756L16.3512 21.9736ZM15.9365 21.3777L16.1318 20.7858H16.1479L16.3412 21.3777H15.9365ZM15.9607 21.3596H16.317L16.1398 20.816L15.9607 21.3596Z" fill="#231F20"/>
<path d="M17.0176 20.6671C16.8646 20.6671 16.8586 20.7033 16.8284 20.8523H16.768C16.776 20.7959 16.7861 20.7395 16.7921 20.6791C16.8002 20.6228 16.8042 20.5644 16.8042 20.506H16.8525C16.8686 20.5664 16.919 20.5644 16.9753 20.5644H18.0222C18.0766 20.5644 18.1269 20.5644 18.1309 20.502L18.1793 20.51C18.1712 20.5644 18.1632 20.6187 18.1571 20.6751C18.1531 20.7295 18.1531 20.7858 18.1531 20.8402L18.0927 20.8623C18.0887 20.7879 18.0786 20.6671 17.9437 20.6671H17.6115V21.7482C17.6115 21.9052 17.682 21.9233 17.7806 21.9233H17.8189V21.9837C17.7404 21.9837 17.5974 21.9757 17.4887 21.9757C17.3679 21.9757 17.225 21.9837 17.1445 21.9837V21.9233H17.1827C17.2954 21.9233 17.3518 21.9133 17.3518 21.7542V20.6691H17.0196L17.0176 20.6671Z" fill="#231F20"/>
<path d="M17.8169 21.9918C17.7384 21.9918 17.5955 21.9837 17.4867 21.9837C17.3659 21.9837 17.223 21.9918 17.1425 21.9918H17.1344V21.9133H17.1807C17.2935 21.9112 17.3378 21.9092 17.3398 21.7522V20.6751H17.0156V20.657H17.3579V21.7502C17.3579 21.9133 17.2935 21.9294 17.1807 21.9294H17.1505V21.9716C17.2311 21.9716 17.368 21.9636 17.4847 21.9636C17.5914 21.9636 17.7263 21.9716 17.8068 21.9716V21.9294H17.7766C17.678 21.9294 17.5995 21.9052 17.5995 21.7462V20.657H17.9417C18.0786 20.657 18.0968 20.7738 18.1008 20.8482L18.1451 20.8321C18.1451 20.7798 18.1451 20.7254 18.1491 20.6731C18.1551 20.6207 18.1632 20.5684 18.1692 20.5181L18.139 20.512C18.129 20.5704 18.0726 20.5744 18.0203 20.5744H16.9613C16.913 20.5744 16.8626 20.5724 16.8425 20.514H16.8083C16.8083 20.5704 16.8042 20.6248 16.7962 20.6791C16.7902 20.7355 16.7801 20.7878 16.774 20.8422H16.8183C16.8445 20.7013 16.8626 20.655 17.0136 20.657V20.6751C16.8626 20.6771 16.8667 20.7033 16.8324 20.8543V20.8603H16.7519V20.8503C16.762 20.7939 16.772 20.7375 16.7781 20.6791C16.7861 20.6228 16.7902 20.5664 16.7902 20.508V20.5H16.8546V20.506C16.8707 20.5563 16.9089 20.5583 16.9593 20.5583H18.0182C18.0746 20.5583 18.1149 20.5583 18.1189 20.504V20.4939H18.129L18.1874 20.502V20.51C18.1773 20.5644 18.1692 20.6187 18.1632 20.6731C18.1592 20.7275 18.1592 20.7818 18.1592 20.8362V20.8422H18.1531L18.0807 20.8704V20.8583C18.0746 20.7818 18.0666 20.6711 17.9397 20.6711H17.6156V21.7421C17.6156 21.8951 17.678 21.9052 17.7746 21.9072H17.823V21.9857H17.8149L17.8169 21.9918Z" fill="#231F20"/>
<path d="M18.2558 21.9233H18.284C18.3585 21.9233 18.435 21.9133 18.435 21.8086V20.7456C18.435 20.6389 18.3585 20.6308 18.284 20.6308H18.2558V20.5684C18.3343 20.5684 18.4571 20.5765 18.5558 20.5765C18.6544 20.5765 18.7792 20.5684 18.8759 20.5684V20.6308H18.8477C18.7732 20.6308 18.6967 20.6409 18.6967 20.7456V21.8086C18.6967 21.9153 18.7732 21.9233 18.8477 21.9233H18.8759V21.9837C18.7772 21.9837 18.6564 21.9757 18.5558 21.9757C18.4551 21.9757 18.3363 21.9837 18.2578 21.9837V21.9233H18.2558Z" fill="#231F20"/>
<path d="M18.8759 21.9917C18.7772 21.9917 18.6564 21.9837 18.5558 21.9837C18.4551 21.9837 18.3363 21.9917 18.2578 21.9917H18.2498V21.9132H18.286C18.3605 21.9132 18.4269 21.9052 18.4269 21.8065V20.7435C18.4269 20.6449 18.3605 20.6368 18.286 20.6368H18.2498V20.5583H18.2578C18.3363 20.5583 18.4591 20.5664 18.5578 20.5664C18.6564 20.5664 18.7813 20.5583 18.8779 20.5583H18.8859V20.6368H18.8497C18.7752 20.6368 18.7088 20.6449 18.7088 20.7435V21.8065C18.7088 21.9052 18.7772 21.9132 18.8497 21.9132H18.8859V21.9917H18.8759ZM18.8658 21.9736V21.9313H18.8477C18.7752 21.9313 18.6886 21.9193 18.6886 21.8065V20.7435C18.6886 20.6308 18.7752 20.6187 18.8477 20.6187H18.8658V20.5744C18.7712 20.5744 18.6544 20.5825 18.5558 20.5825C18.4571 20.5825 18.3424 20.5744 18.2638 20.5744V20.6187H18.284C18.3565 20.6187 18.443 20.6308 18.443 20.7435V21.8065C18.443 21.9193 18.3565 21.9313 18.284 21.9313H18.2638V21.9736C18.3424 21.9736 18.4571 21.9656 18.5538 21.9656C18.6504 21.9656 18.7692 21.9736 18.8658 21.9736Z" fill="#231F20"/>
<path d="M19.6852 20.5362C20.118 20.5362 20.4623 20.8039 20.4623 21.2368C20.4623 21.7039 20.1281 22.0139 19.6953 22.0139C19.2624 22.0139 18.9363 21.722 18.9363 21.2851C18.9363 20.8482 19.2624 20.5362 19.6852 20.5362ZM19.7154 21.9253C20.11 21.9253 20.1784 21.577 20.1784 21.2811C20.1784 20.9851 20.0194 20.6248 19.6812 20.6248C19.3268 20.6248 19.2201 20.9408 19.2201 21.2126C19.2201 21.577 19.3872 21.9233 19.7154 21.9233" fill="#231F20"/>
<path d="M18.9282 21.2851C18.9282 20.8582 19.2604 20.5281 19.6872 20.5261V20.5442C19.2684 20.5442 18.9463 20.8663 18.9463 21.2851C18.9463 21.7159 19.2704 22.0058 19.6973 22.0058C20.1261 22.0058 20.4563 21.6998 20.4563 21.2367C20.4563 20.8099 20.116 20.5462 19.6872 20.5462V20.5281C20.1241 20.5281 20.4724 20.7999 20.4744 21.2367C20.4744 21.7078 20.1361 22.0219 19.6993 22.0239C19.2644 22.0239 18.9322 21.728 18.9302 21.2851M19.2141 21.2146C19.2141 20.9408 19.3228 20.6167 19.6832 20.6167C20.0274 20.6167 20.1885 20.9831 20.1885 21.283C20.1885 21.579 20.118 21.9353 19.7174 21.9353V21.9172C20.1039 21.9172 20.1704 21.579 20.1724 21.283C20.1724 20.9891 20.0133 20.6368 19.6832 20.6348C19.3349 20.6348 19.2322 20.9448 19.2302 21.2146C19.2302 21.577 19.3953 21.9152 19.7174 21.9172V21.9353C19.3812 21.9353 19.2141 21.581 19.2141 21.2166" fill="#231F20"/>
<path d="M21.8333 21.5831L21.8374 21.579V20.818C21.8374 20.6509 21.7206 20.6268 21.6602 20.6268H21.6159V20.5643C21.7105 20.5643 21.8052 20.5724 21.8998 20.5724C21.9843 20.5724 22.0669 20.5643 22.1494 20.5643V20.6268H22.1192C22.0327 20.6268 21.938 20.6429 21.938 20.8845V21.8085C21.938 21.879 21.94 21.9495 21.9501 22.0139H21.8736L20.8287 20.8482V21.6837C20.8287 21.8609 20.863 21.9213 21.02 21.9213H21.0542V21.9817C20.9676 21.9817 20.8791 21.9736 20.7925 21.9736C20.7059 21.9736 20.6073 21.9817 20.5167 21.9817V21.9213H20.5449C20.6858 21.9213 20.7281 21.8267 20.7281 21.6636V20.8079C20.7281 20.6932 20.6355 20.6247 20.5429 20.6247H20.5167V20.5623C20.5932 20.5623 20.6737 20.5704 20.7502 20.5704C20.8106 20.5704 20.869 20.5623 20.9314 20.5623L21.8354 21.581L21.8333 21.5831Z" fill="#231F20"/>
<path d="M21.9501 22.024L21.8655 22.0199L20.8348 20.8724V21.6857C20.8368 21.8629 20.865 21.9132 21.016 21.9132H21.0602V21.9917H21.0522C20.9636 21.9917 20.877 21.9837 20.7905 21.9837C20.7039 21.9837 20.6053 21.9917 20.5147 21.9917H20.5066V21.9132H20.5428C20.6777 21.9132 20.716 21.8267 20.716 21.6656V20.81C20.716 20.7012 20.6274 20.6368 20.5408 20.6368H20.5066V20.5583H20.5147C20.5932 20.5583 20.6717 20.5664 20.7482 20.5664C20.8086 20.5664 20.867 20.5583 20.9354 20.5623L21.8273 21.5669V20.82C21.8273 20.659 21.7186 20.6388 21.6582 20.6368H21.6058V20.5583H21.6139C21.7085 20.5583 21.8031 20.5664 21.8978 20.5664C21.9823 20.5664 22.0628 20.5583 22.1474 20.5583H22.1555V20.6368H22.1172C22.0347 20.6388 21.9481 20.6469 21.9461 20.8865V21.8105C21.9461 21.881 21.9461 21.9515 21.9582 22.0139V22.024H21.9501ZM21.8736 22.0058H21.94C21.932 21.9454 21.93 21.877 21.93 21.8105V20.8865C21.93 20.6429 22.0327 20.6207 22.1192 20.6207H22.1414V20.5764C22.0608 20.5764 21.9803 20.5845 21.8998 20.5845C21.8072 20.5845 21.7166 20.5764 21.624 20.5764V20.6207H21.6602C21.7226 20.6207 21.8454 20.6489 21.8454 20.82V21.5871L21.8394 21.5911L21.8333 21.5971L20.9294 20.5764C20.869 20.5764 20.8106 20.5845 20.7482 20.5845C20.6737 20.5845 20.5972 20.5764 20.5227 20.5764V20.6207H20.5408C20.6375 20.6207 20.7341 20.6932 20.7341 20.812V21.6676C20.7341 21.8307 20.6878 21.9334 20.5428 21.9354H20.5227V21.9776C20.6113 21.9776 20.7019 21.9696 20.7905 21.9696C20.875 21.9696 20.9596 21.9776 21.0441 21.9776V21.9354H21.018C20.8589 21.9354 20.8187 21.8649 20.8187 21.6877V20.8281L21.8736 22.0078V22.0058Z" fill="#231F20"/>
<path d="M22.4756 21.6938C22.4555 21.7622 22.4313 21.8166 22.4313 21.8528C22.4313 21.9132 22.5179 21.9233 22.5823 21.9233H22.6044V21.9837C22.5239 21.9797 22.4394 21.9756 22.3588 21.9756C22.2843 21.9756 22.2119 21.9797 22.1394 21.9837V21.9233H22.1515C22.232 21.9233 22.2984 21.877 22.3286 21.7904L22.6548 20.8583C22.6809 20.7838 22.7172 20.6811 22.7293 20.6066C22.7937 20.5845 22.8762 20.5442 22.9145 20.5201C22.9205 20.518 22.9245 20.516 22.9306 20.516C22.9366 20.516 22.9406 20.516 22.9447 20.5221C22.9507 20.5382 22.9568 20.5563 22.9628 20.5724L23.3352 21.6354C23.3594 21.7059 23.3836 21.7824 23.4097 21.8428C23.4339 21.8991 23.4762 21.9233 23.5446 21.9233H23.5567V21.9837C23.4661 21.9797 23.3735 21.9756 23.2769 21.9756C23.1802 21.9756 23.0755 21.9797 22.9729 21.9837V21.9233H22.995C23.0413 21.9233 23.1218 21.9152 23.1218 21.8649C23.1218 21.8387 23.1037 21.7844 23.0816 21.7179L23.0031 21.4824H22.542L22.4756 21.6938ZM22.7715 20.7939H22.7675L22.5783 21.3697H22.9588L22.7715 20.7939Z" fill="#231F20"/>
<path d="M23.5567 21.9918C23.4661 21.9878 23.3735 21.9837 23.2769 21.9837C23.1802 21.9837 23.0755 21.9878 22.9729 21.9918H22.9648V21.9153H22.995C23.0413 21.9153 23.1118 21.9032 23.1138 21.865C23.1138 21.8408 23.0957 21.7864 23.0735 21.722L22.997 21.4925H22.5481L22.4856 21.6979C22.4655 21.7683 22.4414 21.8207 22.4414 21.8529C22.4414 21.9032 22.5179 21.9153 22.5843 21.9153H22.6165V21.9938H22.6064C22.5259 21.9898 22.4414 21.9858 22.3608 21.9858C22.2883 21.9858 22.2159 21.9898 22.1414 21.9938H22.1333V21.9173H22.1535C22.23 21.9173 22.2924 21.873 22.3226 21.7905L22.6467 20.8583C22.6729 20.7838 22.7091 20.6812 22.7272 20.6006C22.7917 20.5785 22.8722 20.5382 22.9125 20.5141C22.9185 20.5141 22.9245 20.51 22.9326 20.51C22.9386 20.51 22.9487 20.51 22.9547 20.5221C22.9608 20.5382 22.9668 20.5563 22.9729 20.5724L23.3473 21.6354C23.3715 21.7059 23.3956 21.7804 23.4218 21.8408C23.446 21.8952 23.4822 21.9153 23.5466 21.9173H23.5668V21.9958H23.5587L23.5567 21.9918ZM22.9809 21.9737C23.0816 21.9696 23.1802 21.9656 23.2769 21.9656C23.3735 21.9656 23.4601 21.9696 23.5486 21.9737V21.9314H23.5446C23.4762 21.9314 23.4279 21.9032 23.4017 21.8448C23.3735 21.7824 23.3513 21.7079 23.3272 21.6375L22.9547 20.5745C22.9487 20.5584 22.9427 20.5402 22.9366 20.5261C22.9366 20.5261 22.9353 20.5255 22.9326 20.5241H22.9286C22.9286 20.5241 22.9225 20.5241 22.9165 20.5261C22.8762 20.5503 22.7957 20.5926 22.7353 20.6067C22.7232 20.6832 22.687 20.7858 22.6608 20.8603L22.3347 21.7925C22.3045 21.8811 22.234 21.9314 22.1494 21.9314H22.1454V21.9737C22.2159 21.9696 22.2863 21.9656 22.3568 21.9656C22.4353 21.9656 22.5158 21.9696 22.5944 21.9737V21.9314H22.5803C22.5138 21.9314 22.4212 21.9233 22.4192 21.8509C22.4192 21.8106 22.4454 21.7583 22.4655 21.6898L22.532 21.4724H23.0051L23.0856 21.714C23.1077 21.7784 23.1259 21.8327 23.1259 21.8629C23.1238 21.9254 23.0373 21.9294 22.991 21.9314H22.9769V21.9737H22.9809ZM22.5662 21.3757L22.7615 20.7838H22.7776L22.9688 21.3757H22.5642H22.5662ZM22.5903 21.3576H22.9467L22.7695 20.814L22.5903 21.3576Z" fill="#231F20"/>
<path d="M24.0701 21.7844C24.0701 21.865 24.1264 21.8891 24.1909 21.8992C24.2734 21.9052 24.366 21.9052 24.4586 21.8952C24.5432 21.8851 24.6177 21.8368 24.6539 21.7844C24.6861 21.7401 24.7042 21.6838 24.7163 21.6375H24.7747C24.7526 21.7542 24.7244 21.867 24.6982 21.9837C24.519 21.9837 24.3398 21.9757 24.1627 21.9757C23.9855 21.9757 23.8043 21.9837 23.6271 21.9837V21.9233H23.6553C23.7298 21.9233 23.8083 21.9133 23.8083 21.7885V20.7456C23.8083 20.6389 23.7298 20.6308 23.6553 20.6308H23.6271V20.5684C23.7338 20.5684 23.8406 20.5765 23.9473 20.5765C24.054 20.5765 24.1526 20.5684 24.2573 20.5684V20.6308H24.207C24.1305 20.6308 24.0701 20.6308 24.0701 20.7416V21.7885V21.7844Z" fill="#231F20"/>
<path d="M24.7002 21.9918C24.521 21.9918 24.3418 21.9837 24.1647 21.9837C23.9875 21.9837 23.8063 21.9918 23.6271 21.9918H23.6191V21.9133H23.6553C23.7298 21.9133 23.7983 21.9052 23.8003 21.7844V20.7416C23.8003 20.6429 23.7298 20.6369 23.6553 20.6349H23.6191V20.5563H23.6271C23.7359 20.5563 23.8405 20.5644 23.9472 20.5644C24.0539 20.5644 24.1526 20.5563 24.2573 20.5563H24.2653V20.6349H24.207C24.1284 20.6369 24.0781 20.6349 24.0781 20.7355V21.7824C24.0781 21.8589 24.1284 21.879 24.1929 21.8871C24.2291 21.8891 24.2653 21.8911 24.3056 21.8911C24.3559 21.8911 24.4063 21.8891 24.4606 21.8831C24.5432 21.873 24.6136 21.8267 24.6499 21.7764C24.6821 21.7321 24.6982 21.6777 24.7103 21.6334V21.6274H24.7888V21.6395C24.7646 21.7562 24.7364 21.869 24.7123 21.9857V21.9918H24.7002ZM24.6942 21.9737C24.7183 21.8629 24.7445 21.7562 24.7646 21.6455H24.7223C24.7103 21.6898 24.6922 21.7442 24.6599 21.7884C24.6217 21.8408 24.5472 21.8911 24.4586 21.9012C24.4063 21.9072 24.3519 21.9092 24.3036 21.9092C24.2633 21.9092 24.2251 21.9092 24.1888 21.9052C24.1224 21.8972 24.058 21.869 24.06 21.7824V20.7355C24.06 20.6228 24.1305 20.6167 24.207 20.6167H24.2492V20.5724C24.1486 20.5724 24.0499 20.5805 23.9493 20.5805C23.8486 20.5805 23.7399 20.5724 23.6372 20.5724V20.6167H23.6573C23.7298 20.6167 23.8184 20.6288 23.8184 20.7416V21.7844C23.8184 21.9153 23.7298 21.9294 23.6573 21.9294H23.6372V21.9717C23.8124 21.9717 23.9875 21.9636 24.1647 21.9636C24.3418 21.9636 24.517 21.9717 24.6942 21.9717" fill="#231F20"/>
<path d="M24.7505 20.508C24.8734 20.508 24.9639 20.6026 24.9639 20.7214C24.9639 20.8402 24.8734 20.9348 24.7505 20.9348C24.6277 20.9348 24.5371 20.8422 24.5371 20.7214C24.5371 20.6006 24.6297 20.508 24.7505 20.508ZM24.7505 20.8965C24.8472 20.8965 24.9197 20.816 24.9197 20.7234C24.9197 20.6308 24.8472 20.5482 24.7505 20.5482C24.6539 20.5482 24.5814 20.6308 24.5814 20.7234C24.5814 20.816 24.6539 20.8965 24.7505 20.8965ZM24.6438 20.8361V20.8261C24.67 20.822 24.674 20.8241 24.674 20.8059V20.6489C24.674 20.6268 24.672 20.6187 24.6438 20.6207V20.6086H24.7546C24.7908 20.6086 24.827 20.6268 24.827 20.665C24.827 20.6972 24.8069 20.7194 24.7767 20.7294L24.8109 20.7777C24.827 20.7999 24.8472 20.82 24.8593 20.8281V20.8341H24.817C24.7968 20.8341 24.7787 20.7918 24.7405 20.7355H24.7163V20.8059C24.7163 20.82 24.7203 20.82 24.7465 20.822V20.8321H24.6438V20.8361ZM24.7405 20.7234C24.7687 20.7234 24.7807 20.7033 24.7807 20.669C24.7807 20.6348 24.7606 20.6227 24.7385 20.6227H24.7143V20.7234H24.7405Z" fill="#231F20"/>
<path d="M12.0732 13.3432C12.0732 11.4427 13.6133 9.90456 15.5118 9.90456C17.4103 9.90456 18.9504 11.4447 18.9504 13.3432C18.9504 15.2417 17.4103 16.7818 15.5118 16.7818C13.6133 16.7818 12.0732 15.2417 12.0732 13.3432Z" fill="white"/>
<path d="M15.5178 16.8441C13.5468 16.8541 11.9241 15.2556 11.9241 13.3128C11.9241 11.1888 13.5468 9.71915 15.5178 9.71915H16.4418C18.3887 9.71915 20.1664 11.1868 20.1664 13.3128C20.1664 15.2556 18.3887 16.8441 16.4418 16.8441H15.5178ZM15.5258 10.0131C13.724 10.0131 12.2643 11.4727 12.2643 13.2746C12.2643 15.0764 13.724 16.536 15.5258 16.536C17.3277 16.536 18.7873 15.0764 18.7873 13.2746C18.7873 11.4727 17.3277 10.0131 15.5258 10.0131ZM14.7849 15.2033V11.3459C14.0098 11.6438 13.4602 12.3948 13.4582 13.2746C13.4602 14.1544 14.0098 14.9053 14.7849 15.2033ZM17.5934 13.2746C17.5934 12.3928 17.0418 11.6418 16.2647 11.3459V15.2053C17.0398 14.9073 17.5914 14.1564 17.5934 13.2766" fill="#0B4F94"/>
<path d="M26.943 23.5137H5.05696C4.47311 23.5137 4 23.0386 4 22.4568V9.54377C4 8.96194 4.47311 8.48682 5.05696 8.48682H26.943C27.5269 8.48682 28 8.96194 28 9.54377V22.4568C28 23.0386 27.5269 23.5137 26.943 23.5137ZM5.05696 8.7888C4.64021 8.7888 4.30199 9.12703 4.30199 9.54377V22.4568C4.30199 22.8735 4.64021 23.2118 5.05696 23.2118H26.943C27.3598 23.2118 27.698 22.8735 27.698 22.4568V9.54377C27.698 9.12703 27.3598 8.7888 26.943 8.7888H5.05696Z" fill="#134B96"/>
</svg>
