<svg width="24" height="24" viewBox="0 0 24 24" fill="none" xmlns="http://www.w3.org/2000/svg">
<path d="M17.7883 23.3647C17.7883 23.9296 18.565 24 18.9885 24H19.3417C20.4006 23.9303 20.4005 23.5061 20.4005 23.3647V0.635319C20.4702 0.0696622 19.6942 0 19.2003 0H18.9913C18.565 0 17.7883 0.0696622 17.7883 0.635319V23.3647Z" fill="#E1091D"/>
<path d="M3.60014 23.3647C3.60014 23.9296 4.37688 24 4.80042 24H5.15364C6.21249 23.9303 6.21248 23.5061 6.21248 23.3647V0.635319C6.21248 0.0696622 5.50611 0 5.0122 0H4.80322C4.30585 0 3.60014 0.0696622 3.60014 0.635319V23.3647Z" fill="#E1091D"/>
<path d="M8.32948 23.3647C8.32948 23.9296 9.10625 24 9.52981 24H9.95333C11.0122 23.9303 11.0122 23.5061 11.0122 23.3647V0.635319C11.0122 0.0696622 10.2355 0 9.81195 0H9.52981C9.10625 0 8.32948 0.0696622 8.32948 0.635319V23.3647Z" fill="#E1091D"/>
<path d="M13.0589 23.3647C13.0589 23.9296 13.8356 24 14.2591 24H14.6123C15.6712 23.9303 15.6712 23.5061 15.6712 23.3647V0.635319C15.6712 0.0696622 14.8945 0 14.4709 0H14.2619C13.8356 0 13.0589 0.0696622 13.0589 0.635319V23.3647Z" fill="#E1091D"/>
<path d="M0.635313 10.659C0.069672 10.659 0 11.4357 0 11.8593V12.2828C0.069671 13.3417 0.493908 13.3417 0.635313 13.3417H23.3647C23.9296 13.3417 24 12.565 24 12.1414V11.8593C24 11.4357 23.9303 10.659 23.3647 10.659H0.635313Z" fill="#E1091D"/>
</svg>
