<svg width="32" height="32" viewBox="0 0 32 32" fill="none" xmlns="http://www.w3.org/2000/svg">
<path d="M12.6964 4H11.6233C11.5407 4 11.4664 4.03302 11.4128 4.0875C11.3591 4.14198 11.3253 4.21628 11.3253 4.298V10.9754C11.3253 11.0579 11.3583 11.1322 11.4128 11.1859C11.4673 11.2395 11.5415 11.2734 11.6233 11.2734H12.6964C12.779 11.2734 12.8532 11.2404 12.9069 11.1859C12.9606 11.1314 12.9944 11.0571 12.9944 10.9754V4.298C12.9944 4.21545 12.9614 4.14116 12.9069 4.0875C12.8524 4.03384 12.7781 4 12.6964 4Z" fill="black"/>
<path d="M7.21187 9.60424V4.298C7.21187 4.21628 7.17885 4.14116 7.12519 4.0875C7.07153 4.03384 6.99641 4 6.91387 4H5.84073C5.75818 4 5.68389 4.03302 5.63023 4.0875C5.57658 4.14198 5.54273 4.21628 5.54273 4.298V10.9754C5.54273 11.0579 5.57575 11.1322 5.63023 11.1859C5.68471 11.2395 5.75901 11.2734 5.84073 11.2734H10.1036C10.1861 11.2734 10.2604 11.2404 10.314 11.1859C10.3677 11.1314 10.4016 11.0571 10.4016 10.9754V9.90224C10.4016 9.81969 10.3685 9.74539 10.314 9.69174C10.2596 9.63808 10.1853 9.60424 10.1036 9.60424H7.21187Z" fill="black"/>
<path d="M26.0511 5.66914C26.1337 5.66914 26.208 5.63612 26.2616 5.58163C26.3153 5.52715 26.3491 5.45286 26.3491 5.37114V4.298C26.3491 4.21545 26.3161 4.14116 26.2616 4.0875C26.2072 4.03384 26.1329 4 26.0511 4H21.7883C21.7058 4 21.6315 4.03302 21.5778 4.0875C21.5242 4.14198 21.4903 4.21628 21.4903 4.298V10.9754C21.4903 11.0579 21.5233 11.1322 21.5778 11.1859C21.6323 11.2395 21.7066 11.2734 21.7883 11.2734H26.0511C26.1337 11.2734 26.208 11.2404 26.2616 11.1859C26.3153 11.1314 26.3491 11.0571 26.3491 10.9754V9.90224C26.3491 9.81969 26.3161 9.74539 26.2616 9.69174C26.2072 9.63808 26.1329 9.60424 26.0511 9.60424H23.1595V8.47167H26.0511C26.1337 8.47167 26.208 8.43865 26.2616 8.38417C26.3153 8.32968 26.3491 8.25539 26.3491 8.17367V7.10053C26.3491 7.01798 26.3161 6.94369 26.2616 6.89003C26.2072 6.83638 26.1329 6.80253 26.0511 6.80253H23.1595V5.66996H26.0511V5.66914Z" fill="black"/>
<path d="M18.9866 4C18.9041 4 18.8298 4.03302 18.7761 4.0875C18.7225 4.14198 18.6886 4.21628 18.6886 4.298V8.16128L15.8803 4.14611C15.8589 4.11557 15.8349 4.09163 15.8093 4.07182C15.7367 4.01734 15.6475 4 15.5501 4H14.4258C14.3433 4 14.269 4.03302 14.2153 4.0875C14.1616 4.14198 14.1278 4.21628 14.1278 4.298V10.9754C14.1278 11.0579 14.1608 11.1322 14.2153 11.1859C14.2698 11.2395 14.3441 11.2734 14.4258 11.2734H15.4989C15.5815 11.2734 15.6558 11.2404 15.7094 11.1867C15.7631 11.133 15.7969 11.0579 15.7969 10.9754V6.94039L18.7249 11.1273C18.7357 11.1421 18.7472 11.1562 18.7596 11.1685C18.81 11.228 18.8933 11.2742 18.966 11.2742H20.0606C20.1431 11.2742 20.2174 11.2412 20.2711 11.1867C20.3247 11.1322 20.3586 11.0579 20.3586 10.9762V4.298C20.3586 4.21545 20.3256 4.14116 20.2711 4.0875C20.2166 4.03384 20.1423 4 20.0606 4H18.9866Z" fill="black"/>
<path d="M26.4558 28H5.54418C5.31417 28 5.10555 27.9067 4.95399 27.7563C4.80243 27.6059 4.70734 27.395 4.70734 27.1632V14.6164C4.70734 14.3852 4.80124 14.176 4.95221 14.0244C5.10317 13.8729 5.31298 13.7796 5.54418 13.7796H26.4558C26.6859 13.7796 26.8939 13.8723 27.0448 14.022C27.1958 14.1718 27.2927 14.384 27.2927 14.6164V27.1632C27.2927 27.3944 27.1988 27.6036 27.0478 27.7551C26.8968 27.9067 26.687 28 26.4558 28Z" fill="#08BF5B"/>
<path d="M12.8505 19.3742C12.8505 20.6188 11.8491 21.6202 10.5581 21.6202H9.57567V23.4586C9.57567 23.5192 9.5507 23.5745 9.51088 23.6143C9.47106 23.6541 9.41579 23.6791 9.35516 23.6791H8.299C8.23838 23.6791 8.1831 23.6541 8.14328 23.6143C8.10346 23.5745 8.0785 23.5192 8.0785 23.4586V17.3486C8.0785 17.288 8.10346 17.2327 8.14328 17.1929C8.1831 17.1531 8.23838 17.1281 8.299 17.1281H10.5581C11.8497 17.1281 12.8505 18.1296 12.8505 19.3742ZM11.3528 19.3742C11.3528 18.8969 11.0158 18.532 10.5575 18.532H9.57507V20.2164H10.5575C11.0164 20.2164 11.3528 19.8514 11.3528 19.3742Z" fill="white"/>
<path d="M18.4095 23.5632C18.4095 23.5953 18.3964 23.6244 18.3756 23.6452C18.3548 23.666 18.3257 23.6791 18.2936 23.6791H17.1221C17.09 23.6791 17.0609 23.666 17.0401 23.6452C17.0193 23.6244 17.0062 23.5953 17.0062 23.5632V23.2392C16.6972 23.5947 16.2389 23.8098 15.6119 23.8098C14.3858 23.8098 13.3754 22.7335 13.3754 21.3391C13.3754 19.9448 14.3858 18.8684 15.6119 18.8684C16.2389 18.8684 16.6972 19.0835 17.0062 19.439V19.115C17.0062 19.0829 17.0193 19.0538 17.0401 19.033C17.0609 19.0122 17.09 18.9991 17.1221 18.9991H18.2936C18.3257 18.9991 18.3548 19.0122 18.3756 19.033C18.3964 19.0538 18.4095 19.0829 18.4095 19.115V23.5632ZM17.0062 21.3397C17.0062 20.6378 16.5385 20.198 15.8924 20.198C15.2464 20.198 14.7786 20.6378 14.7786 21.3397C14.7786 22.0416 15.2464 22.4814 15.8924 22.4814C16.5385 22.4814 17.0062 22.0416 17.0062 21.3397Z" fill="white"/>
<path d="M23.0811 19.1222L22.0041 21.836L20.8903 19.1204C20.8832 19.1026 20.8731 19.0859 20.8612 19.0717C20.825 19.0271 20.7703 19.0003 20.7114 19.0003H19.5168C19.4841 19.0003 19.4556 19.0134 19.4348 19.0342C19.4033 19.0657 19.3908 19.1144 19.4098 19.1602L21.2683 23.691L20.5914 25.3967C20.5735 25.4425 20.586 25.4901 20.6169 25.5216C20.6377 25.5424 20.6663 25.5554 20.6989 25.5554H21.8942C21.9673 25.5554 22.0333 25.5144 22.066 25.4508C22.0689 25.4455 22.0713 25.4395 22.0737 25.4336L24.5646 19.159C24.583 19.1133 24.57 19.0651 24.5391 19.0342C24.5183 19.0134 24.4897 19.0003 24.457 19.0003H23.2618C23.203 19.0003 23.1483 19.0271 23.112 19.0717C23.0995 19.0865 23.0894 19.1038 23.0823 19.1228L23.0811 19.1222Z" fill="white"/>
</svg>
