<svg width="32" height="32" viewBox="0 0 32 32" fill="none" xmlns="http://www.w3.org/2000/svg">
<path d="M23.2 28H8.8C6.1488 28 4 25.8512 4 23.2V8.8C4 6.1488 6.1488 4 8.8 4H23.2C25.8512 4 28 6.1488 28 8.8V23.2C28 25.8512 25.8512 28 23.2 28Z" fill="#4D2F85"/>
<path fill-rule="evenodd" clip-rule="evenodd" d="M18.1432 23.8174V19.9646C18.1672 19.9638 18.188 19.9614 18.2088 19.9614C18.704 19.9614 19.1992 19.955 19.6944 19.963C20.0352 19.9686 20.3472 20.0686 20.5928 20.3206C20.9016 20.6374 20.9184 21.1302 20.6296 21.455C20.5336 21.5638 20.412 21.635 20.2784 21.6886C20.2544 21.6982 20.2352 21.7174 20.2136 21.7326C20.2368 21.7446 20.2592 21.7598 20.284 21.7678C20.5824 21.8526 20.8232 22.0134 20.9648 22.2974C21.184 22.735 21.0936 23.459 20.3856 23.715C20.1808 23.7886 19.9696 23.8198 19.7528 23.8198C19.232 23.8198 18.7104 23.8198 18.1896 23.8198C18.1752 23.8198 18.16 23.8182 18.1416 23.8166M18.8872 23.2358C19.1496 23.2358 19.4056 23.239 19.6608 23.2342C19.7944 23.2318 19.9248 23.2006 20.044 23.1366C20.3288 22.9846 20.3928 22.5686 20.1664 22.3398C20.0504 22.223 19.904 22.163 19.7448 22.155C19.468 22.1422 19.1904 22.1446 18.9128 22.1414C18.9048 22.1414 18.8968 22.1454 18.8872 22.1478V23.235V23.2358ZM18.8888 20.5318V21.5638C19.0816 21.5638 19.2704 21.5662 19.4592 21.5622C19.532 21.5606 19.6056 21.5518 19.676 21.535C19.9384 21.4734 20.0888 21.2758 20.0792 21.0118C20.0704 20.7694 19.9104 20.5814 19.6544 20.5558C19.4032 20.531 19.148 20.5382 18.8888 20.531" fill="white"/>
<path fill-rule="evenodd" clip-rule="evenodd" d="M11.1711 22.9272C11.3663 23.0168 11.5487 23.1152 11.7407 23.1864C12.0287 23.2928 12.3287 23.3344 12.6327 23.2544C12.7767 23.216 12.8999 23.1448 12.9639 23.0008C13.0407 22.8272 12.9863 22.6312 12.8287 22.504C12.6855 22.3888 12.5151 22.3272 12.3495 22.2568C12.1127 22.156 11.8743 22.0576 11.6431 21.9448C11.4703 21.8608 11.3191 21.74 11.1999 21.5864C10.8167 21.096 10.9759 20.3944 11.5351 20.1008C11.7983 19.9624 12.0823 19.9136 12.3751 19.9104C12.7655 19.9056 13.1399 19.976 13.4935 20.1472C13.5447 20.172 13.5503 20.1968 13.5319 20.2456C13.4767 20.392 13.4263 20.5408 13.3735 20.688C13.3663 20.708 13.3575 20.7264 13.3487 20.7464C13.2527 20.704 13.1623 20.6592 13.0687 20.6232C12.7575 20.5032 12.4375 20.46 12.1079 20.5256C12.0599 20.5352 12.0127 20.552 11.9679 20.572C11.7079 20.6904 11.6527 20.9808 11.8479 21.1896C11.9759 21.3264 12.1383 21.4096 12.3055 21.4856C12.5535 21.5984 12.8047 21.7048 13.0511 21.8216C13.2351 21.9088 13.4007 22.0232 13.5351 22.18C13.8463 22.5424 13.8079 23.26 13.3239 23.5936C13.1231 23.732 12.8991 23.8104 12.6607 23.844C12.0687 23.928 11.5111 23.8216 10.9847 23.5376C10.9303 23.508 10.9239 23.4832 10.9495 23.4296C11.0287 23.26 11.1007 23.088 11.1719 22.9272" fill="white"/>
<path fill-rule="evenodd" clip-rule="evenodd" d="M17.2662 22.9426C17.3542 23.133 17.4382 23.3162 17.5294 23.5146C17.3742 23.5826 17.2238 23.6562 17.0686 23.7146C16.7654 23.8282 16.4502 23.8842 16.127 23.8698C15.379 23.8378 14.7814 23.5402 14.4158 22.8602C14.2294 22.5138 14.1758 22.137 14.1974 21.7482C14.2262 21.229 14.4094 20.777 14.7942 20.4178C15.091 20.141 15.4486 19.989 15.8486 19.9338C16.4238 19.8546 16.959 19.9778 17.463 20.2538C17.4742 20.2602 17.4854 20.2674 17.5014 20.2778C17.4158 20.4626 17.331 20.6466 17.2478 20.8282C17.119 20.7714 16.9974 20.7082 16.8694 20.6626C16.5558 20.5514 16.2342 20.513 15.9062 20.589C15.495 20.6842 15.207 20.9266 15.067 21.3234C14.9142 21.7562 14.9198 22.1914 15.1254 22.6082C15.3014 22.965 15.6046 23.1586 15.9918 23.2162C16.4294 23.2818 16.8366 23.1794 17.2206 22.9698C17.2334 22.9634 17.2462 22.9546 17.2662 22.9434" fill="white"/>
<mask id="mask0_1044_4052" style="mask-type:luminance" maskUnits="userSpaceOnUse" x="16" y="8" width="5" height="10">
<path d="M16.0015 9.47418C17.7559 10.4934 18.9023 12.1638 19.2391 13.6798C20.2543 18.2494 16.3687 16.2094 16.3687 16.2094V17.999H18.3615C18.3615 17.999 20.2095 17.1742 20.4535 17.0654C20.6975 16.9566 21.0215 16.591 20.9079 16.1118C20.8439 15.859 19.7439 11.4542 19.7439 11.4542C19.7095 11.3182 19.6023 11.2142 19.6023 11.2142L16.0015 8.03418V9.47498V9.47418Z" fill="white"/>
</mask>
<g mask="url(#mask0_1044_4052)">
<path d="M18.5113 5.52265L10.8932 13.1407L18.5113 20.7588L26.1294 13.1407L18.5113 5.52265Z" fill="url(#paint0_linear_1044_4052)"/>
</g>
<mask id="mask1_1044_4052" style="mask-type:luminance" maskUnits="userSpaceOnUse" x="11" y="8" width="6" height="10">
<path d="M12.4022 11.2143C12.4022 11.2143 12.2958 11.3175 12.2598 11.4535C12.2598 11.4535 11.159 15.8583 11.099 16.1111C10.983 16.5919 11.307 16.9559 11.5518 17.0647C11.795 17.1751 13.6438 17.9983 13.6438 17.9983H15.6366V16.2087C15.6366 16.2087 11.7502 18.2487 12.7662 13.6791C13.103 12.1631 14.2486 10.4927 16.0022 9.47272V8.03271L12.403 11.2143H12.4022Z" fill="white"/>
</mask>
<g mask="url(#mask1_1044_4052)">
<path d="M13.4923 5.52366L5.87479 13.1412L13.4923 20.7587L21.1098 13.1412L13.4923 5.52366Z" fill="url(#paint1_linear_1044_4052)"/>
</g>
<mask id="mask2_1044_4052" style="mask-type:luminance" maskUnits="userSpaceOnUse" x="11" y="8" width="6" height="10">
<path d="M12.4022 11.2143C12.4022 11.2143 12.2958 11.3175 12.2598 11.4535C12.2598 11.4535 11.159 15.8583 11.099 16.1111C10.983 16.5919 11.307 16.9559 11.5518 17.0647C11.795 17.1735 13.6438 17.9983 13.6438 17.9983H15.6366V16.2087C15.6366 16.2087 11.7502 18.2487 12.7662 13.6791C13.103 12.1631 14.2486 10.4927 16.0022 9.47272V8.03271L12.403 11.2143H12.4022Z" fill="white"/>
</mask>
<g mask="url(#mask2_1044_4052)">
<path d="M11.7105 6.26635L7.38614 16.7685L15.274 20.0164L19.5984 9.51428L11.7105 6.26635Z" fill="url(#paint2_linear_1044_4052)"/>
</g>
<path d="M22.8854 22.5672V22.0088C22.8854 21.9432 22.8326 21.8896 22.7662 21.8896C22.6998 21.8896 22.647 21.9432 22.647 22.0088V22.5672L22.7662 22.6864L22.8854 22.5672Z" fill="white"/>
<path d="M22.647 23.1431V23.7015C22.647 23.7671 22.7006 23.8207 22.7662 23.8207C22.8318 23.8207 22.8854 23.7671 22.8854 23.7015V23.1431L22.7662 23.0239L22.647 23.1431Z" fill="white"/>
<path d="M22.4786 22.7358H21.921C21.8546 22.7358 21.8018 22.7894 21.8018 22.855C21.8018 22.9206 21.8546 22.9742 21.921 22.9742H22.4786L22.5978 22.855L22.4786 22.7358Z" fill="white"/>
<path d="M23.6127 22.7358H23.0543L22.9351 22.855L23.0543 22.9742H23.6127C23.6791 22.9742 23.7319 22.9206 23.7319 22.855C23.7319 22.7894 23.6783 22.7358 23.6127 22.7358Z" fill="white"/>
<path d="M22.6474 22.5674L22.253 22.173C22.2066 22.1266 22.1314 22.1266 22.0842 22.173C22.037 22.2194 22.037 22.2954 22.0842 22.341L22.4786 22.7362H22.6474V22.5674Z" fill="#FAAE1C"/>
<path d="M22.8857 23.1434L23.2801 23.5386C23.3041 23.5618 23.3337 23.5738 23.3649 23.5738C23.3961 23.5738 23.4257 23.5618 23.4489 23.5386C23.4953 23.4914 23.4953 23.4162 23.4489 23.3698L23.0545 22.9746H22.8857V23.1434Z" fill="#FAAE1C"/>
<path d="M22.4786 22.9746L22.0842 23.3698C22.037 23.4162 22.037 23.4914 22.0842 23.5386C22.1074 23.5618 22.1378 23.5738 22.1682 23.5738C22.1986 23.5738 22.2298 23.5618 22.253 23.5386L22.6474 23.1442V22.9754H22.4786V22.9746Z" fill="#FAAE1C"/>
<path d="M23.0545 22.7362L23.4489 22.341C23.4953 22.2946 23.4953 22.2194 23.4489 22.173C23.4025 22.1266 23.3265 22.1266 23.2801 22.173L22.8857 22.5674V22.7362H23.0545Z" fill="#FAAE1C"/>
<path d="M23.0545 22.7362H22.8857V22.5674L22.7665 22.6866L22.6473 22.5674V22.7362H22.4785L22.5985 22.8554L22.4785 22.9746H22.6473V23.1434L22.7665 23.0242L22.8857 23.1434V22.9746H23.0545L22.9353 22.8554L23.0545 22.7362Z" fill="#B4218D"/>
<defs>
<linearGradient id="paint0_linear_1044_4052" x1="20.4026" y1="15.143" x2="17.9634" y2="12.7037" gradientUnits="userSpaceOnUse">
<stop stop-color="#E3A025"/>
<stop offset="0.4" stop-color="#ECB11A"/>
<stop offset="1" stop-color="#FED307"/>
</linearGradient>
<linearGradient id="paint1_linear_1044_4052" x1="13.8144" y1="12.6" x2="16.6083" y2="9.80603" gradientUnits="userSpaceOnUse">
<stop stop-color="#FAAE1C"/>
<stop offset="0.45" stop-color="#F2A61F"/>
<stop offset="1" stop-color="#E29726"/>
</linearGradient>
<linearGradient id="paint2_linear_1044_4052" x1="13.2233" y1="12.8468" x2="11.7386" y2="12.2355" gradientUnits="userSpaceOnUse">
<stop stop-color="#FAAD1C"/>
<stop offset="0.29" stop-color="#EEA31F"/>
<stop offset="1" stop-color="#D79028"/>
</linearGradient>
</defs>
</svg>
