<svg width="32" height="32" viewBox="0 0 32 32" fill="none" xmlns="http://www.w3.org/2000/svg">
<path d="M17.4185 24.8806V26.5713H16.3464V26.3775C16.3464 24.8971 16.3464 23.4146 16.3464 21.9342C16.3464 21.6331 16.4206 21.5569 16.7175 21.561C17.3134 21.5672 17.9113 21.563 18.5072 21.596C18.7464 21.6105 18.9917 21.6847 19.2144 21.7795C20.3979 22.2806 20.3134 23.7672 19.5381 24.394C19.1134 24.7383 18.6206 24.8703 18.0866 24.8764C17.8722 24.8806 17.6557 24.8764 17.4165 24.8764L17.4185 24.8806ZM17.4289 24.3734C17.6763 24.3734 17.9155 24.3775 18.1526 24.3734C18.6454 24.363 19.1216 23.9239 19.2247 23.394C19.3278 22.8641 19.0845 22.3878 18.6 22.1713C18.2185 22.0022 17.8227 22.0929 17.4289 22.0682V24.3754V24.3734Z" fill="#3F3939"/>
<path d="M5.07217 24.8806V26.5755H4C4 26.5115 4 26.4497 4 26.3878C4 24.9012 4 23.4126 4 21.926C4 21.6373 4.07629 21.559 4.36289 21.5631C4.96495 21.5713 5.56907 21.5631 6.16908 21.6002C6.41237 21.6146 6.66392 21.6971 6.89073 21.7961C8.02475 22.2847 7.97114 23.728 7.22475 24.3693C6.79794 24.7342 6.29691 24.8724 5.74846 24.8827C5.53196 24.8868 5.31547 24.8827 5.06804 24.8827L5.07217 24.8806ZM5.08041 24.3734C5.32784 24.3734 5.5567 24.3755 5.78351 24.3734C6.31753 24.3652 6.80413 23.9012 6.88866 23.3301C6.96908 22.7775 6.67217 22.2641 6.12578 22.1322C5.79382 22.0517 5.43712 22.0724 5.08041 22.0476V24.3755V24.3734Z" fill="#3F3939"/>
<path d="M10.1732 26.4042C9.75881 26.6496 9.33406 26.7218 8.8887 26.6001C8.32169 26.4455 7.99385 25.963 8.01241 25.3362C8.03097 24.7011 8.40829 24.2042 9.02685 24.1011C9.34231 24.0475 9.67633 24.1011 10.0021 24.1094C10.0578 24.1094 10.1155 24.1259 10.2021 24.1383C10.1918 23.9651 10.2 23.8063 10.1712 23.6558C10.1217 23.3877 9.93819 23.2475 9.67633 23.2022C9.27427 23.13 8.88458 23.1981 8.48251 23.3032C8.45365 23.2166 8.42272 23.1321 8.37736 22.9939C8.7052 22.9403 9.01035 22.8764 9.31963 22.8434C9.75468 22.7981 10.1856 22.8352 10.5959 23.0042C11.0578 23.1939 11.2701 23.5094 11.2701 24.0084C11.2701 24.8104 11.2701 25.6125 11.2701 26.4146C11.2701 26.4661 11.264 26.5176 11.2619 26.5774H10.2268C10.2124 26.528 10.198 26.4743 10.1774 26.4042H10.1732ZM10.198 25.3094C10.198 25.128 10.2083 24.9444 10.1918 24.7651C10.1856 24.7032 10.1238 24.6104 10.066 24.5919C9.72788 24.4785 9.40623 24.5135 9.12375 24.7465C8.79386 25.0207 8.74849 25.5341 9.01654 25.8908C9.25984 26.2146 9.71551 26.2908 10.0537 26.0743C10.1588 26.0063 10.2062 25.928 10.198 25.8022C10.1877 25.6393 10.1959 25.4743 10.1959 25.3094H10.198Z" fill="#3F3939"/>
<path d="M23.6124 26.5816H22.5733C22.5588 26.528 22.5444 26.4744 22.5258 26.4043C22.2351 26.5734 21.932 26.662 21.6021 26.6559C20.8331 26.6414 20.3073 26.0724 20.3609 25.3074C20.4124 24.5548 20.9403 24.0559 21.697 24.0579C21.9691 24.0579 22.2413 24.0971 22.5155 24.1177C22.6557 23.5672 22.3898 23.1899 21.8145 23.1796C21.4908 23.1734 21.1671 23.2332 20.8124 23.2641C20.7959 23.2167 20.7671 23.1321 20.7258 23.0105C20.932 22.9631 21.1258 22.9074 21.3238 22.8765C21.8619 22.7961 22.398 22.7899 22.9155 22.994C23.398 23.1837 23.6104 23.4992 23.6104 24.0187C23.6104 24.8084 23.6104 25.6002 23.6104 26.3899C23.6104 26.4476 23.6104 26.5053 23.6104 26.5816H23.6124ZM22.5485 25.3198C22.5485 25.1321 22.5568 24.9445 22.5423 24.759C22.5382 24.7012 22.4805 24.6146 22.4289 24.5961C22.0661 24.4703 21.7238 24.5115 21.4351 24.7796C21.13 25.0641 21.1094 25.5754 21.3836 25.9136C21.631 26.2187 22.0825 26.2847 22.4104 26.0682C22.5073 26.0043 22.5588 25.9321 22.5527 25.8105C22.5423 25.6476 22.5506 25.4827 22.5506 25.3198H22.5485Z" fill="#3F3939"/>
<path d="M12.1753 27.8991V27.328C12.2825 27.328 12.3814 27.328 12.4784 27.328C12.7485 27.328 12.9588 27.2146 13.0887 26.9816C13.1959 26.7878 13.2804 26.5816 13.3588 26.3733C13.3773 26.3218 13.3443 26.2393 13.3155 26.1816C12.7856 25.1321 12.2536 24.0826 11.7237 23.0331C11.6928 22.9713 11.666 22.9094 11.6247 22.8249C11.9835 22.8249 12.3217 22.8208 12.6598 22.8311C12.7072 22.8311 12.7691 22.9032 12.7959 22.9568C13.134 23.6249 13.468 24.295 13.8021 24.9651C13.8289 25.0166 13.8557 25.0682 13.8969 25.1465C13.934 25.0723 13.9629 25.0187 13.9876 24.963C14.2804 24.2991 14.5773 23.6373 14.8639 22.9713C14.9134 22.8558 14.9732 22.8125 15.0969 22.8208C15.2701 22.8311 15.4454 22.8228 15.6412 22.8228C15.6124 22.8971 15.5938 22.9507 15.5711 23.0022C14.9876 24.3239 14.4041 25.6455 13.8227 26.9672C13.5031 27.6929 13.033 27.9465 12.1711 27.8929L12.1753 27.8991Z" fill="#3F3939"/>
<path d="M28 22.827C27.8536 23.1569 27.7216 23.462 27.5876 23.7651C27.1134 24.8393 26.6371 25.9136 26.1629 26.9898C25.8536 27.695 25.367 27.9569 24.5155 27.8971C24.5155 27.7383 24.5072 27.5754 24.5216 27.4146C24.5237 27.3837 24.6103 27.3362 24.6577 27.3342C25.2392 27.3074 25.6433 26.9383 25.7155 26.3507C25.7216 26.295 25.6845 26.229 25.6557 26.1734C25.1258 25.1239 24.5938 24.0764 24.0639 23.027C24.035 22.9713 24.0082 22.9136 23.967 22.829C24.334 22.829 24.6825 22.8249 25.0289 22.8352C25.0701 22.8352 25.1196 22.9136 25.1443 22.9651C25.4783 23.629 25.8103 24.2929 26.1423 24.9569C26.1711 25.0125 26.2 25.0661 26.2433 25.1486C26.2804 25.0744 26.3072 25.0249 26.3299 24.9734C26.6268 24.3053 26.9237 23.6373 27.2144 22.9672C27.2619 22.8599 27.3175 22.8166 27.4351 22.8249C27.6103 22.8352 27.7856 22.827 27.9979 22.827H28Z" fill="#3F3939"/>
<path d="M12.2672 19.2539C12.486 18.3398 12.6993 17.4675 12.9033 16.5926C12.9536 16.3781 13.1116 16.406 13.2639 16.3905C14.7506 16.2605 16.2261 16.069 17.6463 15.5822C18.4055 15.3216 19.1318 14.9877 19.7331 14.448C20.7553 13.5302 21.3218 12.411 21.0961 11.0026C20.9717 10.2148 20.5197 9.59113 19.952 9.05514C18.9347 8.09384 17.6923 7.53609 16.3797 7.12072C14.6424 6.57106 12.8516 6.32171 11.0372 6.2415C10.2202 6.20544 9.40128 6.20979 8.58362 6.19487C8.52144 6.19487 8.46361 6.18367 8.40579 6.17808C8.39273 5.19066 9.29931 4.22874 10.3172 4.13858C10.4925 4.12303 10.6691 4.12179 10.8451 4.12179C14.2942 4.12179 17.7471 4.14853 21.1931 4.10749C22.6481 4.0907 23.6604 5.19315 23.6448 6.55364C23.6063 9.99219 23.6324 13.4314 23.6318 16.8705C23.6318 18.3075 22.6991 19.2514 21.2689 19.2526C18.3896 19.2564 15.5098 19.2564 12.6297 19.2526L12.2672 19.2539Z" fill="#FE0134"/>
<path d="M8.37842 8.89844C9.24894 8.68267 12.8697 8.64537 13.895 8.84869C13.8005 9.24789 13.7085 9.64708 13.6109 10.0444C12.8715 13.0123 12.1266 15.9789 11.3954 18.9486C11.3376 19.1855 11.248 19.2856 11.0055 19.2551C10.6281 19.2085 10.2314 19.2309 9.87385 19.122C9.4433 18.9909 9.06541 18.7266 8.79448 18.3672C8.52356 18.0078 8.37354 17.5717 8.36599 17.1217C8.34671 14.4094 8.35853 11.6965 8.35915 8.98362C8.36233 8.95459 8.36879 8.92601 8.37842 8.89844Z" fill="#FE0134"/>
<path d="M13.4088 14.5388C13.8664 12.6466 14.3141 10.7955 14.7674 8.92393C15.8089 9.06134 16.8193 9.24042 17.7719 9.6079C18.4037 9.85165 19.0448 10.1221 19.6037 10.4971C20.9095 11.3719 20.8616 12.508 19.5273 13.3337C18.5498 13.9381 17.4554 14.2185 16.335 14.3696C15.5167 14.4803 14.6866 14.5021 13.8614 14.5562C13.7104 14.5582 13.5593 14.5523 13.4088 14.5388Z" fill="#FE0134"/>
</svg>
