<svg width="32" height="32" viewBox="0 0 32 32" fill="none" xmlns="http://www.w3.org/2000/svg">
<path d="M24.2319 4H7.75796V20.4739H24.2319V4Z" fill="#780400"/>
<path d="M11.0262 24.4847C10.8228 24.2446 10.5275 24.1083 10.1473 24.1083C9.37369 24.1083 8.8028 24.7312 8.8028 25.5872C8.8028 26.4432 9.37305 27.0661 10.1144 27.0661C10.5275 27.0661 10.862 26.8842 11.0718 26.5731L11.9246 27.2023C11.5375 27.7472 10.8817 28 10.2455 28C8.79647 28 7.74023 27.0591 7.74023 25.5872C7.74023 24.1153 8.79647 23.1744 10.2455 23.1744C10.7638 23.1744 11.4196 23.3493 11.8131 23.8492L11.0262 24.4847Z" fill="#780400"/>
<path d="M12.4683 23.2917H13.4915V27.8841H12.4683V23.2917Z" fill="#780400"/>
<path d="M15.9702 23.2917L17.0392 26.2887H17.0525L18.1283 23.2917H19.6693V27.8841H18.646V24.3619H18.6327L17.413 27.8841H16.6324L15.4583 24.3619H15.445V27.8841H14.4217V23.2917H15.9702Z" fill="#780400"/>
<path d="M20.614 23.2917H22.345C23.1586 23.2917 24.0437 23.4603 24.0437 24.4595C24.0437 24.9721 23.7225 25.3224 23.2435 25.4713V25.484C23.853 25.562 24.2598 26.0093 24.2598 26.6061C24.2598 27.5661 23.3417 27.8841 22.5155 27.8841H20.614V23.2917ZM21.6373 25.1273H22.3786C22.6935 25.1273 23.0211 24.9974 23.0211 24.628C23.0211 24.2586 22.6536 24.1477 22.3324 24.1477H21.6373V25.1273ZM21.6373 27.0281H22.5554C22.8766 27.0281 23.2372 26.8919 23.2372 26.4896C23.2372 26.0549 22.7455 25.9833 22.4109 25.9833H21.6373V27.0281Z" fill="#780400"/>
<path fill-rule="evenodd" clip-rule="evenodd" d="M22.4857 12.211L18.6314 7.14335H9.97183L13.8331 12.211" fill="white"/>
<path fill-rule="evenodd" clip-rule="evenodd" d="M22.4901 12.2122L18.6358 17.2799H9.97561L13.8375 12.2122" fill="#DC2320"/>
</svg>
