<svg width="24" height="24" viewBox="0 0 24 24" fill="none" xmlns="http://www.w3.org/2000/svg">
<path d="M4.76191 15.6181C3.39048 15.6181 2.28572 14.5134 2.28572 13.142V10.761H4.66667V8.47528H2.28572V6.09433H0V8.47528V10.761V13.142C0 15.7705 2.13334 17.9039 4.76191 17.9039C6.20953 17.9039 7.50477 17.2562 8.38096 16.2277C7.6762 15.3896 7.2381 14.3229 7.2381 13.142C7.2381 14.4943 6.11429 15.6181 4.76191 15.6181Z" fill="#0F50EC"/>
<path d="M14.4762 13.142C14.4762 14.5134 13.3714 15.6181 12 15.6181C10.6286 15.6181 9.52381 14.5134 9.52381 13.142V10.761H11.9048V8.47528H9.52381V6.09433H7.2381V8.47528V10.761V13.142C7.2381 14.3229 7.67619 15.4086 8.38096 16.2277C9.25715 17.2562 10.5524 17.9039 12 17.9039C13.4476 17.9039 14.7429 17.2562 15.6191 16.2277C14.8952 15.3896 14.4762 14.3229 14.4762 13.142Z" fill="#F48A31"/>
<path d="M19.2381 8.38005C18.3238 8.38005 17.4857 8.62766 16.7619 9.06576V6.09433H14.4762V13.142C14.4762 14.3229 14.9143 15.4086 15.6191 16.2277C16.4952 17.2562 17.7905 17.9039 19.2381 17.9039C21.8667 17.9039 24 15.7705 24 13.142C24 10.5134 21.8667 8.38005 19.2381 8.38005ZM19.2381 15.6181C17.8667 15.6181 16.7619 14.5134 16.7619 13.142C16.7619 11.7705 17.8667 10.6658 19.2381 10.6658C20.6095 10.6658 21.7143 11.7705 21.7143 13.142C21.7143 14.5134 20.5905 15.6181 19.2381 15.6181Z" fill="#022D61"/>
</svg>
