<svg width="32" height="32" viewBox="0 0 32 32" fill="none" xmlns="http://www.w3.org/2000/svg">
<path d="M23 4H9C6.23858 4 4 6.23858 4 9V23C4 25.7614 6.23858 28 9 28H23C25.7614 28 28 25.7614 28 23V9C28 6.23858 25.7614 4 23 4Z" fill="#007CFF"/>
<path d="M16.5245 11.1954C16.8407 11.3771 17.1683 11.3112 17.3403 11.0318C17.5123 10.7524 17.4168 10.429 17.1015 10.2392C16.598 9.93616 16.0498 9.80259 15.4631 9.8047C13.5876 9.81189 12.1449 11.5352 12.4712 13.3824C12.8778 15.6836 15.4897 16.7421 17.364 15.3535C18.1777 14.7507 18.5818 13.9163 18.5999 12.9052C18.6063 12.559 18.3683 12.335 18.0221 12.3341C17.3782 12.3341 16.7343 12.3341 16.0904 12.3341C15.9664 12.3305 15.8449 12.3691 15.7459 12.4437C15.6469 12.5183 15.5762 12.6244 15.5455 12.7446C15.4491 13.1039 15.7104 13.4361 16.095 13.4382C16.5177 13.4382 16.9442 13.4382 17.4007 13.4382C17.3788 13.5139 17.3682 13.5604 17.3517 13.6044C16.9713 14.5969 15.8266 15.1096 14.832 14.733C13.8205 14.3504 13.2955 13.2172 13.6653 12.2162C14.0973 11.05 15.4373 10.5702 16.5245 11.1954Z" fill="white"/>
<path d="M17.8137 15.8717C16.9725 16.4914 16.0383 16.7345 15.001 16.5988C13.3407 16.3811 11.9639 14.9651 11.8143 13.2954C11.7052 12.0767 12.0738 11.0196 12.9699 10.175C13.8411 9.35455 14.8852 9.0371 16.0713 9.1897C16.7054 9.27128 17.2726 9.52152 17.79 9.89645C17.8934 9.97167 18.013 10.0215 18.1392 10.0419C18.3907 10.0765 18.6291 9.91505 18.7153 9.68003C18.81 9.42303 18.7271 9.16391 18.487 8.98807C17.3732 8.17099 16.1334 7.85523 14.7652 8.06109C12.1275 8.45716 10.2845 10.9921 10.6975 13.6352C11.0746 16.0599 13.1885 17.8149 15.5345 17.8077C15.8469 17.7718 16.1622 17.7523 16.4712 17.6974C17.2236 17.5634 17.8995 17.2489 18.5082 16.7882C18.6773 16.6584 18.7749 16.488 18.7512 16.2708C18.7005 15.7999 18.2005 15.5864 17.8137 15.8717Z" fill="#002CB8"/>
<path d="M19.2119 10.5694C19.144 10.5997 19.0827 10.643 19.0315 10.6969C18.9803 10.7508 18.9403 10.8143 18.9136 10.8837C18.887 10.9531 18.8743 11.027 18.8762 11.1013C18.8781 11.1757 18.8947 11.2489 18.9249 11.3168C19.3713 12.3203 19.3713 13.388 18.9249 14.4845C18.8936 14.5539 18.8766 14.6289 18.875 14.705C18.8733 14.7811 18.887 14.8567 18.9153 14.9274C18.9436 14.9981 18.9858 15.0624 19.0395 15.1163C19.0931 15.1703 19.1571 15.2129 19.2276 15.2416C19.2982 15.2703 19.3737 15.2844 19.4499 15.2832C19.526 15.282 19.6011 15.2654 19.6706 15.2345C19.7402 15.2036 19.8028 15.159 19.8547 15.1034C19.9067 15.0477 19.9468 14.9821 19.9728 14.9106C20.5312 13.536 20.5257 12.1343 19.958 10.8569C19.897 10.72 19.7842 10.6129 19.6444 10.5591C19.5045 10.5052 19.349 10.5089 19.2119 10.5694Z" fill="#6FBAF7"/>
<path d="M21.4837 9.86218C21.4485 9.79668 21.4008 9.73874 21.3433 9.69167C21.2858 9.6446 21.2195 9.60933 21.1484 9.58786C21.0772 9.56639 21.0025 9.55914 20.9286 9.56654C20.8546 9.57394 20.7828 9.59583 20.7173 9.63097C20.6518 9.6661 20.5939 9.7138 20.5468 9.77133C20.4997 9.82886 20.4645 9.8951 20.443 9.96626C20.4215 10.0374 20.4143 10.1121 20.4217 10.1861C20.4291 10.26 20.451 10.3318 20.4861 10.3973C21.2444 11.8113 21.2402 13.8212 20.4755 15.3936C20.41 15.5287 20.4008 15.6842 20.45 15.826C20.4991 15.9678 20.6026 16.0843 20.7376 16.1499C20.8144 16.1875 20.8989 16.207 20.9845 16.2069C21.0907 16.207 21.1949 16.1772 21.285 16.1208C21.375 16.0644 21.4474 15.9838 21.4938 15.8882C22.4246 13.9729 22.4195 11.6075 21.4837 9.86218Z" fill="#6FBAF7"/>
<path d="M10.4444 22.2266H10.0073C9.79975 22.2266 9.59263 22.2266 9.38508 22.2266C9.17754 22.2266 9.12132 22.1742 9.11751 21.9688C9.11075 21.5663 9.12047 21.557 9.525 21.557C9.96714 21.557 10.4093 21.557 10.8514 21.557C11.0966 21.557 11.1659 21.6416 11.1693 21.8825C11.1769 22.4595 11.029 22.9849 10.5961 23.3789C9.93924 23.9774 9.16274 24.1427 8.33087 23.8291C7.52393 23.5251 7.06911 22.9093 7.00697 22.0436C6.94356 21.1559 7.31343 20.4711 8.09035 20.0336C8.9218 19.5653 10.058 19.7627 10.6688 20.4639C10.7198 20.5194 10.7673 20.5778 10.8113 20.6389C10.8221 20.6549 10.8296 20.6728 10.8334 20.6917C10.8372 20.7106 10.837 20.7301 10.8331 20.7489C10.8292 20.7678 10.8214 20.7857 10.8104 20.8015C10.7994 20.8173 10.7853 20.8307 10.769 20.841C10.6604 20.9095 10.5048 20.9974 10.3979 21.0604C10.2909 21.1233 10.2077 21.054 10.1316 20.9661C9.46201 20.1955 8.16771 20.4208 7.8249 21.3778C7.5941 22.0203 7.78516 22.7305 8.42936 23.0885C9.04988 23.4334 9.83484 23.2669 10.247 22.6996C10.34 22.5724 10.392 22.4523 10.4444 22.2266Z" fill="white"/>
<path d="M18.4047 23.5091C18.2106 23.7086 18.0204 23.8439 17.7892 23.9225C17.2541 24.1043 16.5883 23.8997 16.221 23.4499C15.6842 22.7918 15.7032 21.7405 16.2633 21.1077C16.639 20.685 17.3319 20.516 17.856 20.7273C18.0779 20.8087 18.2604 20.9714 18.3666 21.1826C18.3797 21.1965 18.3962 21.2595 18.4089 21.2561C18.4089 21.1686 18.411 20.9966 18.4089 20.9091C18.4047 20.7611 18.4664 20.6829 18.6224 20.6893C18.7314 20.6935 18.8409 20.6943 18.9495 20.6893C19.1064 20.6817 19.1609 20.7569 19.1609 20.907C19.1583 21.8454 19.1583 22.7838 19.1609 23.7221C19.1609 23.8756 19.0928 23.9428 18.9432 23.9394C18.8506 23.9394 18.7576 23.9394 18.6651 23.9394C18.4588 23.9394 18.414 23.8938 18.4089 23.693C18.411 23.6465 18.4064 23.54 18.4047 23.5091ZM18.4144 22.304C18.4137 22.2442 18.4098 22.1845 18.4026 22.1252C18.34 21.7388 18.1426 21.4552 17.7588 21.3373C17.4029 21.2278 17.0896 21.3178 16.8415 21.5972C16.5194 21.9595 16.511 22.5652 16.8149 22.9774C16.8833 23.0711 16.97 23.1499 17.0698 23.2092C17.1696 23.2684 17.2804 23.3067 17.3955 23.3218C17.5105 23.337 17.6274 23.3286 17.7391 23.2972C17.8509 23.2658 17.955 23.2121 18.0454 23.1392C18.3079 22.9279 18.4089 22.6472 18.4144 22.304Z" fill="white"/>
<path d="M13.8636 19.7872C14.3928 19.7927 14.9529 20.0354 15.3705 20.5739C15.4973 20.7366 15.4817 20.8098 15.3029 20.912C15.1803 20.9809 15.0315 21.1154 14.9094 21.1078C14.805 21.1018 14.7259 20.9306 14.6262 20.8453C14.1819 20.4648 13.6459 20.4226 13.1573 20.6305C12.6589 20.8419 12.404 21.2511 12.3825 21.7862C12.3529 22.5094 12.7325 23.0598 13.3631 23.2044C13.9126 23.3312 14.4063 23.2276 14.7682 22.7521C14.8422 22.6548 14.9242 22.6384 15.0239 22.6891C15.1304 22.7436 15.2353 22.8053 15.3376 22.8654C15.4644 22.9376 15.4825 23.031 15.3959 23.1498C15.1098 23.5486 14.6847 23.8257 14.2043 23.9263C13.1378 24.1698 12.0536 23.5806 11.7404 22.564C11.3012 21.1365 12.2582 19.7893 13.8636 19.7872Z" fill="white"/>
<path d="M23.6504 21.0067C23.7189 20.9644 23.7632 20.9361 23.8072 20.9074C24.2637 20.6085 24.9375 20.617 25.3678 20.9302C25.512 21.0313 25.6308 21.1644 25.715 21.319C25.7992 21.4737 25.8464 21.6457 25.8531 21.8217C25.8827 22.4642 25.8734 23.1084 25.878 23.7517C25.878 23.868 25.8155 23.9377 25.6958 23.9381C25.1121 23.9381 25.1336 23.9981 25.1383 23.4368C25.1417 23.0276 25.1417 22.619 25.1383 22.211C25.138 22.0971 25.1245 21.9836 25.0981 21.8728C25.006 21.5004 24.7435 21.2929 24.3855 21.2967C24.0359 21.3005 23.7611 21.5237 23.6796 21.8884C23.6528 22.022 23.6399 22.158 23.6411 22.2942C23.6369 22.7689 23.6411 23.2436 23.6411 23.7183C23.6411 23.8971 23.5988 23.9419 23.42 23.9428C22.8549 23.9462 22.9009 23.98 22.9018 23.4381C22.9018 22.2545 22.9018 21.0709 22.9018 19.8874C22.9018 19.6418 22.9297 19.6139 23.1723 19.6135C23.6821 19.6135 23.6419 19.5712 23.6415 20.0784C23.6415 20.3295 23.6415 20.5802 23.6415 20.8313C23.6394 20.8769 23.6453 20.9281 23.6504 21.0067Z" fill="white"/>
<path d="M20.3842 22.8671C20.4527 22.8903 20.4734 22.9414 20.5047 22.9994C20.6488 23.354 21.1628 23.4221 21.457 23.2407C21.6181 23.1253 21.6307 22.9275 21.4655 22.818C21.3435 22.7467 21.2132 22.6909 21.0774 22.6519C20.8399 22.572 20.5913 22.5217 20.3588 22.4266C19.7649 22.1823 19.5646 21.5706 19.9146 21.0976C20.1234 20.8157 20.4066 20.6796 20.741 20.6398C21.0635 20.6022 21.4025 20.6086 21.7018 20.7603C21.8405 20.8261 21.9629 20.922 22.06 21.0411C22.1571 21.1601 22.2265 21.2993 22.2631 21.4485C22.3117 21.6488 22.2792 21.741 22.0763 21.7444H21.7614C21.5838 21.7444 21.5547 21.7173 21.4731 21.5271C21.3539 21.2498 20.8039 21.194 20.5816 21.4003C20.4747 21.4996 20.5241 21.7148 20.6543 21.7959C20.7968 21.8783 20.9506 21.9394 21.1108 21.9773C21.328 22.0289 21.5402 22.0996 21.7449 22.1886C22.0856 22.3306 22.332 22.6244 22.3366 23.0032C22.34 23.3933 22.1156 23.696 21.7711 23.8486C21.2106 24.0971 20.6086 24.0333 20.1403 23.7048C19.9467 23.5767 19.806 23.3829 19.7442 23.1591C19.6825 22.9478 19.7299 22.8603 19.9509 22.859C19.9987 22.8603 20.3254 22.8472 20.3842 22.8671Z" fill="white"/>
</svg>
