<svg width="32" height="32" viewBox="0 0 32 32" fill="none" xmlns="http://www.w3.org/2000/svg">
<path d="M23 4H9C6.23858 4 4 6.23858 4 9V23C4 25.7614 6.23858 28 9 28H23C25.7614 28 28 25.7614 28 23V9C28 6.23858 25.7614 4 23 4Z" fill="#705F5F"/>
<path fill-rule="evenodd" clip-rule="evenodd" d="M12.0639 14.1654C12.0639 15.6723 10.316 17.8911 8.49567 18.737L8.47887 18.7306C8.83375 19.708 9.37479 20.5964 10.0516 21.3603L10.0574 21.3565C11.495 20.6129 12.6418 19.1828 13.5286 17.4923C12.7529 16.6497 12.0639 14.9478 12.0639 14.1654Z" fill="#FEDA00"/>
<path fill-rule="evenodd" clip-rule="evenodd" d="M16.0005 14.1654C15.9533 16.4268 14.2054 20.9634 12.1149 22.9949C13.2642 23.6337 14.5887 23.9995 16.0005 24.0001C17.411 23.9995 18.7342 23.6337 19.8841 22.9949C17.7936 20.9634 16.0464 16.4268 16.0005 14.1654Z" fill="#FEDA00"/>
<path fill-rule="evenodd" clip-rule="evenodd" d="M19.9358 14.1654C19.9358 15.6723 21.6831 17.8911 23.504 18.737L23.5215 18.7306C23.1672 19.708 22.6249 20.5964 21.9488 21.3603L21.9416 21.3565C20.5047 20.6129 19.3579 19.1828 18.4711 17.4923C19.2474 16.6497 19.9358 14.9478 19.9358 14.1654Z" fill="#FEDA00"/>
<path fill-rule="evenodd" clip-rule="evenodd" d="M14.3004 15.8038C15.2428 13.4479 15.7638 10.8443 15.9377 9.01222C15.9461 8.91887 15.9765 8.32067 15.9765 7.99998C14.579 8.00697 13.2629 8.3683 12.0864 9.02111C12.0993 9.45737 12.1349 9.83648 12.1549 9.99905C12.3818 11.866 13.0489 15.0018 14.3004 15.8038Z" fill="#FEDA00"/>
<path fill-rule="evenodd" clip-rule="evenodd" d="M11.9981 9.99704C12.0123 9.85797 12.0304 9.47949 12.0414 9.0464C9.63026 10.4263 8.00001 13.0223 8.00001 15.9987C8.00001 16.2591 8.02198 16.7258 8.04525 16.9811C10.6949 15.8761 11.7014 12.9232 11.9981 9.99704Z" fill="#FEDA00"/>
<path fill-rule="evenodd" clip-rule="evenodd" d="M17.6993 15.8038C16.7575 13.4479 16.2352 10.8443 16.0626 9.01222C16.0529 8.91887 16.0225 8.32067 16.0225 7.99998C17.4201 8.00697 18.7375 8.3683 19.9133 9.02111C19.9004 9.45737 19.8654 9.83648 19.8448 9.99905C19.6179 11.866 18.9508 15.0018 17.6993 15.8038Z" fill="#FEDA00"/>
<path fill-rule="evenodd" clip-rule="evenodd" d="M20.0025 9.99704C19.9889 9.85797 19.9695 9.47949 19.9605 9.0464C22.3703 10.4263 23.9999 13.0223 23.9999 15.9987C23.9999 16.2591 23.9792 16.7258 23.956 16.9811C21.3057 15.8761 20.2992 12.9232 20.0025 9.99704Z" fill="#FEDA00"/>
</svg>
