<svg width="32" height="32" viewBox="0 0 32 32" fill="none" xmlns="http://www.w3.org/2000/svg">
<path d="M23 4H9C6.23858 4 4 6.23858 4 9V23C4 25.7614 6.23858 28 9 28H23C25.7614 28 28 25.7614 28 23V9C28 6.23858 25.7614 4 23 4Z" fill="#108DE8"/>
<path fill-rule="evenodd" clip-rule="evenodd" d="M23.9701 16.7295C24.1947 14.2548 23.1166 12.0195 21.9566 10.7169C20.8124 9.43011 19.0998 8.2356 16.5813 8.02316C15.4042 7.93219 14.2218 8.10998 13.1235 8.54308C12.0315 8.97355 10.8761 9.74877 10.1354 10.606C9.64995 11.165 9.24743 11.6784 8.90082 12.3866C7.87588 14.4905 7.68953 16.8171 8.52811 19.0375C8.93156 20.1127 9.34992 20.7202 10.0385 21.5607C10.5836 22.2269 11.5069 22.9331 12.2868 23.3459C13.2943 23.8837 14.4065 24.1963 15.5465 24.2623C16.6866 24.3282 17.8274 24.1459 18.8902 23.7279C19.9477 23.3086 20.6605 22.7887 21.3677 22.17C21.5463 22.0096 21.7149 21.8384 21.8727 21.6576C23.1232 20.2217 23.7866 18.7691 23.972 16.7295H23.9701ZM11.3821 13.7553C11.7231 13.7395 12.4247 14.838 14.7756 14.0917C15.3123 13.9212 15.8191 13.7087 16.3344 13.5168C17.486 13.0863 18.5706 12.6512 19.7819 13.1236C20.0298 13.2187 20.2634 13.3476 20.4761 13.5066C20.7258 13.7171 20.6624 13.979 20.6624 14.3796V17.5904C20.6624 17.7768 20.7025 18.4812 20.6102 18.5986C20.5124 18.607 20.1276 18.3703 19.8946 18.2753C19.0188 17.9203 18.06 18.0461 17.2056 18.2874C15.6216 18.7365 13.8624 19.7596 12.1629 19.1362C11.192 18.7794 11.3243 18.6172 11.3243 17.8849V14.7318C11.3243 14.4793 11.2777 13.9296 11.3793 13.7553H11.3821Z" fill="white"/>
</svg>
