<svg width="32" height="32" viewBox="0 0 32 32" fill="none" xmlns="http://www.w3.org/2000/svg">
<path d="M7.09383 8.5542H4.09796C4.07227 8.5542 4.04763 8.5644 4.02947 8.58257C4.0113 8.60073 4.0011 8.62537 4.0011 8.65106V14.7203C4.0011 14.746 4.0113 14.7706 4.02947 14.7888C4.04763 14.8069 4.07227 14.8172 4.09796 14.8172H5.48365C5.49637 14.8172 5.50897 14.8146 5.52072 14.8098C5.53247 14.8049 5.54315 14.7978 5.55214 14.7888C5.56114 14.7798 5.56827 14.7691 5.57314 14.7574C5.57801 14.7456 5.58051 14.733 5.58051 14.7203V12.7523C5.58051 12.7266 5.59072 12.702 5.60888 12.6838C5.62705 12.6656 5.65169 12.6554 5.67737 12.6554H7.04483C7.74451 12.6554 8.88976 12.0663 8.88976 10.6202C8.88976 9.17411 7.88923 8.5542 7.09383 8.5542ZM6.58559 11.3666H5.58393V9.82479H6.56964C6.67045 9.82261 6.77063 9.84126 6.8639 9.87958C6.95717 9.91789 7.04153 9.97504 7.1117 10.0475C7.18187 10.1199 7.23634 10.206 7.27169 10.3004C7.30705 10.3949 7.32254 10.4956 7.31718 10.5963C7.32088 10.795 7.24621 10.9873 7.10931 11.1314C6.97241 11.2756 6.78428 11.36 6.58559 11.3666Z" fill="#8E267B"/>
<path d="M12.2754 8.5542H10.9079C10.8885 8.55439 10.8696 8.56033 10.8535 8.57129C10.8375 8.58225 10.8251 8.59771 10.8179 8.61573L8.46016 14.6861C8.45465 14.7007 8.45276 14.7164 8.45463 14.7319C8.45651 14.7474 8.46211 14.7623 8.47095 14.7751C8.4798 14.788 8.49162 14.7986 8.50541 14.8059C8.51921 14.8132 8.53457 14.8171 8.55019 14.8172H9.9655C9.98482 14.8172 10.0037 14.8115 10.0198 14.8007C10.0358 14.79 10.0483 14.7747 10.0555 14.7568L10.4282 13.8155H12.7506L13.1232 14.7568C13.1305 14.7747 13.1429 14.79 13.159 14.8007C13.175 14.8115 13.1939 14.8172 13.2132 14.8172H14.6285C14.6441 14.8171 14.6595 14.8132 14.6733 14.8059C14.6871 14.7986 14.6989 14.788 14.7078 14.7751C14.7166 14.7623 14.7222 14.7474 14.7241 14.7319C14.726 14.7164 14.7241 14.7007 14.7186 14.6861L12.3608 8.61573C12.3539 8.59841 12.3422 8.58341 12.3271 8.57251C12.3119 8.56161 12.294 8.55526 12.2754 8.5542ZM10.8623 12.4697L11.562 10.4983L12.2617 12.4697H10.8623Z" fill="#8E267B"/>
<path d="M17.4136 14.7203V12.2418L19.4648 8.70006C19.4734 8.68529 19.478 8.66849 19.4781 8.65136C19.4781 8.63424 19.4736 8.61741 19.4651 8.60258C19.4565 8.58776 19.4441 8.57547 19.4293 8.56697C19.4144 8.55847 19.3976 8.55407 19.3804 8.5542H17.7452C17.7269 8.55423 17.709 8.55937 17.6935 8.56904C17.678 8.5787 17.6655 8.59251 17.6574 8.6089L16.5863 10.8105L15.5117 8.6089C15.5036 8.59251 15.4911 8.5787 15.4756 8.56904C15.4601 8.55937 15.4422 8.55423 15.4239 8.5542H13.8024C13.7852 8.55407 13.7684 8.55847 13.7535 8.56697C13.7386 8.57547 13.7263 8.58776 13.7177 8.60258C13.7092 8.61741 13.7047 8.63424 13.7047 8.65136C13.7048 8.66849 13.7094 8.68529 13.718 8.70006L15.7692 12.2418V14.7203C15.7692 14.733 15.7717 14.7456 15.7766 14.7574C15.7815 14.7691 15.7886 14.7798 15.7976 14.7888C15.8066 14.7978 15.8173 14.8049 15.829 14.8098C15.8408 14.8146 15.8534 14.8172 15.8661 14.8172H17.3258C17.3499 14.8149 17.3723 14.8037 17.3885 14.7858C17.4047 14.7678 17.4137 14.7445 17.4136 14.7203Z" fill="#8E267B"/>
<path d="M4.00225 22.2698V16.1744C4.00225 16.1481 4.0127 16.1229 4.03129 16.1043C4.04988 16.0857 4.0751 16.0753 4.10139 16.0753H5.72753C5.7438 16.0754 5.75979 16.0795 5.7741 16.0872C5.78841 16.095 5.80059 16.1061 5.80957 16.1197L8.07385 19.5896V16.171C8.07385 16.1449 8.08414 16.1198 8.10248 16.1013C8.12083 16.0827 8.14576 16.0721 8.17185 16.0718H9.55754C9.57051 16.0718 9.58334 16.0744 9.59531 16.0794C9.60727 16.0844 9.61813 16.0917 9.62724 16.1009C9.63636 16.1102 9.64356 16.1211 9.64841 16.1331C9.65327 16.1451 9.65569 16.158 9.65554 16.171V22.2698C9.65569 22.2827 9.65327 22.2956 9.6484 22.3075C9.64352 22.3195 9.63631 22.3303 9.62718 22.3395C9.61805 22.3486 9.60719 22.3558 9.59523 22.3607C9.58327 22.3656 9.57045 22.368 9.55754 22.3678H8.12627C8.10979 22.368 8.09352 22.364 8.07898 22.3563C8.06444 22.3485 8.05209 22.3372 8.04308 22.3234L5.58394 18.5469V22.2698C5.58394 22.2828 5.58137 22.2956 5.57638 22.3076C5.57138 22.3196 5.56406 22.3304 5.55483 22.3395C5.54561 22.3487 5.53468 22.3558 5.52266 22.3607C5.51063 22.3656 5.49777 22.368 5.4848 22.3678H4.10025C4.07426 22.3678 4.04933 22.3575 4.03095 22.3391C4.01258 22.3208 4.00225 22.2958 4.00225 22.2698Z" fill="#8E267B"/>
<path d="M26.1573 16.1413L24.8468 20.0693L24.2919 18.4078L25.1568 16.2062C25.1626 16.1917 25.1647 16.176 25.163 16.1605C25.1613 16.145 25.1558 16.1301 25.1471 16.1172C25.1383 16.1043 25.1265 16.0937 25.1127 16.0864C25.0989 16.079 25.0835 16.0752 25.0679 16.0752H23.411C23.3908 16.0753 23.3712 16.0818 23.3548 16.0936C23.3385 16.1055 23.3263 16.1221 23.3198 16.1413L22.0071 20.0693L20.6966 16.1413C20.6902 16.1221 20.678 16.1055 20.6616 16.0936C20.6453 16.0818 20.6256 16.0753 20.6054 16.0752H18.9497C18.9341 16.0752 18.9187 16.079 18.9049 16.0864C18.8911 16.0937 18.8793 16.1043 18.8705 16.1172C18.8618 16.1301 18.8563 16.145 18.8546 16.1605C18.8529 16.176 18.855 16.1917 18.8608 16.2062L21.2915 22.3906C21.2987 22.4085 21.3112 22.4238 21.3272 22.4345C21.3433 22.4453 21.3622 22.451 21.3815 22.451H22.635C22.6543 22.451 22.6732 22.4453 22.6892 22.4345C22.7053 22.4238 22.7177 22.4085 22.725 22.3906L23.3369 20.8328C23.3439 20.8147 23.3561 20.7991 23.3721 20.7881C23.3881 20.777 23.407 20.7711 23.4264 20.7711C23.4458 20.7711 23.4647 20.777 23.4807 20.7881C23.4967 20.7991 23.5089 20.8147 23.5159 20.8328L24.1278 22.3906C24.1351 22.4085 24.1475 22.4238 24.1636 22.4345C24.1796 22.4453 24.1985 22.451 24.2178 22.451H25.4713C25.4906 22.451 25.5095 22.4453 25.5256 22.4345C25.5416 22.4238 25.5541 22.4085 25.5613 22.3906L27.992 16.2062C27.9978 16.1917 27.9999 16.176 27.9982 16.1605C27.9965 16.145 27.991 16.1301 27.9822 16.1172C27.9735 16.1043 27.9617 16.0937 27.9479 16.0864C27.9341 16.079 27.9187 16.0752 27.9031 16.0752H26.2485C26.2283 16.0753 26.2087 16.0818 26.1923 16.0936C26.176 16.1055 26.1637 16.1221 26.1573 16.1413Z" fill="#8E267B"/>
<path d="M17.4033 15.5613C17.393 15.5533 17.3812 15.5474 17.3685 15.544C17.3559 15.5406 17.3427 15.5398 17.3297 15.5416C17.3168 15.5434 17.3043 15.5478 17.2931 15.5545C17.2818 15.5612 17.272 15.5701 17.2643 15.5806L16.3401 16.8341L14.6946 19.0848L13.3021 17.5008C13.293 17.4908 13.2819 17.4827 13.2696 17.4773C13.2572 17.4718 13.2438 17.4689 13.2303 17.4689C13.2168 17.4689 13.2034 17.4718 13.191 17.4773C13.1787 17.4827 13.1676 17.4908 13.1585 17.5008L12.2583 18.4705C12.2419 18.4882 12.2329 18.5114 12.2329 18.5355C12.2329 18.5596 12.2419 18.5828 12.2583 18.6004L14.6194 21.2317C14.6284 21.2426 14.6397 21.2515 14.6525 21.2575C14.6653 21.2636 14.6793 21.2668 14.6935 21.2668C14.7077 21.2668 14.7217 21.2636 14.7345 21.2575C14.7473 21.2515 14.7586 21.2426 14.7676 21.2317L17.5275 17.7583C17.734 18.2131 17.8316 18.7098 17.8124 19.209C17.7889 19.8421 17.5797 20.4544 17.2109 20.9695C16.842 21.4847 16.3297 21.8799 15.7379 22.1061C15.146 22.3322 14.5007 22.3793 13.8823 22.2414C13.2639 22.1035 12.6997 21.7867 12.26 21.3306C11.8203 20.8744 11.5245 20.299 11.4094 19.6759C11.2943 19.0529 11.365 18.4098 11.6128 17.8266C11.8605 17.2434 12.2743 16.7461 12.8026 16.3963C13.331 16.0466 13.9505 15.86 14.5841 15.8598C15.0978 15.8668 15.6036 15.9871 16.0655 16.212C16.086 16.2223 16.1096 16.225 16.1319 16.2196C16.1542 16.2141 16.1739 16.2009 16.1874 16.1823L16.8233 15.3026C16.8312 15.2914 16.8366 15.2787 16.8394 15.2653C16.8421 15.2519 16.842 15.238 16.8391 15.2246C16.8362 15.2113 16.8306 15.1986 16.8226 15.1875C16.8145 15.1764 16.8043 15.1671 16.7925 15.1602C15.7926 14.6172 14.6215 14.4817 13.524 14.7821C12.4265 15.0825 11.4876 15.7954 10.9035 16.7719C10.3194 17.7484 10.1353 18.9129 10.3898 20.0219C10.6442 21.131 11.3175 22.0987 12.2688 22.7229C13.2202 23.3471 14.376 23.5795 15.4946 23.3714C16.6133 23.1633 17.6083 22.5309 18.2715 21.6063C18.9348 20.6818 19.215 19.5366 19.0536 18.4103C18.8922 17.2839 18.3018 16.2636 17.4056 15.5624L17.4033 15.5613Z" fill="url(#paint0_linear_1044_4027)"/>
<defs>
<linearGradient id="paint0_linear_1044_4027" x1="10.0759" y1="19.0891" x2="19.0909" y2="19.0891" gradientUnits="userSpaceOnUse">
<stop stop-color="#E13166"/>
<stop offset="0.19" stop-color="#D83068"/>
<stop offset="0.51" stop-color="#C02D6E"/>
<stop offset="0.91" stop-color="#982778"/>
<stop offset="1" stop-color="#8E267B"/>
</linearGradient>
</defs>
</svg>
