<svg width="32" height="32" viewBox="0 0 32 32" fill="none" xmlns="http://www.w3.org/2000/svg">
<path d="M22 6.13086H9.99998V18.1309H22V6.13086Z" fill="white"/>
<path d="M28 12.1309L22 6.13086V18.1309L28 12.1309Z" fill="#DB0011"/>
<path d="M16 12.1309L22 6.13086H9.99998L16 12.1309Z" fill="#DB0011"/>
<path d="M4 12.1309L9.99998 18.1309V6.13086L4 12.1309Z" fill="#DB0011"/>
<path d="M16 12.1309L9.99998 18.1309H22L16 12.1309Z" fill="#DB0011"/>
<path d="M9.26254 23.3501H6.81577V25.7648H5.58821V20.1128H6.81577V22.4273H9.26254V20.1128H10.4901V25.7648H9.26254V23.3501Z" fill="black"/>
<path d="M13.4309 25.8678C12.2117 25.8678 11.211 25.3821 11.1818 24.0307H12.4094C12.4247 24.6319 12.7768 24.9924 13.4504 24.9924C13.9515 24.9924 14.5137 24.7419 14.5137 24.1796C14.5137 23.7426 14.131 23.602 13.4977 23.4224L13.0913 23.3055C12.2006 23.048 11.3168 22.7043 11.3168 21.6869C11.3168 20.4217 12.4887 20 13.5659 20C14.6432 20 15.6147 20.3828 15.6216 21.634H14.3941C14.3467 21.1232 14.0503 20.8323 13.4643 20.8323C13.012 20.8323 12.5569 21.0745 12.5569 21.5741C12.5569 21.9889 12.9327 22.1142 13.7288 22.3647L14.1978 22.5136C15.1665 22.8184 15.7761 23.1552 15.7761 24.0919C15.7817 25.3751 14.5388 25.8678 13.4295 25.8678H13.4309Z" fill="black"/>
<path d="M16.4748 20.1141H18.4428C19.0594 20.1141 19.3099 20.1294 19.5534 20.1851C20.241 20.341 20.7573 20.7864 20.7573 21.5449C20.7573 22.3034 20.2967 22.6472 19.6328 22.8184C20.3997 22.959 20.9619 23.35 20.9619 24.1865C20.9619 25.4683 19.6968 25.7648 18.7031 25.7648H16.4762V20.1141H16.4748ZM18.4428 22.4676C18.9828 22.4676 19.5298 22.3577 19.5298 21.7008C19.5298 21.1148 19.0134 20.959 18.5221 20.959H17.662V22.4676H18.4442H18.4428ZM18.5597 24.9228C19.1303 24.9228 19.6926 24.7892 19.6926 24.1016C19.6926 23.4141 19.2069 23.2735 18.6293 23.2735H17.6606V24.9228H18.5597Z" fill="black"/>
<path d="M24.1477 25.8678C22.3203 25.8678 21.5061 24.7029 21.5061 22.9826C21.5061 21.2624 22.4136 20.0056 24.2118 20.0056C25.3363 20.0056 26.4317 20.5067 26.4609 21.7885H25.1957C25.1331 21.2262 24.7587 20.9284 24.2118 20.9284C23.1095 20.9284 22.774 22.117 22.774 23.023C22.774 23.9291 23.1095 24.9701 24.1797 24.9701C24.7351 24.9701 25.1415 24.6737 25.2278 24.103H26.5012C26.3579 25.3849 25.3266 25.8692 24.1491 25.8692L24.1477 25.8678Z" fill="black"/>
</svg>
