<svg width="32" height="32" viewBox="0 0 32 32" fill="none" xmlns="http://www.w3.org/2000/svg">
<path d="M22.7364 3.99963H9.26275C6.35539 3.99963 3.99961 6.35541 3.99961 9.26276V22.7364C3.99961 25.6437 6.35539 27.9995 9.26275 27.9995H22.7364C25.6437 27.9995 27.9995 25.6437 27.9995 22.7364V9.26276C27.9995 6.35541 25.6437 3.99963 22.7364 3.99963Z" fill="#E30613"/>
<path fill-rule="evenodd" clip-rule="evenodd" d="M24.5679 4.31542C23.9806 4.10279 23.3616 3.99542 22.7364 3.99963H14.3785C14.4417 4.84173 14.5469 5.64173 14.7154 6.44172C15.1996 8.7575 16.1259 10.8628 17.4522 12.8206C18.7785 14.7785 20.4627 16.3996 22.4206 17.6627C24.1048 18.7785 25.9995 19.5996 27.9995 20.0627V9.26276H27.8942C27.0521 8.7154 26.3153 7.99961 25.7469 7.15751C25.1785 6.31541 24.7785 5.3891 24.5679 4.42068V4.31542Z" fill="url(#paint0_linear_1044_4021)"/>
<path fill-rule="evenodd" clip-rule="evenodd" d="M27.8942 23.7469L27.4732 21.8943C26.669 18.8943 25.2816 16.0817 23.389 13.6206C19.5785 8.64171 13.9427 5.38278 7.72591 4.56805L6.98907 4.48384C5.15119 5.36383 3.98698 7.22488 3.99961 9.26276V17.8101C4.67329 17.768 5.32592 17.789 5.9996 17.8732C7.32591 18.0417 8.61012 18.5048 9.78906 19.1364C10.968 19.768 11.9785 20.6943 12.7785 21.768C13.5785 22.8416 14.189 24.0416 14.5469 25.3469C14.7575 26.189 14.8838 27.0943 14.9048 27.9785H22.7364C25.25 27.9742 27.4121 26.1932 27.8942 23.7258V23.7469Z" fill="url(#paint1_radial_1044_4021)"/>
<path d="M24.1258 14.6312C23.9153 18.7364 20.6311 22.0627 16.5048 22.3153C13.6838 22.4837 11.1575 21.2627 9.43117 19.0522C9.41011 19.0101 9.41011 18.989 9.45222 18.989H13.9785C14.6101 18.989 15.3259 18.9048 16.0417 18.7364C17.4522 18.4206 18.568 17.9575 19.4732 16.8838C21.0732 14.9469 20.6311 12.1049 18.6311 10.6522C17.5153 9.85223 16.2311 9.64171 14.7364 10.0207H14.6732C14.6522 10.0207 14.6311 9.9996 14.6311 9.9996L12.1048 7.05225C12.0838 7.03119 12.0838 7.01014 12.1259 6.98909C14.968 5.45226 18.4416 5.7891 20.9679 7.70488C23.1153 9.34697 24.2732 11.9154 24.1258 14.6101V14.6312ZM9.59959 9.1154C10.0206 8.54698 10.568 8.06277 11.1575 7.64172C11.1785 7.62067 11.2206 7.62067 11.2417 7.64172L13.9785 10.3785C13.9996 10.3996 13.9996 10.4417 13.9785 10.4628C13.5575 10.6733 13.1785 11.0101 12.8627 11.368C12.8417 11.4101 12.7996 11.4101 12.7575 11.3891L9.59959 9.28382C9.53643 9.24171 9.53643 9.19961 9.57853 9.1575L9.59959 9.1154ZM8.16801 11.8522C8.33643 11.2206 8.67327 10.5259 9.01012 9.9575C9.03117 9.91539 9.05222 9.91539 9.09433 9.93644L12.3154 11.8312C12.3575 11.8522 12.3575 11.8943 12.3364 11.9364C12.0838 12.3575 11.9154 12.8206 11.8101 13.3048C11.8101 13.347 11.789 13.347 11.7469 13.347L8.21012 11.9575C8.16801 11.9364 8.14696 11.9154 8.16801 11.8733V11.8522ZM13.6417 11.8101C13.9785 11.5364 14.3996 11.3049 14.7996 11.1785H14.8417L14.8838 11.1996L16.5259 12.7996C16.5399 12.8136 16.5469 12.8277 16.5469 12.8417V13.768C16.5469 13.8101 16.5259 13.8312 16.4838 13.8101L13.6206 11.9154C13.5785 11.8943 13.5785 11.8733 13.6206 11.8312L13.6417 11.8101ZM12.589 13.6627C12.589 13.6627 12.568 13.6627 12.568 13.6417V13.6206C12.6733 13.1575 12.8627 12.7154 13.1154 12.3575C13.1154 12.3364 13.1364 12.3364 13.1575 12.3364H13.1996L16.568 14.2312C16.589 14.2312 16.589 14.2522 16.589 14.2733V15.1785L12.568 13.6838L12.589 13.6627ZM12.6733 16.3996C12.5469 15.7259 12.4206 15.0733 12.4627 14.3575C12.4627 14.3154 12.4838 14.2943 12.5259 14.3154L16.5259 15.5785C16.5469 15.5785 16.5469 15.5996 16.568 15.5996C16.589 15.5996 16.589 15.6206 16.589 15.6417V16.6522C16.589 16.6943 16.568 16.7154 16.5469 16.7154H8.33643C8.31538 16.7154 8.29433 16.7154 8.29433 16.6943C8.29433 16.6733 8.27328 16.6733 8.27328 16.6522C7.89433 15.4522 7.78907 14.168 7.97854 12.9259V12.9049C7.97854 12.8838 7.97854 12.9049 7.99959 12.8838C8.02065 12.8627 7.99959 12.8838 8.02065 12.8838H8.0417L11.7048 14.1048C11.7259 14.1048 11.7259 14.1259 11.7469 14.1259C11.768 14.1259 11.768 14.1469 11.768 14.168C11.7975 15.0101 12.0922 15.8206 12.6101 16.4838L12.6312 16.5048H12.6522C12.6522 16.5048 12.6733 16.5048 12.6733 16.4838V16.3996ZM8.46275 17.1785H11.768L12.189 17.5996H15.5996L15.6206 17.6206C15.6417 17.6417 15.6206 17.6417 15.6206 17.6417V17.6627L14.9469 18.4627H9.03117L9.01012 18.4417L8.42064 17.2627V17.2206L8.4417 17.1996C8.46275 17.1785 8.4417 17.1996 8.46275 17.1996V17.1785ZM15.6838 25.4943C15.6838 25.6206 15.6627 25.7048 15.5996 25.8311C15.5364 25.9574 15.4522 25.9995 15.3259 26.0416C15.1996 26.0837 15.0732 26.1258 14.9048 26.1258C14.8206 26.1258 14.7575 26.1258 14.6943 26.1048C14.6311 26.1048 14.568 26.0837 14.4838 26.0627L14.2732 25.9995V25.5785L14.589 25.7048C14.6943 25.7469 14.7996 25.7679 14.9048 25.7679C14.989 25.7679 15.0311 25.7679 15.0732 25.7469C15.1153 25.7258 15.1575 25.7048 15.1785 25.6627C15.1996 25.6206 15.1996 25.5995 15.1996 25.5364C15.1996 25.4943 15.1785 25.4311 15.1364 25.389C15.0943 25.3469 15.0522 25.3258 14.989 25.2837L14.6101 25.0943C14.5469 25.0522 14.5048 25.0101 14.4417 24.9679C14.3785 24.9258 14.3364 24.8627 14.3154 24.7995C14.2732 24.7364 14.2732 24.6522 14.2732 24.5469C14.2732 24.4206 14.2943 24.3364 14.3575 24.2101C14.4206 24.0837 14.5048 24.0416 14.6101 23.9995C14.7154 23.9574 14.8206 23.9364 14.989 23.9364C15.0943 23.9364 15.1996 23.9574 15.3048 23.9785L15.6206 24.0837L15.4732 24.4416L15.1996 24.3574C15.1153 24.3364 15.0522 24.3153 14.989 24.3153C14.9469 24.3153 14.8838 24.3153 14.8417 24.3364C14.7996 24.3574 14.7785 24.3785 14.7575 24.4206C14.7364 24.4627 14.7153 24.4837 14.7364 24.5258C14.7364 24.5679 14.7575 24.6101 14.7785 24.6522C14.7996 24.6943 14.8627 24.7153 14.9048 24.7574L15.1153 24.8627C15.2206 24.9048 15.3259 24.9679 15.389 25.0311C15.4522 25.0943 15.5364 25.1574 15.5996 25.2416C15.6627 25.3258 15.6627 25.41 15.6627 25.5153L15.6838 25.4943ZM16.8838 24.8627H17.7259V25.9785C17.6206 26.0206 17.5153 26.0416 17.368 26.0627C17.2417 26.0837 17.0943 26.1048 16.9469 26.1048C16.7364 26.1048 16.5259 26.0627 16.3996 25.9785C16.2732 25.8943 16.1469 25.7679 16.0627 25.5995C15.9785 25.4311 15.9574 25.2416 15.9574 24.9679C15.9574 24.7574 15.9996 24.5469 16.0838 24.3785C16.168 24.2101 16.2943 24.0837 16.4627 23.9995C16.6311 23.9153 16.8417 23.8732 17.0943 23.8732C17.1995 23.8732 17.3048 23.8943 17.4311 23.9153C17.5574 23.9364 17.6417 23.9785 17.7259 24.0206L17.5785 24.3785C17.5153 24.3364 17.4311 24.3153 17.368 24.2943C17.2838 24.2732 17.1995 24.2522 17.0943 24.2522C16.968 24.2522 16.8417 24.2732 16.7574 24.3364C16.6732 24.3995 16.589 24.4837 16.5469 24.589C16.5048 24.6943 16.4627 24.7995 16.4627 24.9679C16.4627 25.1153 16.4838 25.2416 16.5259 25.3469C16.568 25.4522 16.6311 25.5574 16.7364 25.5995C16.8417 25.6416 16.9469 25.6837 17.0522 25.6837H17.2206L17.3469 25.6627V25.2416H16.9259V24.8627H16.8838Z" fill="white"/>
<defs>
<linearGradient id="paint0_linear_1044_4021" x1="34.1497" y1="59.5579" x2="15.2674" y2="-13.4328" gradientUnits="userSpaceOnUse">
<stop offset="0.7" stop-color="#D10000"/>
<stop offset="0.8" stop-color="#E30613"/>
</linearGradient>
<radialGradient id="paint1_radial_1044_4021" cx="0" cy="0" r="1" gradientTransform="matrix(22.5608 5.41278 5.48213 -22.89 11.143 26.4293)" gradientUnits="userSpaceOnUse">
<stop offset="0.1" stop-color="#FF4854"/>
<stop offset="0.5" stop-color="#E30613"/>
</radialGradient>
</defs>
</svg>
