<svg width="32" height="32" viewBox="0 0 32 32" fill="none" xmlns="http://www.w3.org/2000/svg">
<path d="M12.7306 18.8056C12.5466 18.8987 12.3338 18.9169 12.1366 18.8567C11.9394 18.7964 11.7732 18.6622 11.6727 18.4821L11.62 18.3676L9.43537 13.5739C9.41101 13.5209 9.39801 13.4634 9.3972 13.4051C9.39786 13.3312 9.41892 13.2588 9.45805 13.1961C9.49718 13.1333 9.55287 13.0826 9.61898 13.0494C9.6851 13.0163 9.75908 13.0021 9.83277 13.0083C9.90646 13.0145 9.97702 13.0409 10.0367 13.0846L12.6146 14.9201C12.8087 15.0473 13.0356 15.1152 13.2676 15.1155C13.4076 15.115 13.5465 15.0902 13.678 15.0422L25.8011 9.64622C23.628 7.08437 20.0495 5.41113 15.9992 5.41113C9.37158 5.41113 3.99924 9.88834 3.99924 15.4114C3.99924 18.4253 5.61571 21.1379 8.14541 22.9699C8.24946 23.044 8.33426 23.142 8.39272 23.2556C8.45118 23.3692 8.48161 23.4951 8.48146 23.6229C8.47904 23.7095 8.46485 23.7953 8.43927 23.8781L7.89877 25.8949C7.87365 25.9898 7.83397 26.0883 7.83397 26.1872C7.83397 26.2938 7.87631 26.396 7.95167 26.4714C8.02703 26.5468 8.12925 26.5891 8.23583 26.5891C8.31824 26.5857 8.39814 26.5598 8.4669 26.5143L11.0935 24.9977C11.2857 24.8803 11.5058 24.8164 11.731 24.8129C11.8502 24.8132 11.9687 24.8311 12.0826 24.8661C13.3566 25.231 14.6755 25.4157 16.0007 25.4147C22.6279 25.4147 28.0007 20.937 28.0007 15.4144C28.0007 13.7417 27.5049 12.1659 26.6339 10.78L12.818 18.7549L12.7306 18.8056Z" fill="#39B54A"/>
</svg>
