<svg width="32" height="32" viewBox="0 0 32 32" fill="none" xmlns="http://www.w3.org/2000/svg">
<path d="M23.7812 4H8.21875C5.8888 4 4 5.8888 4 8.21875V23.7812C4 26.1112 5.8888 28 8.21875 28H23.7812C26.1112 28 28 26.1112 28 23.7812V8.21875C28 5.8888 26.1112 4 23.7812 4Z" fill="url(#paint0_linear_1044_3827)"/>
<path fill-rule="evenodd" clip-rule="evenodd" d="M22.3998 16.4266C22.2377 15.8172 22.0052 15.3663 21.6283 14.6772C21.5045 14.4822 21.3456 14.2638 21.2031 14.0322C19.5648 11.6092 16.3305 7.3811 16.0352 7.10829C16.0352 7.10829 16.0155 7.09329 15.9977 7.09329C15.9798 7.09329 15.9597 7.10829 15.9597 7.10829C15.6648 7.38064 12.43 11.6088 10.7917 14.0322C10.6497 14.2638 10.4913 14.4822 10.367 14.6772C9.99016 15.3663 9.75766 15.8172 9.59547 16.4266C9.39438 17.3059 9.38547 18.4 9.56782 19.2986C9.73282 20.0889 10.4847 20.8942 11.2417 21.4966L12.3991 22.413C12.3991 22.413 15.6339 24.7394 15.9348 24.887C15.9348 24.887 15.9644 24.9058 15.9981 24.9058C16.0319 24.9058 16.0609 24.887 16.0609 24.887C16.3623 24.7394 19.5963 22.413 19.5963 22.413L20.7545 21.4966C21.5111 20.8942 22.2634 20.0889 22.428 19.2986C22.6108 18.3995 22.6014 17.3055 22.4003 16.4266M14.9842 22.4945C14.9622 22.5288 14.9097 22.518 14.8717 22.5152C14.6819 22.3816 14.2141 22.0431 14.2141 22.0431C13.4083 21.4478 12.595 20.8975 11.823 20.2872C10.638 18.9864 10.7575 17.687 11.1217 16.3849C11.1348 16.2995 11.1742 16.1725 11.2844 16.1495C11.6191 16.6408 12.3283 17.6519 12.3283 17.6519C13.0173 18.6414 13.855 19.532 14.6467 20.4606C15.1909 20.9589 14.9697 21.7947 14.9852 22.4945M15.9986 19.9155C15.9822 19.9145 15.9564 19.9033 15.932 19.878C14.9069 18.6653 13.7439 17.297 12.7225 16.0802C12.5383 15.7727 12.3503 15.4764 12.3302 15.0799C12.3166 14.7695 12.2973 14.4836 12.5538 14.0959C12.5538 14.0959 12.7244 13.8499 12.7741 13.7767C12.7741 13.7767 14.8652 10.8447 15.9663 9.45485C15.9663 9.45485 15.9808 9.43564 15.9986 9.43564C16.0145 9.43564 16.0291 9.45485 16.0291 9.45485C17.1292 10.8447 19.2208 13.7767 19.2208 13.7767C19.2705 13.8499 19.4411 14.0959 19.4411 14.0959C19.6975 14.4836 19.6783 14.7691 19.6647 15.0799C19.6441 15.4764 19.4566 15.7727 19.2723 16.0802C18.2509 17.2966 17.088 18.6653 16.0628 19.878C16.0384 19.9033 16.0141 19.9141 16.0005 19.9155M20.1648 20.2872C19.3933 20.8975 18.5795 21.4483 17.7738 22.0431C17.7738 22.0431 17.3055 22.3816 17.1161 22.5152C17.0781 22.518 17.0261 22.5292 17.0031 22.4945C17.0181 21.7947 16.7983 20.9589 17.3416 20.4606C18.1338 19.5325 18.9705 18.6414 19.66 17.6519C19.66 17.6519 20.3683 16.6408 20.7034 16.1495C20.8136 16.1725 20.853 16.2995 20.8661 16.3849C21.2308 17.6875 21.3503 18.9869 20.1648 20.2872Z" fill="white"/>
<defs>
<linearGradient id="paint0_linear_1044_3827" x1="16.0731" y1="4.04688" x2="16.0731" y2="24.9269" gradientUnits="userSpaceOnUse">
<stop stop-color="#2140A6"/>
<stop offset="1" stop-color="#001B73"/>
</linearGradient>
</defs>
</svg>
