<svg width="32" height="32" viewBox="0 0 32 32" fill="none" xmlns="http://www.w3.org/2000/svg">
<path d="M18.1505 15.3464C18.6745 15.3418 19.199 15.3372 19.7087 15.4205C21.4371 15.7019 22.5953 17.2843 22.4389 19.0326C22.2898 20.698 20.8438 22.0337 19.1375 22.0494C17.3188 22.0662 15.5001 22.0683 13.6814 22.0494C11.806 22.0295 10.3895 20.5206 10.3706 18.5507C10.3604 17.3841 10.4065 16 10.4065 15.0526C10.4065 14.5 10.3765 13.6004 10.4368 12.8804C10.5659 11.3274 11.994 10.041 13.5103 9.99274C15.2471 9.93814 16.7423 11.0344 17.0027 12.6494C17.0876 13.1749 17.0838 13.7147 17.08 14.2541C17.0785 14.4756 17.0769 14.6971 17.0815 14.9175C17.0857 15.1319 17.0862 15.2369 17.139 15.2893C17.1911 15.3412 17.2943 15.3417 17.5026 15.3459C17.7178 15.3502 17.9341 15.3483 18.1505 15.3464Z" fill="#FF001B"/>
<path fill-rule="evenodd" clip-rule="evenodd" d="M9.41617 4H22.5838C25.5754 4 28 6.42457 28 9.41617V22.5838C28 25.5754 25.5754 28 22.5838 28H9.41617C6.42457 28 4 25.5754 4 22.5838V9.41617C4 6.42457 6.42457 4 9.41617 4ZM20.0721 24.0287C22.3276 23.553 23.8145 22.1964 24.3574 19.9692L24.3563 19.9702C24.8971 17.7515 24.1946 15.8666 22.4242 14.4165C21.496 13.6563 20.3987 13.3035 19.1754 13.2636C19.1728 13.2312 19.1704 13.2027 19.1682 13.1767C19.164 13.1278 19.1606 13.0877 19.1586 13.0473C19.0315 10.3644 16.8621 8.12566 14.1929 7.92195C10.9912 7.67728 8.30627 10.1638 8.29996 13.3822C8.29681 15.1379 8.29576 16.8946 8.30311 18.6503C8.30416 18.9601 8.32517 19.2751 8.38082 19.5796C8.87539 22.294 11.0721 24.1253 13.8463 24.1369C15.5611 24.1442 17.2748 24.1442 18.9895 24.1337C19.3518 24.1316 19.7193 24.1033 20.0721 24.0287Z" fill="#FF001B"/>
</svg>
